<?xml version="1.0" encoding="utf-8" standalone="no"?>
<!DOCTYPE svg PUBLIC "-//W3C//DTD SVG 1.1//EN"
  "http://www.w3.org/Graphics/SVG/1.1/DTD/svg11.dtd">
<svg xmlns:xlink="http://www.w3.org/1999/xlink" width="385.87875pt" height="277.314375pt" viewBox="0 0 385.87875 277.314375" xmlns="http://www.w3.org/2000/svg" version="1.1">
 <metadata>
  <rdf:RDF xmlns:dc="http://purl.org/dc/elements/1.1/" xmlns:cc="http://creativecommons.org/ns#" xmlns:rdf="http://www.w3.org/1999/02/22-rdf-syntax-ns#">
   <cc:Work>
    <dc:type rdf:resource="http://purl.org/dc/dcmitype/StillImage"/>
    <dc:date>2023-02-11T16:17:03.837248</dc:date>
    <dc:format>image/svg+xml</dc:format>
    <dc:creator>
     <cc:Agent>
      <dc:title>Matplotlib v3.5.2, https://matplotlib.org/</dc:title>
     </cc:Agent>
    </dc:creator>
   </cc:Work>
  </rdf:RDF>
 </metadata>
 <defs>
  <style type="text/css">*{stroke-linejoin: round; stroke-linecap: butt}</style>
 </defs>
 <g id="figure_1">
  <g id="patch_1">
   <path d="M 0 277.314375 
L 385.87875 277.314375 
L 385.87875 0 
L 0 0 
z
" style="fill: #ffffff"/>
  </g>
  <g id="axes_1">
   <g id="patch_2">
    <path d="M 43.78125 239.758125 
L 378.58125 239.758125 
L 378.58125 22.318125 
L 43.78125 22.318125 
z
" style="fill: #ffffff"/>
   </g>
   <g id="matplotlib.axis_1">
    <g id="xtick_1">
     <g id="line2d_1">
      <path d="M 72.274867 239.758125 
L 72.274867 22.318125 
" clip-path="url(#p1f8d7d0971)" style="fill: none; stroke: #b0b0b0; stroke-width: 0.8; stroke-linecap: square"/>
     </g>
     <g id="line2d_2">
      <defs>
       <path id="mfdeb1722bd" d="M 0 0 
L 0 3.5 
" style="stroke: #000000; stroke-width: 0.8"/>
      </defs>
      <g>
       <use xlink:href="#mfdeb1722bd" x="72.274867" y="239.758125" style="stroke: #000000; stroke-width: 0.8"/>
      </g>
     </g>
     <g id="text_1">
      <!-- 400 -->
      <g transform="translate(62.731117 254.356562)scale(0.1 -0.1)">
       <defs>
        <path id="DejaVuSans-34" d="M 2419 4116 
L 825 1625 
L 2419 1625 
L 2419 4116 
z
M 2253 4666 
L 3047 4666 
L 3047 1625 
L 3713 1625 
L 3713 1100 
L 3047 1100 
L 3047 0 
L 2419 0 
L 2419 1100 
L 313 1100 
L 313 1709 
L 2253 4666 
z
" transform="scale(0.015625)"/>
        <path id="DejaVuSans-30" d="M 2034 4250 
Q 1547 4250 1301 3770 
Q 1056 3291 1056 2328 
Q 1056 1369 1301 889 
Q 1547 409 2034 409 
Q 2525 409 2770 889 
Q 3016 1369 3016 2328 
Q 3016 3291 2770 3770 
Q 2525 4250 2034 4250 
z
M 2034 4750 
Q 2819 4750 3233 4129 
Q 3647 3509 3647 2328 
Q 3647 1150 3233 529 
Q 2819 -91 2034 -91 
Q 1250 -91 836 529 
Q 422 1150 422 2328 
Q 422 3509 836 4129 
Q 1250 4750 2034 4750 
z
" transform="scale(0.015625)"/>
       </defs>
       <use xlink:href="#DejaVuSans-34"/>
       <use xlink:href="#DejaVuSans-30" x="63.623047"/>
       <use xlink:href="#DejaVuSans-30" x="127.246094"/>
      </g>
     </g>
    </g>
    <g id="xtick_2">
     <g id="line2d_3">
      <path d="M 143.50891 239.758125 
L 143.50891 22.318125 
" clip-path="url(#p1f8d7d0971)" style="fill: none; stroke: #b0b0b0; stroke-width: 0.8; stroke-linecap: square"/>
     </g>
     <g id="line2d_4">
      <g>
       <use xlink:href="#mfdeb1722bd" x="143.50891" y="239.758125" style="stroke: #000000; stroke-width: 0.8"/>
      </g>
     </g>
     <g id="text_2">
      <!-- 500 -->
      <g transform="translate(133.96516 254.356562)scale(0.1 -0.1)">
       <defs>
        <path id="DejaVuSans-35" d="M 691 4666 
L 3169 4666 
L 3169 4134 
L 1269 4134 
L 1269 2991 
Q 1406 3038 1543 3061 
Q 1681 3084 1819 3084 
Q 2600 3084 3056 2656 
Q 3513 2228 3513 1497 
Q 3513 744 3044 326 
Q 2575 -91 1722 -91 
Q 1428 -91 1123 -41 
Q 819 9 494 109 
L 494 744 
Q 775 591 1075 516 
Q 1375 441 1709 441 
Q 2250 441 2565 725 
Q 2881 1009 2881 1497 
Q 2881 1984 2565 2268 
Q 2250 2553 1709 2553 
Q 1456 2553 1204 2497 
Q 953 2441 691 2322 
L 691 4666 
z
" transform="scale(0.015625)"/>
       </defs>
       <use xlink:href="#DejaVuSans-35"/>
       <use xlink:href="#DejaVuSans-30" x="63.623047"/>
       <use xlink:href="#DejaVuSans-30" x="127.246094"/>
      </g>
     </g>
    </g>
    <g id="xtick_3">
     <g id="line2d_5">
      <path d="M 214.742952 239.758125 
L 214.742952 22.318125 
" clip-path="url(#p1f8d7d0971)" style="fill: none; stroke: #b0b0b0; stroke-width: 0.8; stroke-linecap: square"/>
     </g>
     <g id="line2d_6">
      <g>
       <use xlink:href="#mfdeb1722bd" x="214.742952" y="239.758125" style="stroke: #000000; stroke-width: 0.8"/>
      </g>
     </g>
     <g id="text_3">
      <!-- 600 -->
      <g transform="translate(205.199202 254.356562)scale(0.1 -0.1)">
       <defs>
        <path id="DejaVuSans-36" d="M 2113 2584 
Q 1688 2584 1439 2293 
Q 1191 2003 1191 1497 
Q 1191 994 1439 701 
Q 1688 409 2113 409 
Q 2538 409 2786 701 
Q 3034 994 3034 1497 
Q 3034 2003 2786 2293 
Q 2538 2584 2113 2584 
z
M 3366 4563 
L 3366 3988 
Q 3128 4100 2886 4159 
Q 2644 4219 2406 4219 
Q 1781 4219 1451 3797 
Q 1122 3375 1075 2522 
Q 1259 2794 1537 2939 
Q 1816 3084 2150 3084 
Q 2853 3084 3261 2657 
Q 3669 2231 3669 1497 
Q 3669 778 3244 343 
Q 2819 -91 2113 -91 
Q 1303 -91 875 529 
Q 447 1150 447 2328 
Q 447 3434 972 4092 
Q 1497 4750 2381 4750 
Q 2619 4750 2861 4703 
Q 3103 4656 3366 4563 
z
" transform="scale(0.015625)"/>
       </defs>
       <use xlink:href="#DejaVuSans-36"/>
       <use xlink:href="#DejaVuSans-30" x="63.623047"/>
       <use xlink:href="#DejaVuSans-30" x="127.246094"/>
      </g>
     </g>
    </g>
    <g id="xtick_4">
     <g id="line2d_7">
      <path d="M 285.976995 239.758125 
L 285.976995 22.318125 
" clip-path="url(#p1f8d7d0971)" style="fill: none; stroke: #b0b0b0; stroke-width: 0.8; stroke-linecap: square"/>
     </g>
     <g id="line2d_8">
      <g>
       <use xlink:href="#mfdeb1722bd" x="285.976995" y="239.758125" style="stroke: #000000; stroke-width: 0.8"/>
      </g>
     </g>
     <g id="text_4">
      <!-- 700 -->
      <g transform="translate(276.433245 254.356562)scale(0.1 -0.1)">
       <defs>
        <path id="DejaVuSans-37" d="M 525 4666 
L 3525 4666 
L 3525 4397 
L 1831 0 
L 1172 0 
L 2766 4134 
L 525 4134 
L 525 4666 
z
" transform="scale(0.015625)"/>
       </defs>
       <use xlink:href="#DejaVuSans-37"/>
       <use xlink:href="#DejaVuSans-30" x="63.623047"/>
       <use xlink:href="#DejaVuSans-30" x="127.246094"/>
      </g>
     </g>
    </g>
    <g id="xtick_5">
     <g id="line2d_9">
      <path d="M 357.211037 239.758125 
L 357.211037 22.318125 
" clip-path="url(#p1f8d7d0971)" style="fill: none; stroke: #b0b0b0; stroke-width: 0.8; stroke-linecap: square"/>
     </g>
     <g id="line2d_10">
      <g>
       <use xlink:href="#mfdeb1722bd" x="357.211037" y="239.758125" style="stroke: #000000; stroke-width: 0.8"/>
      </g>
     </g>
     <g id="text_5">
      <!-- 800 -->
      <g transform="translate(347.667287 254.356562)scale(0.1 -0.1)">
       <defs>
        <path id="DejaVuSans-38" d="M 2034 2216 
Q 1584 2216 1326 1975 
Q 1069 1734 1069 1313 
Q 1069 891 1326 650 
Q 1584 409 2034 409 
Q 2484 409 2743 651 
Q 3003 894 3003 1313 
Q 3003 1734 2745 1975 
Q 2488 2216 2034 2216 
z
M 1403 2484 
Q 997 2584 770 2862 
Q 544 3141 544 3541 
Q 544 4100 942 4425 
Q 1341 4750 2034 4750 
Q 2731 4750 3128 4425 
Q 3525 4100 3525 3541 
Q 3525 3141 3298 2862 
Q 3072 2584 2669 2484 
Q 3125 2378 3379 2068 
Q 3634 1759 3634 1313 
Q 3634 634 3220 271 
Q 2806 -91 2034 -91 
Q 1263 -91 848 271 
Q 434 634 434 1313 
Q 434 1759 690 2068 
Q 947 2378 1403 2484 
z
M 1172 3481 
Q 1172 3119 1398 2916 
Q 1625 2713 2034 2713 
Q 2441 2713 2670 2916 
Q 2900 3119 2900 3481 
Q 2900 3844 2670 4047 
Q 2441 4250 2034 4250 
Q 1625 4250 1398 4047 
Q 1172 3844 1172 3481 
z
" transform="scale(0.015625)"/>
       </defs>
       <use xlink:href="#DejaVuSans-38"/>
       <use xlink:href="#DejaVuSans-30" x="63.623047"/>
       <use xlink:href="#DejaVuSans-30" x="127.246094"/>
      </g>
     </g>
    </g>
    <g id="text_6">
     <!-- wavelength (nm) -->
     <g transform="translate(168.525 268.034687)scale(0.1 -0.1)">
      <defs>
       <path id="DejaVuSans-77" d="M 269 3500 
L 844 3500 
L 1563 769 
L 2278 3500 
L 2956 3500 
L 3675 769 
L 4391 3500 
L 4966 3500 
L 4050 0 
L 3372 0 
L 2619 2869 
L 1863 0 
L 1184 0 
L 269 3500 
z
" transform="scale(0.015625)"/>
       <path id="DejaVuSans-61" d="M 2194 1759 
Q 1497 1759 1228 1600 
Q 959 1441 959 1056 
Q 959 750 1161 570 
Q 1363 391 1709 391 
Q 2188 391 2477 730 
Q 2766 1069 2766 1631 
L 2766 1759 
L 2194 1759 
z
M 3341 1997 
L 3341 0 
L 2766 0 
L 2766 531 
Q 2569 213 2275 61 
Q 1981 -91 1556 -91 
Q 1019 -91 701 211 
Q 384 513 384 1019 
Q 384 1609 779 1909 
Q 1175 2209 1959 2209 
L 2766 2209 
L 2766 2266 
Q 2766 2663 2505 2880 
Q 2244 3097 1772 3097 
Q 1472 3097 1187 3025 
Q 903 2953 641 2809 
L 641 3341 
Q 956 3463 1253 3523 
Q 1550 3584 1831 3584 
Q 2591 3584 2966 3190 
Q 3341 2797 3341 1997 
z
" transform="scale(0.015625)"/>
       <path id="DejaVuSans-76" d="M 191 3500 
L 800 3500 
L 1894 563 
L 2988 3500 
L 3597 3500 
L 2284 0 
L 1503 0 
L 191 3500 
z
" transform="scale(0.015625)"/>
       <path id="DejaVuSans-65" d="M 3597 1894 
L 3597 1613 
L 953 1613 
Q 991 1019 1311 708 
Q 1631 397 2203 397 
Q 2534 397 2845 478 
Q 3156 559 3463 722 
L 3463 178 
Q 3153 47 2828 -22 
Q 2503 -91 2169 -91 
Q 1331 -91 842 396 
Q 353 884 353 1716 
Q 353 2575 817 3079 
Q 1281 3584 2069 3584 
Q 2775 3584 3186 3129 
Q 3597 2675 3597 1894 
z
M 3022 2063 
Q 3016 2534 2758 2815 
Q 2500 3097 2075 3097 
Q 1594 3097 1305 2825 
Q 1016 2553 972 2059 
L 3022 2063 
z
" transform="scale(0.015625)"/>
       <path id="DejaVuSans-6c" d="M 603 4863 
L 1178 4863 
L 1178 0 
L 603 0 
L 603 4863 
z
" transform="scale(0.015625)"/>
       <path id="DejaVuSans-6e" d="M 3513 2113 
L 3513 0 
L 2938 0 
L 2938 2094 
Q 2938 2591 2744 2837 
Q 2550 3084 2163 3084 
Q 1697 3084 1428 2787 
Q 1159 2491 1159 1978 
L 1159 0 
L 581 0 
L 581 3500 
L 1159 3500 
L 1159 2956 
Q 1366 3272 1645 3428 
Q 1925 3584 2291 3584 
Q 2894 3584 3203 3211 
Q 3513 2838 3513 2113 
z
" transform="scale(0.015625)"/>
       <path id="DejaVuSans-67" d="M 2906 1791 
Q 2906 2416 2648 2759 
Q 2391 3103 1925 3103 
Q 1463 3103 1205 2759 
Q 947 2416 947 1791 
Q 947 1169 1205 825 
Q 1463 481 1925 481 
Q 2391 481 2648 825 
Q 2906 1169 2906 1791 
z
M 3481 434 
Q 3481 -459 3084 -895 
Q 2688 -1331 1869 -1331 
Q 1566 -1331 1297 -1286 
Q 1028 -1241 775 -1147 
L 775 -588 
Q 1028 -725 1275 -790 
Q 1522 -856 1778 -856 
Q 2344 -856 2625 -561 
Q 2906 -266 2906 331 
L 2906 616 
Q 2728 306 2450 153 
Q 2172 0 1784 0 
Q 1141 0 747 490 
Q 353 981 353 1791 
Q 353 2603 747 3093 
Q 1141 3584 1784 3584 
Q 2172 3584 2450 3431 
Q 2728 3278 2906 2969 
L 2906 3500 
L 3481 3500 
L 3481 434 
z
" transform="scale(0.015625)"/>
       <path id="DejaVuSans-74" d="M 1172 4494 
L 1172 3500 
L 2356 3500 
L 2356 3053 
L 1172 3053 
L 1172 1153 
Q 1172 725 1289 603 
Q 1406 481 1766 481 
L 2356 481 
L 2356 0 
L 1766 0 
Q 1100 0 847 248 
Q 594 497 594 1153 
L 594 3053 
L 172 3053 
L 172 3500 
L 594 3500 
L 594 4494 
L 1172 4494 
z
" transform="scale(0.015625)"/>
       <path id="DejaVuSans-68" d="M 3513 2113 
L 3513 0 
L 2938 0 
L 2938 2094 
Q 2938 2591 2744 2837 
Q 2550 3084 2163 3084 
Q 1697 3084 1428 2787 
Q 1159 2491 1159 1978 
L 1159 0 
L 581 0 
L 581 4863 
L 1159 4863 
L 1159 2956 
Q 1366 3272 1645 3428 
Q 1925 3584 2291 3584 
Q 2894 3584 3203 3211 
Q 3513 2838 3513 2113 
z
" transform="scale(0.015625)"/>
       <path id="DejaVuSans-20" transform="scale(0.015625)"/>
       <path id="DejaVuSans-28" d="M 1984 4856 
Q 1566 4138 1362 3434 
Q 1159 2731 1159 2009 
Q 1159 1288 1364 580 
Q 1569 -128 1984 -844 
L 1484 -844 
Q 1016 -109 783 600 
Q 550 1309 550 2009 
Q 550 2706 781 3412 
Q 1013 4119 1484 4856 
L 1984 4856 
z
" transform="scale(0.015625)"/>
       <path id="DejaVuSans-6d" d="M 3328 2828 
Q 3544 3216 3844 3400 
Q 4144 3584 4550 3584 
Q 5097 3584 5394 3201 
Q 5691 2819 5691 2113 
L 5691 0 
L 5113 0 
L 5113 2094 
Q 5113 2597 4934 2840 
Q 4756 3084 4391 3084 
Q 3944 3084 3684 2787 
Q 3425 2491 3425 1978 
L 3425 0 
L 2847 0 
L 2847 2094 
Q 2847 2600 2669 2842 
Q 2491 3084 2119 3084 
Q 1678 3084 1418 2786 
Q 1159 2488 1159 1978 
L 1159 0 
L 581 0 
L 581 3500 
L 1159 3500 
L 1159 2956 
Q 1356 3278 1631 3431 
Q 1906 3584 2284 3584 
Q 2666 3584 2933 3390 
Q 3200 3197 3328 2828 
z
" transform="scale(0.015625)"/>
       <path id="DejaVuSans-29" d="M 513 4856 
L 1013 4856 
Q 1481 4119 1714 3412 
Q 1947 2706 1947 2009 
Q 1947 1309 1714 600 
Q 1481 -109 1013 -844 
L 513 -844 
Q 928 -128 1133 580 
Q 1338 1288 1338 2009 
Q 1338 2731 1133 3434 
Q 928 4138 513 4856 
z
" transform="scale(0.015625)"/>
      </defs>
      <use xlink:href="#DejaVuSans-77"/>
      <use xlink:href="#DejaVuSans-61" x="81.787109"/>
      <use xlink:href="#DejaVuSans-76" x="143.066406"/>
      <use xlink:href="#DejaVuSans-65" x="202.246094"/>
      <use xlink:href="#DejaVuSans-6c" x="263.769531"/>
      <use xlink:href="#DejaVuSans-65" x="291.552734"/>
      <use xlink:href="#DejaVuSans-6e" x="353.076172"/>
      <use xlink:href="#DejaVuSans-67" x="416.455078"/>
      <use xlink:href="#DejaVuSans-74" x="479.931641"/>
      <use xlink:href="#DejaVuSans-68" x="519.140625"/>
      <use xlink:href="#DejaVuSans-20" x="582.519531"/>
      <use xlink:href="#DejaVuSans-28" x="614.306641"/>
      <use xlink:href="#DejaVuSans-6e" x="653.320312"/>
      <use xlink:href="#DejaVuSans-6d" x="716.699219"/>
      <use xlink:href="#DejaVuSans-29" x="814.111328"/>
     </g>
    </g>
   </g>
   <g id="matplotlib.axis_2">
    <g id="ytick_1">
     <g id="line2d_11">
      <path d="M 43.78125 239.758125 
L 378.58125 239.758125 
" clip-path="url(#p1f8d7d0971)" style="fill: none; stroke: #b0b0b0; stroke-width: 0.8; stroke-linecap: square"/>
     </g>
     <g id="line2d_12">
      <defs>
       <path id="mf4c8a3357a" d="M 0 0 
L -3.5 0 
" style="stroke: #000000; stroke-width: 0.8"/>
      </defs>
      <g>
       <use xlink:href="#mf4c8a3357a" x="43.78125" y="239.758125" style="stroke: #000000; stroke-width: 0.8"/>
      </g>
     </g>
     <g id="text_7">
      <!-- 0.0 -->
      <g transform="translate(20.878125 243.557344)scale(0.1 -0.1)">
       <defs>
        <path id="DejaVuSans-2e" d="M 684 794 
L 1344 794 
L 1344 0 
L 684 0 
L 684 794 
z
" transform="scale(0.015625)"/>
       </defs>
       <use xlink:href="#DejaVuSans-30"/>
       <use xlink:href="#DejaVuSans-2e" x="63.623047"/>
       <use xlink:href="#DejaVuSans-30" x="95.410156"/>
      </g>
     </g>
    </g>
    <g id="ytick_2">
     <g id="line2d_13">
      <path d="M 43.78125 196.270125 
L 378.58125 196.270125 
" clip-path="url(#p1f8d7d0971)" style="fill: none; stroke: #b0b0b0; stroke-width: 0.8; stroke-linecap: square"/>
     </g>
     <g id="line2d_14">
      <g>
       <use xlink:href="#mf4c8a3357a" x="43.78125" y="196.270125" style="stroke: #000000; stroke-width: 0.8"/>
      </g>
     </g>
     <g id="text_8">
      <!-- 0.2 -->
      <g transform="translate(20.878125 200.069344)scale(0.1 -0.1)">
       <defs>
        <path id="DejaVuSans-32" d="M 1228 531 
L 3431 531 
L 3431 0 
L 469 0 
L 469 531 
Q 828 903 1448 1529 
Q 2069 2156 2228 2338 
Q 2531 2678 2651 2914 
Q 2772 3150 2772 3378 
Q 2772 3750 2511 3984 
Q 2250 4219 1831 4219 
Q 1534 4219 1204 4116 
Q 875 4013 500 3803 
L 500 4441 
Q 881 4594 1212 4672 
Q 1544 4750 1819 4750 
Q 2544 4750 2975 4387 
Q 3406 4025 3406 3419 
Q 3406 3131 3298 2873 
Q 3191 2616 2906 2266 
Q 2828 2175 2409 1742 
Q 1991 1309 1228 531 
z
" transform="scale(0.015625)"/>
       </defs>
       <use xlink:href="#DejaVuSans-30"/>
       <use xlink:href="#DejaVuSans-2e" x="63.623047"/>
       <use xlink:href="#DejaVuSans-32" x="95.410156"/>
      </g>
     </g>
    </g>
    <g id="ytick_3">
     <g id="line2d_15">
      <path d="M 43.78125 152.782125 
L 378.58125 152.782125 
" clip-path="url(#p1f8d7d0971)" style="fill: none; stroke: #b0b0b0; stroke-width: 0.8; stroke-linecap: square"/>
     </g>
     <g id="line2d_16">
      <g>
       <use xlink:href="#mf4c8a3357a" x="43.78125" y="152.782125" style="stroke: #000000; stroke-width: 0.8"/>
      </g>
     </g>
     <g id="text_9">
      <!-- 0.4 -->
      <g transform="translate(20.878125 156.581344)scale(0.1 -0.1)">
       <use xlink:href="#DejaVuSans-30"/>
       <use xlink:href="#DejaVuSans-2e" x="63.623047"/>
       <use xlink:href="#DejaVuSans-34" x="95.410156"/>
      </g>
     </g>
    </g>
    <g id="ytick_4">
     <g id="line2d_17">
      <path d="M 43.78125 109.294125 
L 378.58125 109.294125 
" clip-path="url(#p1f8d7d0971)" style="fill: none; stroke: #b0b0b0; stroke-width: 0.8; stroke-linecap: square"/>
     </g>
     <g id="line2d_18">
      <g>
       <use xlink:href="#mf4c8a3357a" x="43.78125" y="109.294125" style="stroke: #000000; stroke-width: 0.8"/>
      </g>
     </g>
     <g id="text_10">
      <!-- 0.6 -->
      <g transform="translate(20.878125 113.093344)scale(0.1 -0.1)">
       <use xlink:href="#DejaVuSans-30"/>
       <use xlink:href="#DejaVuSans-2e" x="63.623047"/>
       <use xlink:href="#DejaVuSans-36" x="95.410156"/>
      </g>
     </g>
    </g>
    <g id="ytick_5">
     <g id="line2d_19">
      <path d="M 43.78125 65.806125 
L 378.58125 65.806125 
" clip-path="url(#p1f8d7d0971)" style="fill: none; stroke: #b0b0b0; stroke-width: 0.8; stroke-linecap: square"/>
     </g>
     <g id="line2d_20">
      <g>
       <use xlink:href="#mf4c8a3357a" x="43.78125" y="65.806125" style="stroke: #000000; stroke-width: 0.8"/>
      </g>
     </g>
     <g id="text_11">
      <!-- 0.8 -->
      <g transform="translate(20.878125 69.605344)scale(0.1 -0.1)">
       <use xlink:href="#DejaVuSans-30"/>
       <use xlink:href="#DejaVuSans-2e" x="63.623047"/>
       <use xlink:href="#DejaVuSans-38" x="95.410156"/>
      </g>
     </g>
    </g>
    <g id="ytick_6">
     <g id="line2d_21">
      <path d="M 43.78125 22.318125 
L 378.58125 22.318125 
" clip-path="url(#p1f8d7d0971)" style="fill: none; stroke: #b0b0b0; stroke-width: 0.8; stroke-linecap: square"/>
     </g>
     <g id="line2d_22">
      <g>
       <use xlink:href="#mf4c8a3357a" x="43.78125" y="22.318125" style="stroke: #000000; stroke-width: 0.8"/>
      </g>
     </g>
     <g id="text_12">
      <!-- 1.0 -->
      <g transform="translate(20.878125 26.117344)scale(0.1 -0.1)">
       <defs>
        <path id="DejaVuSans-31" d="M 794 531 
L 1825 531 
L 1825 4091 
L 703 3866 
L 703 4441 
L 1819 4666 
L 2450 4666 
L 2450 531 
L 3481 531 
L 3481 0 
L 794 0 
L 794 531 
z
" transform="scale(0.015625)"/>
       </defs>
       <use xlink:href="#DejaVuSans-31"/>
       <use xlink:href="#DejaVuSans-2e" x="63.623047"/>
       <use xlink:href="#DejaVuSans-30" x="95.410156"/>
      </g>
     </g>
    </g>
    <g id="text_13">
     <!-- reflectance -->
     <g transform="translate(14.798438 159.051406)rotate(-90)scale(0.1 -0.1)">
      <defs>
       <path id="DejaVuSans-72" d="M 2631 2963 
Q 2534 3019 2420 3045 
Q 2306 3072 2169 3072 
Q 1681 3072 1420 2755 
Q 1159 2438 1159 1844 
L 1159 0 
L 581 0 
L 581 3500 
L 1159 3500 
L 1159 2956 
Q 1341 3275 1631 3429 
Q 1922 3584 2338 3584 
Q 2397 3584 2469 3576 
Q 2541 3569 2628 3553 
L 2631 2963 
z
" transform="scale(0.015625)"/>
       <path id="DejaVuSans-66" d="M 2375 4863 
L 2375 4384 
L 1825 4384 
Q 1516 4384 1395 4259 
Q 1275 4134 1275 3809 
L 1275 3500 
L 2222 3500 
L 2222 3053 
L 1275 3053 
L 1275 0 
L 697 0 
L 697 3053 
L 147 3053 
L 147 3500 
L 697 3500 
L 697 3744 
Q 697 4328 969 4595 
Q 1241 4863 1831 4863 
L 2375 4863 
z
" transform="scale(0.015625)"/>
       <path id="DejaVuSans-63" d="M 3122 3366 
L 3122 2828 
Q 2878 2963 2633 3030 
Q 2388 3097 2138 3097 
Q 1578 3097 1268 2742 
Q 959 2388 959 1747 
Q 959 1106 1268 751 
Q 1578 397 2138 397 
Q 2388 397 2633 464 
Q 2878 531 3122 666 
L 3122 134 
Q 2881 22 2623 -34 
Q 2366 -91 2075 -91 
Q 1284 -91 818 406 
Q 353 903 353 1747 
Q 353 2603 823 3093 
Q 1294 3584 2113 3584 
Q 2378 3584 2631 3529 
Q 2884 3475 3122 3366 
z
" transform="scale(0.015625)"/>
      </defs>
      <use xlink:href="#DejaVuSans-72"/>
      <use xlink:href="#DejaVuSans-65" x="38.863281"/>
      <use xlink:href="#DejaVuSans-66" x="100.386719"/>
      <use xlink:href="#DejaVuSans-6c" x="135.591797"/>
      <use xlink:href="#DejaVuSans-65" x="163.375"/>
      <use xlink:href="#DejaVuSans-63" x="224.898438"/>
      <use xlink:href="#DejaVuSans-74" x="279.878906"/>
      <use xlink:href="#DejaVuSans-61" x="319.087891"/>
      <use xlink:href="#DejaVuSans-6e" x="380.367188"/>
      <use xlink:href="#DejaVuSans-63" x="443.746094"/>
      <use xlink:href="#DejaVuSans-65" x="498.726562"/>
     </g>
    </g>
   </g>
   <g id="line2d_23">
    <path d="M 43.78125 212.9326 
L 47.342952 215.07177 
L 50.904654 217.071304 
L 54.466356 218.938088 
L 58.028059 220.677737 
L 61.589761 222.255574 
L 65.151463 223.721117 
L 68.713165 225.080175 
L 72.274867 226.337139 
L 75.836569 227.507024 
L 79.398271 228.581581 
L 82.959973 229.567028 
L 86.521676 230.471634 
L 90.083378 231.300759 
L 93.64508 232.060255 
L 97.206782 232.755294 
L 100.768484 233.391146 
L 104.330186 233.972609 
L 107.891888 234.503413 
L 111.45359 234.990457 
L 115.015293 235.434794 
L 118.576995 235.840006 
L 122.138697 236.20947 
L 125.700399 236.546604 
L 129.262101 236.853701 
L 132.823803 237.133834 
L 136.385505 237.388741 
L 139.947207 237.615835 
L 143.50891 237.819593 
L 147.070612 238.004548 
L 150.632314 238.172209 
L 154.194016 238.323241 
L 157.755718 238.459088 
L 161.31742 238.580126 
L 164.879122 238.687013 
L 168.440824 238.780068 
L 172.002527 238.859959 
L 175.564229 238.926674 
L 179.125931 238.98101 
L 182.687633 239.022183 
L 186.249335 239.050122 
L 189.811037 239.064895 
L 193.372739 239.06632 
L 196.934441 239.05454 
L 200.496144 239.02822 
L 204.057846 238.986656 
L 207.619548 238.931243 
L 211.18125 238.861745 
L 214.742952 238.77797 
L 218.304654 238.679737 
L 221.866356 238.566613 
L 225.428059 238.438304 
L 228.989761 238.294498 
L 232.551463 238.134856 
L 236.113165 237.959526 
L 239.674867 237.767931 
L 243.236569 237.559514 
L 246.798271 237.334129 
L 250.359973 237.091493 
L 253.921676 236.868199 
L 257.483378 236.631177 
L 261.04508 236.380294 
L 264.606782 236.115186 
L 268.168484 235.835896 
L 271.730186 235.542228 
L 275.291888 235.234398 
L 278.85359 234.911996 
L 282.415293 234.575069 
L 285.976995 234.223496 
L 289.538697 233.83588 
L 293.100399 233.43187 
L 296.662101 233.011611 
L 300.223803 232.574857 
L 303.785505 232.121708 
L 307.347207 231.6521 
L 310.90891 231.166353 
L 314.470612 230.664393 
L 318.032314 230.146507 
L 321.594016 229.612572 
L 325.155718 229.088625 
L 328.71742 228.550726 
L 332.279122 227.998887 
L 335.840824 227.433528 
L 339.402527 226.8548 
L 342.964229 226.263203 
L 346.525931 225.658764 
L 350.087633 225.041584 
L 353.649335 224.412609 
L 357.211037 223.771595 
L 360.772739 223.089107 
L 364.334441 222.393817 
L 367.896144 221.685853 
L 371.457846 220.967992 
L 375.019548 220.238553 
L 378.58125 219.498081 
" clip-path="url(#p1f8d7d0971)" style="fill: none; stroke: #1f77b4; stroke-width: 1.5; stroke-linecap: square"/>
   </g>
   <g id="line2d_24">
    <path d="M 43.78125 211.604943 
L 47.342952 206.261467 
L 50.904654 199.993258 
L 54.466356 192.746194 
L 58.028059 184.482857 
L 61.589761 175.30498 
L 65.151463 165.138733 
L 68.713165 154.038511 
L 72.274867 142.109507 
L 75.836569 129.469949 
L 79.398271 116.399959 
L 82.959973 103.199671 
L 86.521676 90.221698 
L 90.083378 77.868658 
L 93.64508 66.558281 
L 97.206782 56.688821 
L 100.768484 48.663133 
L 104.330186 42.691571 
L 107.891888 38.882924 
L 111.45359 37.248093 
L 115.015293 37.65971 
L 118.576995 39.902665 
L 122.138697 43.701706 
L 125.700399 48.7568 
L 129.262101 54.767697 
L 132.823803 61.454523 
L 136.385505 68.571018 
L 139.947207 75.885289 
L 143.50891 83.233629 
L 147.070612 90.505166 
L 150.632314 97.608837 
L 154.194016 104.480979 
L 157.755718 111.071513 
L 161.31742 117.359083 
L 164.879122 123.334643 
L 168.440824 128.995794 
L 172.002527 134.345827 
L 175.564229 139.393705 
L 179.125931 144.17333 
L 182.687633 148.681205 
L 186.249335 152.926874 
L 189.811037 156.925694 
L 193.372739 160.69429 
L 196.934441 164.245944 
L 200.496144 167.608491 
L 204.057846 170.79919 
L 207.619548 173.813882 
L 211.18125 176.665543 
L 214.742952 179.365712 
L 218.304654 181.924978 
L 221.866356 184.354763 
L 225.428059 186.664415 
L 228.989761 188.862746 
L 232.551463 190.957671 
L 236.113165 192.954257 
L 239.674867 194.860818 
L 243.236569 196.684493 
L 246.798271 198.430263 
L 250.359973 200.103124 
L 253.921676 201.628905 
L 257.483378 203.09647 
L 261.04508 204.509298 
L 264.606782 205.870945 
L 268.168484 207.184067 
L 271.730186 208.451422 
L 275.291888 209.674308 
L 278.85359 210.856268 
L 282.415293 211.998683 
L 285.976995 213.103938 
L 289.538697 214.19361 
L 293.100399 215.247542 
L 296.662101 216.266971 
L 300.223803 217.253766 
L 303.785505 218.208814 
L 307.347207 219.133424 
L 310.90891 220.028331 
L 314.470612 220.894543 
L 318.032314 221.732666 
L 321.594016 222.543989 
L 325.155718 223.312811 
L 328.71742 224.056594 
L 332.279122 224.776451 
L 335.840824 225.47253 
L 339.402527 226.145211 
L 342.964229 226.795079 
L 346.525931 227.422515 
L 350.087633 228.028101 
L 353.649335 228.611372 
L 357.211037 229.173336 
L 360.772739 229.713716 
L 364.334441 230.232665 
L 367.896144 230.730246 
L 371.457846 231.203958 
L 375.019548 231.656673 
L 378.58125 232.08845 
" clip-path="url(#p1f8d7d0971)" style="fill: none; stroke: #ff7f0e; stroke-width: 1.5; stroke-linecap: square"/>
   </g>
   <g id="line2d_25">
    <path d="M 43.78125 224.973126 
L 47.342952 228.28927 
L 50.904654 230.969674 
L 54.466356 233.080328 
L 58.028059 234.667058 
L 61.589761 235.754556 
L 65.151463 236.381298 
L 68.713165 236.560312 
L 72.274867 236.297327 
L 75.836569 235.586927 
L 79.398271 234.428402 
L 82.959973 232.811937 
L 86.521676 230.71987 
L 90.083378 228.130894 
L 93.64508 225.018502 
L 97.206782 221.351768 
L 100.768484 217.086243 
L 104.330186 212.188236 
L 107.891888 206.62142 
L 111.45359 200.33133 
L 115.015293 193.295396 
L 118.576995 185.48812 
L 122.138697 176.895962 
L 125.700399 167.523878 
L 129.262101 157.406734 
L 132.823803 146.611819 
L 136.385505 135.251947 
L 139.947207 123.599766 
L 143.50891 111.838061 
L 147.070612 100.144075 
L 150.632314 88.798634 
L 154.194016 78.102885 
L 157.755718 68.356519 
L 161.31742 59.82932 
L 164.879122 52.740917 
L 168.440824 47.244708 
L 172.002527 43.415433 
L 175.564229 41.248561 
L 179.125931 40.642527 
L 182.687633 41.499089 
L 186.249335 43.649515 
L 189.811037 46.894266 
L 193.372739 51.028088 
L 196.934441 55.852023 
L 200.496144 61.233534 
L 204.057846 67.02589 
L 207.619548 73.015881 
L 211.18125 79.092578 
L 214.742952 85.167115 
L 218.304654 91.170813 
L 221.866356 97.053309 
L 225.428059 102.777894 
L 228.989761 108.319554 
L 232.551463 113.661828 
L 236.113165 118.793319 
L 239.674867 123.712479 
L 243.236569 128.420837 
L 246.798271 132.921565 
L 250.359973 137.220248 
L 253.921676 141.190612 
L 257.483378 144.98261 
L 261.04508 148.605078 
L 264.606782 152.067006 
L 268.168484 155.376965 
L 271.730186 158.543407 
L 275.291888 161.572965 
L 278.85359 164.475156 
L 282.415293 167.256457 
L 285.976995 169.924579 
L 289.538697 172.519432 
L 293.100399 175.010812 
L 296.662101 177.404343 
L 300.223803 179.706158 
L 303.785505 181.920888 
L 307.347207 184.053536 
L 310.90891 186.108202 
L 314.470612 188.089021 
L 318.032314 189.999519 
L 321.594016 191.843939 
L 325.155718 193.594252 
L 328.71742 195.2859 
L 332.279122 196.922393 
L 335.840824 198.505728 
L 339.402527 200.038063 
L 342.964229 201.521839 
L 346.525931 202.958987 
L 350.087633 204.351695 
L 353.649335 205.700497 
L 357.211037 207.008032 
L 360.772739 208.272829 
L 364.334441 209.498809 
L 367.896144 210.686929 
L 371.457846 211.834252 
L 375.019548 212.945849 
L 378.58125 214.022433 
" clip-path="url(#p1f8d7d0971)" style="fill: none; stroke: #2ca02c; stroke-width: 1.5; stroke-linecap: square"/>
   </g>
   <g id="line2d_26">
    <path d="M 43.78125 101.405257 
L 47.342952 120.886045 
L 50.904654 138.426329 
L 54.466356 153.793719 
L 58.028059 167.068818 
L 61.589761 178.369686 
L 65.151463 188.050032 
L 68.713165 196.342961 
L 72.274867 203.451125 
L 75.836569 209.565832 
L 79.398271 214.802472 
L 82.959973 219.284303 
L 86.521676 223.117386 
L 90.083378 226.383264 
L 93.64508 229.149391 
L 97.206782 231.470427 
L 100.768484 233.391146 
L 104.330186 234.94677 
L 107.891888 236.16463 
L 111.45359 237.067825 
L 115.015293 237.669602 
L 118.576995 237.980972 
L 122.138697 238.007426 
L 125.700399 237.749659 
L 129.262101 237.203667 
L 132.823803 236.361776 
L 136.385505 235.211742 
L 139.947207 233.747805 
L 143.50891 231.952307 
L 147.070612 229.797739 
L 150.632314 227.257481 
L 154.194016 224.302146 
L 157.755718 220.900873 
L 161.31742 217.019082 
L 164.879122 212.620045 
L 168.440824 207.668591 
L 172.002527 202.130861 
L 175.564229 195.97854 
L 179.125931 189.151009 
L 182.687633 181.655562 
L 186.249335 173.50255 
L 189.811037 164.713249 
L 193.372739 155.332345 
L 196.934441 145.43328 
L 200.496144 135.13213 
L 204.057846 124.583343 
L 207.619548 113.940307 
L 211.18125 103.398531 
L 214.742952 93.171913 
L 218.304654 83.481655 
L 221.866356 74.540759 
L 225.428059 66.543669 
L 228.989761 59.651261 
L 232.551463 53.980743 
L 236.113165 49.601185 
L 239.674867 46.529821 
L 243.236569 44.737723 
L 246.798271 44.156024 
L 250.359973 44.684934 
L 253.921676 46.443241 
L 257.483378 48.967761 
L 261.04508 52.13556 
L 264.606782 55.828473 
L 268.168484 59.936802 
L 271.730186 64.361548 
L 275.291888 69.014922 
L 278.85359 73.822437 
L 282.415293 78.720258 
L 285.976995 83.655989 
L 289.538697 88.592338 
L 293.100399 93.496826 
L 296.662101 98.340164 
L 300.223803 103.100166 
L 303.785505 107.759524 
L 307.347207 112.306007 
L 310.90891 116.730864 
L 314.470612 121.028444 
L 318.032314 125.195556 
L 321.594016 129.231621 
L 325.155718 133.082143 
L 328.71742 136.805546 
L 332.279122 140.40501 
L 335.840824 143.883165 
L 339.402527 147.243261 
L 342.964229 150.489435 
L 346.525931 153.625429 
L 350.087633 156.655571 
L 353.649335 159.582666 
L 357.211037 162.41175 
L 360.772739 165.125044 
L 364.334441 167.750048 
L 367.896144 170.289704 
L 371.457846 172.742603 
L 375.019548 175.116389 
L 378.58125 177.413716 
" clip-path="url(#p1f8d7d0971)" style="fill: none; stroke: #d62728; stroke-width: 1.5; stroke-linecap: square"/>
   </g>
   <g id="patch_3">
    <path d="M 43.78125 239.758125 
L 43.78125 22.318125 
" style="fill: none; stroke: #000000; stroke-width: 0.8; stroke-linejoin: miter; stroke-linecap: square"/>
   </g>
   <g id="patch_4">
    <path d="M 378.58125 239.758125 
L 378.58125 22.318125 
" style="fill: none; stroke: #000000; stroke-width: 0.8; stroke-linejoin: miter; stroke-linecap: square"/>
   </g>
   <g id="patch_5">
    <path d="M 43.78125 239.758125 
L 378.58125 239.758125 
" style="fill: none; stroke: #000000; stroke-width: 0.8; stroke-linejoin: miter; stroke-linecap: square"/>
   </g>
   <g id="patch_6">
    <path d="M 43.78125 22.318125 
L 378.58125 22.318125 
" style="fill: none; stroke: #000000; stroke-width: 0.8; stroke-linejoin: miter; stroke-linecap: square"/>
   </g>
   <g id="text_14">
    <!-- Reflectance of variable airgap in interferometric display -->
    <g transform="translate(43.68375 16.318125)scale(0.12 -0.12)">
     <defs>
      <path id="DejaVuSans-52" d="M 2841 2188 
Q 3044 2119 3236 1894 
Q 3428 1669 3622 1275 
L 4263 0 
L 3584 0 
L 2988 1197 
Q 2756 1666 2539 1819 
Q 2322 1972 1947 1972 
L 1259 1972 
L 1259 0 
L 628 0 
L 628 4666 
L 2053 4666 
Q 2853 4666 3247 4331 
Q 3641 3997 3641 3322 
Q 3641 2881 3436 2590 
Q 3231 2300 2841 2188 
z
M 1259 4147 
L 1259 2491 
L 2053 2491 
Q 2509 2491 2742 2702 
Q 2975 2913 2975 3322 
Q 2975 3731 2742 3939 
Q 2509 4147 2053 4147 
L 1259 4147 
z
" transform="scale(0.015625)"/>
      <path id="DejaVuSans-6f" d="M 1959 3097 
Q 1497 3097 1228 2736 
Q 959 2375 959 1747 
Q 959 1119 1226 758 
Q 1494 397 1959 397 
Q 2419 397 2687 759 
Q 2956 1122 2956 1747 
Q 2956 2369 2687 2733 
Q 2419 3097 1959 3097 
z
M 1959 3584 
Q 2709 3584 3137 3096 
Q 3566 2609 3566 1747 
Q 3566 888 3137 398 
Q 2709 -91 1959 -91 
Q 1206 -91 779 398 
Q 353 888 353 1747 
Q 353 2609 779 3096 
Q 1206 3584 1959 3584 
z
" transform="scale(0.015625)"/>
      <path id="DejaVuSans-69" d="M 603 3500 
L 1178 3500 
L 1178 0 
L 603 0 
L 603 3500 
z
M 603 4863 
L 1178 4863 
L 1178 4134 
L 603 4134 
L 603 4863 
z
" transform="scale(0.015625)"/>
      <path id="DejaVuSans-62" d="M 3116 1747 
Q 3116 2381 2855 2742 
Q 2594 3103 2138 3103 
Q 1681 3103 1420 2742 
Q 1159 2381 1159 1747 
Q 1159 1113 1420 752 
Q 1681 391 2138 391 
Q 2594 391 2855 752 
Q 3116 1113 3116 1747 
z
M 1159 2969 
Q 1341 3281 1617 3432 
Q 1894 3584 2278 3584 
Q 2916 3584 3314 3078 
Q 3713 2572 3713 1747 
Q 3713 922 3314 415 
Q 2916 -91 2278 -91 
Q 1894 -91 1617 61 
Q 1341 213 1159 525 
L 1159 0 
L 581 0 
L 581 4863 
L 1159 4863 
L 1159 2969 
z
" transform="scale(0.015625)"/>
      <path id="DejaVuSans-70" d="M 1159 525 
L 1159 -1331 
L 581 -1331 
L 581 3500 
L 1159 3500 
L 1159 2969 
Q 1341 3281 1617 3432 
Q 1894 3584 2278 3584 
Q 2916 3584 3314 3078 
Q 3713 2572 3713 1747 
Q 3713 922 3314 415 
Q 2916 -91 2278 -91 
Q 1894 -91 1617 61 
Q 1341 213 1159 525 
z
M 3116 1747 
Q 3116 2381 2855 2742 
Q 2594 3103 2138 3103 
Q 1681 3103 1420 2742 
Q 1159 2381 1159 1747 
Q 1159 1113 1420 752 
Q 1681 391 2138 391 
Q 2594 391 2855 752 
Q 3116 1113 3116 1747 
z
" transform="scale(0.015625)"/>
      <path id="DejaVuSans-64" d="M 2906 2969 
L 2906 4863 
L 3481 4863 
L 3481 0 
L 2906 0 
L 2906 525 
Q 2725 213 2448 61 
Q 2172 -91 1784 -91 
Q 1150 -91 751 415 
Q 353 922 353 1747 
Q 353 2572 751 3078 
Q 1150 3584 1784 3584 
Q 2172 3584 2448 3432 
Q 2725 3281 2906 2969 
z
M 947 1747 
Q 947 1113 1208 752 
Q 1469 391 1925 391 
Q 2381 391 2643 752 
Q 2906 1113 2906 1747 
Q 2906 2381 2643 2742 
Q 2381 3103 1925 3103 
Q 1469 3103 1208 2742 
Q 947 2381 947 1747 
z
" transform="scale(0.015625)"/>
      <path id="DejaVuSans-73" d="M 2834 3397 
L 2834 2853 
Q 2591 2978 2328 3040 
Q 2066 3103 1784 3103 
Q 1356 3103 1142 2972 
Q 928 2841 928 2578 
Q 928 2378 1081 2264 
Q 1234 2150 1697 2047 
L 1894 2003 
Q 2506 1872 2764 1633 
Q 3022 1394 3022 966 
Q 3022 478 2636 193 
Q 2250 -91 1575 -91 
Q 1294 -91 989 -36 
Q 684 19 347 128 
L 347 722 
Q 666 556 975 473 
Q 1284 391 1588 391 
Q 1994 391 2212 530 
Q 2431 669 2431 922 
Q 2431 1156 2273 1281 
Q 2116 1406 1581 1522 
L 1381 1569 
Q 847 1681 609 1914 
Q 372 2147 372 2553 
Q 372 3047 722 3315 
Q 1072 3584 1716 3584 
Q 2034 3584 2315 3537 
Q 2597 3491 2834 3397 
z
" transform="scale(0.015625)"/>
      <path id="DejaVuSans-79" d="M 2059 -325 
Q 1816 -950 1584 -1140 
Q 1353 -1331 966 -1331 
L 506 -1331 
L 506 -850 
L 844 -850 
Q 1081 -850 1212 -737 
Q 1344 -625 1503 -206 
L 1606 56 
L 191 3500 
L 800 3500 
L 1894 763 
L 2988 3500 
L 3597 3500 
L 2059 -325 
z
" transform="scale(0.015625)"/>
     </defs>
     <use xlink:href="#DejaVuSans-52"/>
     <use xlink:href="#DejaVuSans-65" x="64.982422"/>
     <use xlink:href="#DejaVuSans-66" x="126.505859"/>
     <use xlink:href="#DejaVuSans-6c" x="161.710938"/>
     <use xlink:href="#DejaVuSans-65" x="189.494141"/>
     <use xlink:href="#DejaVuSans-63" x="251.017578"/>
     <use xlink:href="#DejaVuSans-74" x="305.998047"/>
     <use xlink:href="#DejaVuSans-61" x="345.207031"/>
     <use xlink:href="#DejaVuSans-6e" x="406.486328"/>
     <use xlink:href="#DejaVuSans-63" x="469.865234"/>
     <use xlink:href="#DejaVuSans-65" x="524.845703"/>
     <use xlink:href="#DejaVuSans-20" x="586.369141"/>
     <use xlink:href="#DejaVuSans-6f" x="618.15625"/>
     <use xlink:href="#DejaVuSans-66" x="679.337891"/>
     <use xlink:href="#DejaVuSans-20" x="714.542969"/>
     <use xlink:href="#DejaVuSans-76" x="746.330078"/>
     <use xlink:href="#DejaVuSans-61" x="805.509766"/>
     <use xlink:href="#DejaVuSans-72" x="866.789062"/>
     <use xlink:href="#DejaVuSans-69" x="907.902344"/>
     <use xlink:href="#DejaVuSans-61" x="935.685547"/>
     <use xlink:href="#DejaVuSans-62" x="996.964844"/>
     <use xlink:href="#DejaVuSans-6c" x="1060.441406"/>
     <use xlink:href="#DejaVuSans-65" x="1088.224609"/>
     <use xlink:href="#DejaVuSans-20" x="1149.748047"/>
     <use xlink:href="#DejaVuSans-61" x="1181.535156"/>
     <use xlink:href="#DejaVuSans-69" x="1242.814453"/>
     <use xlink:href="#DejaVuSans-72" x="1270.597656"/>
     <use xlink:href="#DejaVuSans-67" x="1309.960938"/>
     <use xlink:href="#DejaVuSans-61" x="1373.4375"/>
     <use xlink:href="#DejaVuSans-70" x="1434.716797"/>
     <use xlink:href="#DejaVuSans-20" x="1498.193359"/>
     <use xlink:href="#DejaVuSans-69" x="1529.980469"/>
     <use xlink:href="#DejaVuSans-6e" x="1557.763672"/>
     <use xlink:href="#DejaVuSans-20" x="1621.142578"/>
     <use xlink:href="#DejaVuSans-69" x="1652.929688"/>
     <use xlink:href="#DejaVuSans-6e" x="1680.712891"/>
     <use xlink:href="#DejaVuSans-74" x="1744.091797"/>
     <use xlink:href="#DejaVuSans-65" x="1783.300781"/>
     <use xlink:href="#DejaVuSans-72" x="1844.824219"/>
     <use xlink:href="#DejaVuSans-66" x="1885.9375"/>
     <use xlink:href="#DejaVuSans-65" x="1921.142578"/>
     <use xlink:href="#DejaVuSans-72" x="1982.666016"/>
     <use xlink:href="#DejaVuSans-6f" x="2021.529297"/>
     <use xlink:href="#DejaVuSans-6d" x="2082.710938"/>
     <use xlink:href="#DejaVuSans-65" x="2180.123047"/>
     <use xlink:href="#DejaVuSans-74" x="2241.646484"/>
     <use xlink:href="#DejaVuSans-72" x="2280.855469"/>
     <use xlink:href="#DejaVuSans-69" x="2321.96875"/>
     <use xlink:href="#DejaVuSans-63" x="2349.751953"/>
     <use xlink:href="#DejaVuSans-20" x="2404.732422"/>
     <use xlink:href="#DejaVuSans-64" x="2436.519531"/>
     <use xlink:href="#DejaVuSans-69" x="2499.996094"/>
     <use xlink:href="#DejaVuSans-73" x="2527.779297"/>
     <use xlink:href="#DejaVuSans-70" x="2579.878906"/>
     <use xlink:href="#DejaVuSans-6c" x="2643.355469"/>
     <use xlink:href="#DejaVuSans-61" x="2671.138672"/>
     <use xlink:href="#DejaVuSans-79" x="2732.417969"/>
    </g>
   </g>
   <g id="legend_1">
    <g id="patch_7">
     <path d="M 272.029688 89.030625 
L 371.58125 89.030625 
Q 373.58125 89.030625 373.58125 87.030625 
L 373.58125 29.318125 
Q 373.58125 27.318125 371.58125 27.318125 
L 272.029688 27.318125 
Q 270.029688 27.318125 270.029688 29.318125 
L 270.029688 87.030625 
Q 270.029688 89.030625 272.029688 89.030625 
z
" style="fill: #ffffff; opacity: 0.8; stroke: #cccccc; stroke-linejoin: miter"/>
    </g>
    <g id="line2d_27">
     <path d="M 274.029688 35.416562 
L 284.029688 35.416562 
L 294.029688 35.416562 
" style="fill: none; stroke: #1f77b4; stroke-width: 1.5; stroke-linecap: square"/>
    </g>
    <g id="text_15">
     <!-- tAir = 30nm -->
     <g transform="translate(302.029688 38.916562)scale(0.1 -0.1)">
      <defs>
       <path id="DejaVuSans-41" d="M 2188 4044 
L 1331 1722 
L 3047 1722 
L 2188 4044 
z
M 1831 4666 
L 2547 4666 
L 4325 0 
L 3669 0 
L 3244 1197 
L 1141 1197 
L 716 0 
L 50 0 
L 1831 4666 
z
" transform="scale(0.015625)"/>
       <path id="DejaVuSans-3d" d="M 678 2906 
L 4684 2906 
L 4684 2381 
L 678 2381 
L 678 2906 
z
M 678 1631 
L 4684 1631 
L 4684 1100 
L 678 1100 
L 678 1631 
z
" transform="scale(0.015625)"/>
       <path id="DejaVuSans-33" d="M 2597 2516 
Q 3050 2419 3304 2112 
Q 3559 1806 3559 1356 
Q 3559 666 3084 287 
Q 2609 -91 1734 -91 
Q 1441 -91 1130 -33 
Q 819 25 488 141 
L 488 750 
Q 750 597 1062 519 
Q 1375 441 1716 441 
Q 2309 441 2620 675 
Q 2931 909 2931 1356 
Q 2931 1769 2642 2001 
Q 2353 2234 1838 2234 
L 1294 2234 
L 1294 2753 
L 1863 2753 
Q 2328 2753 2575 2939 
Q 2822 3125 2822 3475 
Q 2822 3834 2567 4026 
Q 2313 4219 1838 4219 
Q 1578 4219 1281 4162 
Q 984 4106 628 3988 
L 628 4550 
Q 988 4650 1302 4700 
Q 1616 4750 1894 4750 
Q 2613 4750 3031 4423 
Q 3450 4097 3450 3541 
Q 3450 3153 3228 2886 
Q 3006 2619 2597 2516 
z
" transform="scale(0.015625)"/>
      </defs>
      <use xlink:href="#DejaVuSans-74"/>
      <use xlink:href="#DejaVuSans-41" x="39.208984"/>
      <use xlink:href="#DejaVuSans-69" x="107.617188"/>
      <use xlink:href="#DejaVuSans-72" x="135.400391"/>
      <use xlink:href="#DejaVuSans-20" x="176.513672"/>
      <use xlink:href="#DejaVuSans-3d" x="208.300781"/>
      <use xlink:href="#DejaVuSans-20" x="292.089844"/>
      <use xlink:href="#DejaVuSans-33" x="323.876953"/>
      <use xlink:href="#DejaVuSans-30" x="387.5"/>
      <use xlink:href="#DejaVuSans-6e" x="451.123047"/>
      <use xlink:href="#DejaVuSans-6d" x="514.501953"/>
     </g>
    </g>
    <g id="line2d_28">
     <path d="M 274.029688 50.094687 
L 284.029688 50.094687 
L 294.029688 50.094687 
" style="fill: none; stroke: #ff7f0e; stroke-width: 1.5; stroke-linecap: square"/>
    </g>
    <g id="text_16">
     <!-- tAir = 150nm -->
     <g transform="translate(302.029688 53.594687)scale(0.1 -0.1)">
      <use xlink:href="#DejaVuSans-74"/>
      <use xlink:href="#DejaVuSans-41" x="39.208984"/>
      <use xlink:href="#DejaVuSans-69" x="107.617188"/>
      <use xlink:href="#DejaVuSans-72" x="135.400391"/>
      <use xlink:href="#DejaVuSans-20" x="176.513672"/>
      <use xlink:href="#DejaVuSans-3d" x="208.300781"/>
      <use xlink:href="#DejaVuSans-20" x="292.089844"/>
      <use xlink:href="#DejaVuSans-31" x="323.876953"/>
      <use xlink:href="#DejaVuSans-35" x="387.5"/>
      <use xlink:href="#DejaVuSans-30" x="451.123047"/>
      <use xlink:href="#DejaVuSans-6e" x="514.746094"/>
      <use xlink:href="#DejaVuSans-6d" x="578.125"/>
     </g>
    </g>
    <g id="line2d_29">
     <path d="M 274.029688 64.772812 
L 284.029688 64.772812 
L 294.029688 64.772812 
" style="fill: none; stroke: #2ca02c; stroke-width: 1.5; stroke-linecap: square"/>
    </g>
    <g id="text_17">
     <!-- tAir = 200nm -->
     <g transform="translate(302.029688 68.272812)scale(0.1 -0.1)">
      <use xlink:href="#DejaVuSans-74"/>
      <use xlink:href="#DejaVuSans-41" x="39.208984"/>
      <use xlink:href="#DejaVuSans-69" x="107.617188"/>
      <use xlink:href="#DejaVuSans-72" x="135.400391"/>
      <use xlink:href="#DejaVuSans-20" x="176.513672"/>
      <use xlink:href="#DejaVuSans-3d" x="208.300781"/>
      <use xlink:href="#DejaVuSans-20" x="292.089844"/>
      <use xlink:href="#DejaVuSans-32" x="323.876953"/>
      <use xlink:href="#DejaVuSans-30" x="387.5"/>
      <use xlink:href="#DejaVuSans-30" x="451.123047"/>
      <use xlink:href="#DejaVuSans-6e" x="514.746094"/>
      <use xlink:href="#DejaVuSans-6d" x="578.125"/>
     </g>
    </g>
    <g id="line2d_30">
     <path d="M 274.029688 79.450938 
L 284.029688 79.450938 
L 294.029688 79.450938 
" style="fill: none; stroke: #d62728; stroke-width: 1.5; stroke-linecap: square"/>
    </g>
    <g id="text_18">
     <!-- tAir = 250nm -->
     <g transform="translate(302.029688 82.950938)scale(0.1 -0.1)">
      <use xlink:href="#DejaVuSans-74"/>
      <use xlink:href="#DejaVuSans-41" x="39.208984"/>
      <use xlink:href="#DejaVuSans-69" x="107.617188"/>
      <use xlink:href="#DejaVuSans-72" x="135.400391"/>
      <use xlink:href="#DejaVuSans-20" x="176.513672"/>
      <use xlink:href="#DejaVuSans-3d" x="208.300781"/>
      <use xlink:href="#DejaVuSans-20" x="292.089844"/>
      <use xlink:href="#DejaVuSans-32" x="323.876953"/>
      <use xlink:href="#DejaVuSans-35" x="387.5"/>
      <use xlink:href="#DejaVuSans-30" x="451.123047"/>
      <use xlink:href="#DejaVuSans-6e" x="514.746094"/>
      <use xlink:href="#DejaVuSans-6d" x="578.125"/>
     </g>
    </g>
   </g>
  </g>
 </g>
 <defs>
  <clipPath id="p1f8d7d0971">
   <rect x="43.78125" y="22.318125" width="334.8" height="217.44"/>
  </clipPath>
 </defs>
</svg>
