<?xml version="1.0" encoding="utf-8" standalone="no"?>
<!DOCTYPE svg PUBLIC "-//W3C//DTD SVG 1.1//EN"
  "http://www.w3.org/Graphics/SVG/1.1/DTD/svg11.dtd">
<svg xmlns:xlink="http://www.w3.org/1999/xlink" width="296.9pt" height="168.594375pt" viewBox="0 0 296.9 168.594375" xmlns="http://www.w3.org/2000/svg" version="1.1">
 <metadata>
  <rdf:RDF xmlns:dc="http://purl.org/dc/elements/1.1/" xmlns:cc="http://creativecommons.org/ns#" xmlns:rdf="http://www.w3.org/1999/02/22-rdf-syntax-ns#">
   <cc:Work>
    <dc:type rdf:resource="http://purl.org/dc/dcmitype/StillImage"/>
    <dc:date>2023-02-11T16:17:04.166116</dc:date>
    <dc:format>image/svg+xml</dc:format>
    <dc:creator>
     <cc:Agent>
      <dc:title>Matplotlib v3.5.2, https://matplotlib.org/</dc:title>
     </cc:Agent>
    </dc:creator>
   </cc:Work>
  </rdf:RDF>
 </metadata>
 <defs>
  <style type="text/css">*{stroke-linejoin: round; stroke-linecap: butt}</style>
 </defs>
 <g id="figure_1">
  <g id="patch_1">
   <path d="M 0 168.594375 
L 296.9 168.594375 
L 296.9 0 
L 0 0 
z
" style="fill: #ffffff"/>
  </g>
  <g id="axes_1">
   <g id="patch_2">
    <path d="M 10.7 131.038125 
L 289.7 131.038125 
L 289.7 22.318125 
L 10.7 22.318125 
z
" style="fill: #ffffff"/>
   </g>
   <g id="patch_3">
    <path d="M 10.7 131.038125 
L 11.820482 131.038125 
L 11.820482 22.318125 
L 10.7 22.318125 
z
" clip-path="url(#pf06c5acb15)" style="fill: #553d25; stroke: #553d25; stroke-linejoin: miter"/>
   </g>
   <g id="patch_4">
    <path d="M 11.820482 131.038125 
L 12.940964 131.038125 
L 12.940964 22.318125 
L 11.820482 22.318125 
z
" clip-path="url(#pf06c5acb15)" style="fill: #503821; stroke: #503821; stroke-linejoin: miter"/>
   </g>
   <g id="patch_5">
    <path d="M 12.940964 131.038125 
L 14.061446 131.038125 
L 14.061446 22.318125 
L 12.940964 22.318125 
z
" clip-path="url(#pf06c5acb15)" style="fill: #4c331d; stroke: #4c331d; stroke-linejoin: miter"/>
   </g>
   <g id="patch_6">
    <path d="M 14.061446 131.038125 
L 15.181928 131.038125 
L 15.181928 22.318125 
L 14.061446 22.318125 
z
" clip-path="url(#pf06c5acb15)" style="fill: #472f1a; stroke: #472f1a; stroke-linejoin: miter"/>
   </g>
   <g id="patch_7">
    <path d="M 15.181928 131.038125 
L 16.30241 131.038125 
L 16.30241 22.318125 
L 15.181928 22.318125 
z
" clip-path="url(#pf06c5acb15)" style="fill: #432b18; stroke: #432b18; stroke-linejoin: miter"/>
   </g>
   <g id="patch_8">
    <path d="M 16.30241 131.038125 
L 17.422892 131.038125 
L 17.422892 22.318125 
L 16.30241 22.318125 
z
" clip-path="url(#pf06c5acb15)" style="fill: #3e2616; stroke: #3e2616; stroke-linejoin: miter"/>
   </g>
   <g id="patch_9">
    <path d="M 17.422892 131.038125 
L 18.543373 131.038125 
L 18.543373 22.318125 
L 17.422892 22.318125 
z
" clip-path="url(#pf06c5acb15)" style="fill: #3a2216; stroke: #3a2216; stroke-linejoin: miter"/>
   </g>
   <g id="patch_10">
    <path d="M 18.543373 131.038125 
L 19.663855 131.038125 
L 19.663855 22.318125 
L 18.543373 22.318125 
z
" clip-path="url(#pf06c5acb15)" style="fill: #361e16; stroke: #361e16; stroke-linejoin: miter"/>
   </g>
   <g id="patch_11">
    <path d="M 19.663855 131.038125 
L 20.784337 131.038125 
L 20.784337 22.318125 
L 19.663855 22.318125 
z
" clip-path="url(#pf06c5acb15)" style="fill: #321a17; stroke: #321a17; stroke-linejoin: miter"/>
   </g>
   <g id="patch_12">
    <path d="M 20.784337 131.038125 
L 21.904819 131.038125 
L 21.904819 22.318125 
L 20.784337 22.318125 
z
" clip-path="url(#pf06c5acb15)" style="fill: #2e1619; stroke: #2e1619; stroke-linejoin: miter"/>
   </g>
   <g id="patch_13">
    <path d="M 21.904819 131.038125 
L 23.025301 131.038125 
L 23.025301 22.318125 
L 21.904819 22.318125 
z
" clip-path="url(#pf06c5acb15)" style="fill: #29131b; stroke: #29131b; stroke-linejoin: miter"/>
   </g>
   <g id="patch_14">
    <path d="M 23.025301 131.038125 
L 24.145783 131.038125 
L 24.145783 22.318125 
L 23.025301 22.318125 
z
" clip-path="url(#pf06c5acb15)" style="fill: #250f1e; stroke: #250f1e; stroke-linejoin: miter"/>
   </g>
   <g id="patch_15">
    <path d="M 24.145783 131.038125 
L 25.266265 131.038125 
L 25.266265 22.318125 
L 24.145783 22.318125 
z
" clip-path="url(#pf06c5acb15)" style="fill: #210d21; stroke: #210d21; stroke-linejoin: miter"/>
   </g>
   <g id="patch_16">
    <path d="M 25.266265 131.038125 
L 26.386747 131.038125 
L 26.386747 22.318125 
L 25.266265 22.318125 
z
" clip-path="url(#pf06c5acb15)" style="fill: #1d0a25; stroke: #1d0a25; stroke-linejoin: miter"/>
   </g>
   <g id="patch_17">
    <path d="M 26.386747 131.038125 
L 27.507229 131.038125 
L 27.507229 22.318125 
L 26.386747 22.318125 
z
" clip-path="url(#pf06c5acb15)" style="fill: #180a28; stroke: #180a28; stroke-linejoin: miter"/>
   </g>
   <g id="patch_18">
    <path d="M 27.507229 131.038125 
L 28.627711 131.038125 
L 28.627711 22.318125 
L 27.507229 22.318125 
z
" clip-path="url(#pf06c5acb15)" style="fill: #14092c; stroke: #14092c; stroke-linejoin: miter"/>
   </g>
   <g id="patch_19">
    <path d="M 28.627711 131.038125 
L 29.748193 131.038125 
L 29.748193 22.318125 
L 28.627711 22.318125 
z
" clip-path="url(#pf06c5acb15)" style="fill: #0f0a2f; stroke: #0f0a2f; stroke-linejoin: miter"/>
   </g>
   <g id="patch_20">
    <path d="M 29.748193 131.038125 
L 30.868675 131.038125 
L 30.868675 22.318125 
L 29.748193 22.318125 
z
" clip-path="url(#pf06c5acb15)" style="fill: #0a0b33; stroke: #0a0b33; stroke-linejoin: miter"/>
   </g>
   <g id="patch_21">
    <path d="M 30.868675 131.038125 
L 31.989157 131.038125 
L 31.989157 22.318125 
L 30.868675 22.318125 
z
" clip-path="url(#pf06c5acb15)" style="fill: #060d36; stroke: #060d36; stroke-linejoin: miter"/>
   </g>
   <g id="patch_22">
    <path d="M 31.989157 131.038125 
L 33.109639 131.038125 
L 33.109639 22.318125 
L 31.989157 22.318125 
z
" clip-path="url(#pf06c5acb15)" style="fill: #020f3a; stroke: #020f3a; stroke-linejoin: miter"/>
   </g>
   <g id="patch_23">
    <path d="M 33.109639 131.038125 
L 34.23012 131.038125 
L 34.23012 22.318125 
L 33.109639 22.318125 
z
" clip-path="url(#pf06c5acb15)" style="fill: #00123e; stroke: #00123e; stroke-linejoin: miter"/>
   </g>
   <g id="patch_24">
    <path d="M 34.23012 131.038125 
L 35.350602 131.038125 
L 35.350602 22.318125 
L 34.23012 22.318125 
z
" clip-path="url(#pf06c5acb15)" style="fill: #001541; stroke: #001541; stroke-linejoin: miter"/>
   </g>
   <g id="patch_25">
    <path d="M 35.350602 131.038125 
L 36.471084 131.038125 
L 36.471084 22.318125 
L 35.350602 22.318125 
z
" clip-path="url(#pf06c5acb15)" style="fill: #001845; stroke: #001845; stroke-linejoin: miter"/>
   </g>
   <g id="patch_26">
    <path d="M 36.471084 131.038125 
L 37.591566 131.038125 
L 37.591566 22.318125 
L 36.471084 22.318125 
z
" clip-path="url(#pf06c5acb15)" style="fill: #001b48; stroke: #001b48; stroke-linejoin: miter"/>
   </g>
   <g id="patch_27">
    <path d="M 37.591566 131.038125 
L 38.712048 131.038125 
L 38.712048 22.318125 
L 37.591566 22.318125 
z
" clip-path="url(#pf06c5acb15)" style="fill: #001e4c; stroke: #001e4c; stroke-linejoin: miter"/>
   </g>
   <g id="patch_28">
    <path d="M 38.712048 131.038125 
L 39.83253 131.038125 
L 39.83253 22.318125 
L 38.712048 22.318125 
z
" clip-path="url(#pf06c5acb15)" style="fill: #00214f; stroke: #00214f; stroke-linejoin: miter"/>
   </g>
   <g id="patch_29">
    <path d="M 39.83253 131.038125 
L 40.953012 131.038125 
L 40.953012 22.318125 
L 39.83253 22.318125 
z
" clip-path="url(#pf06c5acb15)" style="fill: #002453; stroke: #002453; stroke-linejoin: miter"/>
   </g>
   <g id="patch_30">
    <path d="M 40.953012 131.038125 
L 42.073494 131.038125 
L 42.073494 22.318125 
L 40.953012 22.318125 
z
" clip-path="url(#pf06c5acb15)" style="fill: #002757; stroke: #002757; stroke-linejoin: miter"/>
   </g>
   <g id="patch_31">
    <path d="M 42.073494 131.038125 
L 43.193976 131.038125 
L 43.193976 22.318125 
L 42.073494 22.318125 
z
" clip-path="url(#pf06c5acb15)" style="fill: #002a5a; stroke: #002a5a; stroke-linejoin: miter"/>
   </g>
   <g id="patch_32">
    <path d="M 43.193976 131.038125 
L 44.314458 131.038125 
L 44.314458 22.318125 
L 43.193976 22.318125 
z
" clip-path="url(#pf06c5acb15)" style="fill: #002c5e; stroke: #002c5e; stroke-linejoin: miter"/>
   </g>
   <g id="patch_33">
    <path d="M 44.314458 131.038125 
L 45.43494 131.038125 
L 45.43494 22.318125 
L 44.314458 22.318125 
z
" clip-path="url(#pf06c5acb15)" style="fill: #032f61; stroke: #032f61; stroke-linejoin: miter"/>
   </g>
   <g id="patch_34">
    <path d="M 45.43494 131.038125 
L 46.555422 131.038125 
L 46.555422 22.318125 
L 45.43494 22.318125 
z
" clip-path="url(#pf06c5acb15)" style="fill: #073265; stroke: #073265; stroke-linejoin: miter"/>
   </g>
   <g id="patch_35">
    <path d="M 46.555422 131.038125 
L 47.675904 131.038125 
L 47.675904 22.318125 
L 46.555422 22.318125 
z
" clip-path="url(#pf06c5acb15)" style="fill: #0a3568; stroke: #0a3568; stroke-linejoin: miter"/>
   </g>
   <g id="patch_36">
    <path d="M 47.675904 131.038125 
L 48.796386 131.038125 
L 48.796386 22.318125 
L 47.675904 22.318125 
z
" clip-path="url(#pf06c5acb15)" style="fill: #0e386c; stroke: #0e386c; stroke-linejoin: miter"/>
   </g>
   <g id="patch_37">
    <path d="M 48.796386 131.038125 
L 49.916867 131.038125 
L 49.916867 22.318125 
L 48.796386 22.318125 
z
" clip-path="url(#pf06c5acb15)" style="fill: #123a70; stroke: #123a70; stroke-linejoin: miter"/>
   </g>
   <g id="patch_38">
    <path d="M 49.916867 131.038125 
L 51.037349 131.038125 
L 51.037349 22.318125 
L 49.916867 22.318125 
z
" clip-path="url(#pf06c5acb15)" style="fill: #153d73; stroke: #153d73; stroke-linejoin: miter"/>
   </g>
   <g id="patch_39">
    <path d="M 51.037349 131.038125 
L 52.157831 131.038125 
L 52.157831 22.318125 
L 51.037349 22.318125 
z
" clip-path="url(#pf06c5acb15)" style="fill: #184077; stroke: #184077; stroke-linejoin: miter"/>
   </g>
   <g id="patch_40">
    <path d="M 52.157831 131.038125 
L 53.278313 131.038125 
L 53.278313 22.318125 
L 52.157831 22.318125 
z
" clip-path="url(#pf06c5acb15)" style="fill: #1b427b; stroke: #1b427b; stroke-linejoin: miter"/>
   </g>
   <g id="patch_41">
    <path d="M 53.278313 131.038125 
L 54.398795 131.038125 
L 54.398795 22.318125 
L 53.278313 22.318125 
z
" clip-path="url(#pf06c5acb15)" style="fill: #1e457e; stroke: #1e457e; stroke-linejoin: miter"/>
   </g>
   <g id="patch_42">
    <path d="M 54.398795 131.038125 
L 55.519277 131.038125 
L 55.519277 22.318125 
L 54.398795 22.318125 
z
" clip-path="url(#pf06c5acb15)" style="fill: #214882; stroke: #214882; stroke-linejoin: miter"/>
   </g>
   <g id="patch_43">
    <path d="M 55.519277 131.038125 
L 56.639759 131.038125 
L 56.639759 22.318125 
L 55.519277 22.318125 
z
" clip-path="url(#pf06c5acb15)" style="fill: #244a86; stroke: #244a86; stroke-linejoin: miter"/>
   </g>
   <g id="patch_44">
    <path d="M 56.639759 131.038125 
L 57.760241 131.038125 
L 57.760241 22.318125 
L 56.639759 22.318125 
z
" clip-path="url(#pf06c5acb15)" style="fill: #264d89; stroke: #264d89; stroke-linejoin: miter"/>
   </g>
   <g id="patch_45">
    <path d="M 57.760241 131.038125 
L 58.880723 131.038125 
L 58.880723 22.318125 
L 57.760241 22.318125 
z
" clip-path="url(#pf06c5acb15)" style="fill: #294f8d; stroke: #294f8d; stroke-linejoin: miter"/>
   </g>
   <g id="patch_46">
    <path d="M 58.880723 131.038125 
L 60.001205 131.038125 
L 60.001205 22.318125 
L 58.880723 22.318125 
z
" clip-path="url(#pf06c5acb15)" style="fill: #2c5291; stroke: #2c5291; stroke-linejoin: miter"/>
   </g>
   <g id="patch_47">
    <path d="M 60.001205 131.038125 
L 61.121687 131.038125 
L 61.121687 22.318125 
L 60.001205 22.318125 
z
" clip-path="url(#pf06c5acb15)" style="fill: #2e5595; stroke: #2e5595; stroke-linejoin: miter"/>
   </g>
   <g id="patch_48">
    <path d="M 61.121687 131.038125 
L 62.242169 131.038125 
L 62.242169 22.318125 
L 61.121687 22.318125 
z
" clip-path="url(#pf06c5acb15)" style="fill: #305799; stroke: #305799; stroke-linejoin: miter"/>
   </g>
   <g id="patch_49">
    <path d="M 62.242169 131.038125 
L 63.362651 131.038125 
L 63.362651 22.318125 
L 62.242169 22.318125 
z
" clip-path="url(#pf06c5acb15)" style="fill: #335a9c; stroke: #335a9c; stroke-linejoin: miter"/>
   </g>
   <g id="patch_50">
    <path d="M 63.362651 131.038125 
L 64.483133 131.038125 
L 64.483133 22.318125 
L 63.362651 22.318125 
z
" clip-path="url(#pf06c5acb15)" style="fill: #355ca0; stroke: #355ca0; stroke-linejoin: miter"/>
   </g>
   <g id="patch_51">
    <path d="M 64.483133 131.038125 
L 65.603614 131.038125 
L 65.603614 22.318125 
L 64.483133 22.318125 
z
" clip-path="url(#pf06c5acb15)" style="fill: #375fa4; stroke: #375fa4; stroke-linejoin: miter"/>
   </g>
   <g id="patch_52">
    <path d="M 65.603614 131.038125 
L 66.724096 131.038125 
L 66.724096 22.318125 
L 65.603614 22.318125 
z
" clip-path="url(#pf06c5acb15)" style="fill: #3a62a8; stroke: #3a62a8; stroke-linejoin: miter"/>
   </g>
   <g id="patch_53">
    <path d="M 66.724096 131.038125 
L 67.844578 131.038125 
L 67.844578 22.318125 
L 66.724096 22.318125 
z
" clip-path="url(#pf06c5acb15)" style="fill: #3c64ac; stroke: #3c64ac; stroke-linejoin: miter"/>
   </g>
   <g id="patch_54">
    <path d="M 67.844578 131.038125 
L 68.96506 131.038125 
L 68.96506 22.318125 
L 67.844578 22.318125 
z
" clip-path="url(#pf06c5acb15)" style="fill: #3e67b0; stroke: #3e67b0; stroke-linejoin: miter"/>
   </g>
   <g id="patch_55">
    <path d="M 68.96506 131.038125 
L 70.085542 131.038125 
L 70.085542 22.318125 
L 68.96506 22.318125 
z
" clip-path="url(#pf06c5acb15)" style="fill: #4069b4; stroke: #4069b4; stroke-linejoin: miter"/>
   </g>
   <g id="patch_56">
    <path d="M 70.085542 131.038125 
L 71.206024 131.038125 
L 71.206024 22.318125 
L 70.085542 22.318125 
z
" clip-path="url(#pf06c5acb15)" style="fill: #426cb8; stroke: #426cb8; stroke-linejoin: miter"/>
   </g>
   <g id="patch_57">
    <path d="M 71.206024 131.038125 
L 72.326506 131.038125 
L 72.326506 22.318125 
L 71.206024 22.318125 
z
" clip-path="url(#pf06c5acb15)" style="fill: #446fbc; stroke: #446fbc; stroke-linejoin: miter"/>
   </g>
   <g id="patch_58">
    <path d="M 72.326506 131.038125 
L 73.446988 131.038125 
L 73.446988 22.318125 
L 72.326506 22.318125 
z
" clip-path="url(#pf06c5acb15)" style="fill: #4671c0; stroke: #4671c0; stroke-linejoin: miter"/>
   </g>
   <g id="patch_59">
    <path d="M 73.446988 131.038125 
L 74.56747 131.038125 
L 74.56747 22.318125 
L 73.446988 22.318125 
z
" clip-path="url(#pf06c5acb15)" style="fill: #4874c4; stroke: #4874c4; stroke-linejoin: miter"/>
   </g>
   <g id="patch_60">
    <path d="M 74.56747 131.038125 
L 75.687952 131.038125 
L 75.687952 22.318125 
L 74.56747 22.318125 
z
" clip-path="url(#pf06c5acb15)" style="fill: #4a77c8; stroke: #4a77c8; stroke-linejoin: miter"/>
   </g>
   <g id="patch_61">
    <path d="M 75.687952 131.038125 
L 76.808434 131.038125 
L 76.808434 22.318125 
L 75.687952 22.318125 
z
" clip-path="url(#pf06c5acb15)" style="fill: #4c7acc; stroke: #4c7acc; stroke-linejoin: miter"/>
   </g>
   <g id="patch_62">
    <path d="M 76.808434 131.038125 
L 77.928916 131.038125 
L 77.928916 22.318125 
L 76.808434 22.318125 
z
" clip-path="url(#pf06c5acb15)" style="fill: #4d7dd0; stroke: #4d7dd0; stroke-linejoin: miter"/>
   </g>
   <g id="patch_63">
    <path d="M 77.928916 131.038125 
L 79.049398 131.038125 
L 79.049398 22.318125 
L 77.928916 22.318125 
z
" clip-path="url(#pf06c5acb15)" style="fill: #4f80d3; stroke: #4f80d3; stroke-linejoin: miter"/>
   </g>
   <g id="patch_64">
    <path d="M 79.049398 131.038125 
L 80.16988 131.038125 
L 80.16988 22.318125 
L 79.049398 22.318125 
z
" clip-path="url(#pf06c5acb15)" style="fill: #5183d7; stroke: #5183d7; stroke-linejoin: miter"/>
   </g>
   <g id="patch_65">
    <path d="M 80.16988 131.038125 
L 81.290361 131.038125 
L 81.290361 22.318125 
L 80.16988 22.318125 
z
" clip-path="url(#pf06c5acb15)" style="fill: #5286da; stroke: #5286da; stroke-linejoin: miter"/>
   </g>
   <g id="patch_66">
    <path d="M 81.290361 131.038125 
L 82.410843 131.038125 
L 82.410843 22.318125 
L 81.290361 22.318125 
z
" clip-path="url(#pf06c5acb15)" style="fill: #5489dd; stroke: #5489dd; stroke-linejoin: miter"/>
   </g>
   <g id="patch_67">
    <path d="M 82.410843 131.038125 
L 83.531325 131.038125 
L 83.531325 22.318125 
L 82.410843 22.318125 
z
" clip-path="url(#pf06c5acb15)" style="fill: #558ce0; stroke: #558ce0; stroke-linejoin: miter"/>
   </g>
   <g id="patch_68">
    <path d="M 83.531325 131.038125 
L 84.651807 131.038125 
L 84.651807 22.318125 
L 83.531325 22.318125 
z
" clip-path="url(#pf06c5acb15)" style="fill: #568fe3; stroke: #568fe3; stroke-linejoin: miter"/>
   </g>
   <g id="patch_69">
    <path d="M 84.651807 131.038125 
L 85.772289 131.038125 
L 85.772289 22.318125 
L 84.651807 22.318125 
z
" clip-path="url(#pf06c5acb15)" style="fill: #5793e6; stroke: #5793e6; stroke-linejoin: miter"/>
   </g>
   <g id="patch_70">
    <path d="M 85.772289 131.038125 
L 86.892771 131.038125 
L 86.892771 22.318125 
L 85.772289 22.318125 
z
" clip-path="url(#pf06c5acb15)" style="fill: #5896e8; stroke: #5896e8; stroke-linejoin: miter"/>
   </g>
   <g id="patch_71">
    <path d="M 86.892771 131.038125 
L 88.013253 131.038125 
L 88.013253 22.318125 
L 86.892771 22.318125 
z
" clip-path="url(#pf06c5acb15)" style="fill: #599aea; stroke: #599aea; stroke-linejoin: miter"/>
   </g>
   <g id="patch_72">
    <path d="M 88.013253 131.038125 
L 89.133735 131.038125 
L 89.133735 22.318125 
L 88.013253 22.318125 
z
" clip-path="url(#pf06c5acb15)" style="fill: #5a9deb; stroke: #5a9deb; stroke-linejoin: miter"/>
   </g>
   <g id="patch_73">
    <path d="M 89.133735 131.038125 
L 90.254217 131.038125 
L 90.254217 22.318125 
L 89.133735 22.318125 
z
" clip-path="url(#pf06c5acb15)" style="fill: #5ba1ed; stroke: #5ba1ed; stroke-linejoin: miter"/>
   </g>
   <g id="patch_74">
    <path d="M 90.254217 131.038125 
L 91.374699 131.038125 
L 91.374699 22.318125 
L 90.254217 22.318125 
z
" clip-path="url(#pf06c5acb15)" style="fill: #5ca5ee; stroke: #5ca5ee; stroke-linejoin: miter"/>
   </g>
   <g id="patch_75">
    <path d="M 91.374699 131.038125 
L 92.495181 131.038125 
L 92.495181 22.318125 
L 91.374699 22.318125 
z
" clip-path="url(#pf06c5acb15)" style="fill: #5da9ee; stroke: #5da9ee; stroke-linejoin: miter"/>
   </g>
   <g id="patch_76">
    <path d="M 92.495181 131.038125 
L 93.615663 131.038125 
L 93.615663 22.318125 
L 92.495181 22.318125 
z
" clip-path="url(#pf06c5acb15)" style="fill: #5eacee; stroke: #5eacee; stroke-linejoin: miter"/>
   </g>
   <g id="patch_77">
    <path d="M 93.615663 131.038125 
L 94.736145 131.038125 
L 94.736145 22.318125 
L 93.615663 22.318125 
z
" clip-path="url(#pf06c5acb15)" style="fill: #5eb0ee; stroke: #5eb0ee; stroke-linejoin: miter"/>
   </g>
   <g id="patch_78">
    <path d="M 94.736145 131.038125 
L 95.856627 131.038125 
L 95.856627 22.318125 
L 94.736145 22.318125 
z
" clip-path="url(#pf06c5acb15)" style="fill: #5fb4ed; stroke: #5fb4ed; stroke-linejoin: miter"/>
   </g>
   <g id="patch_79">
    <path d="M 95.856627 131.038125 
L 96.977108 131.038125 
L 96.977108 22.318125 
L 95.856627 22.318125 
z
" clip-path="url(#pf06c5acb15)" style="fill: #60b8ec; stroke: #60b8ec; stroke-linejoin: miter"/>
   </g>
   <g id="patch_80">
    <path d="M 96.977108 131.038125 
L 98.09759 131.038125 
L 98.09759 22.318125 
L 96.977108 22.318125 
z
" clip-path="url(#pf06c5acb15)" style="fill: #61bcea; stroke: #61bcea; stroke-linejoin: miter"/>
   </g>
   <g id="patch_81">
    <path d="M 98.09759 131.038125 
L 99.218072 131.038125 
L 99.218072 22.318125 
L 98.09759 22.318125 
z
" clip-path="url(#pf06c5acb15)" style="fill: #62c0e8; stroke: #62c0e8; stroke-linejoin: miter"/>
   </g>
   <g id="patch_82">
    <path d="M 99.218072 131.038125 
L 100.338554 131.038125 
L 100.338554 22.318125 
L 99.218072 22.318125 
z
" clip-path="url(#pf06c5acb15)" style="fill: #64c4e5; stroke: #64c4e5; stroke-linejoin: miter"/>
   </g>
   <g id="patch_83">
    <path d="M 100.338554 131.038125 
L 101.459036 131.038125 
L 101.459036 22.318125 
L 100.338554 22.318125 
z
" clip-path="url(#pf06c5acb15)" style="fill: #66c8e2; stroke: #66c8e2; stroke-linejoin: miter"/>
   </g>
   <g id="patch_84">
    <path d="M 101.459036 131.038125 
L 102.579518 131.038125 
L 102.579518 22.318125 
L 101.459036 22.318125 
z
" clip-path="url(#pf06c5acb15)" style="fill: #68cbde; stroke: #68cbde; stroke-linejoin: miter"/>
   </g>
   <g id="patch_85">
    <path d="M 102.579518 131.038125 
L 103.7 131.038125 
L 103.7 22.318125 
L 102.579518 22.318125 
z
" clip-path="url(#pf06c5acb15)" style="fill: #6acfda; stroke: #6acfda; stroke-linejoin: miter"/>
   </g>
   <g id="patch_86">
    <path d="M 103.7 131.038125 
L 104.820482 131.038125 
L 104.820482 22.318125 
L 103.7 22.318125 
z
" clip-path="url(#pf06c5acb15)" style="fill: #6dd2d6; stroke: #6dd2d6; stroke-linejoin: miter"/>
   </g>
   <g id="patch_87">
    <path d="M 104.820482 131.038125 
L 105.940964 131.038125 
L 105.940964 22.318125 
L 104.820482 22.318125 
z
" clip-path="url(#pf06c5acb15)" style="fill: #70d6d1; stroke: #70d6d1; stroke-linejoin: miter"/>
   </g>
   <g id="patch_88">
    <path d="M 105.940964 131.038125 
L 107.061446 131.038125 
L 107.061446 22.318125 
L 105.940964 22.318125 
z
" clip-path="url(#pf06c5acb15)" style="fill: #73d9cc; stroke: #73d9cc; stroke-linejoin: miter"/>
   </g>
   <g id="patch_89">
    <path d="M 107.061446 131.038125 
L 108.181928 131.038125 
L 108.181928 22.318125 
L 107.061446 22.318125 
z
" clip-path="url(#pf06c5acb15)" style="fill: #77dcc7; stroke: #77dcc7; stroke-linejoin: miter"/>
   </g>
   <g id="patch_90">
    <path d="M 108.181928 131.038125 
L 109.30241 131.038125 
L 109.30241 22.318125 
L 108.181928 22.318125 
z
" clip-path="url(#pf06c5acb15)" style="fill: #7cdfc1; stroke: #7cdfc1; stroke-linejoin: miter"/>
   </g>
   <g id="patch_91">
    <path d="M 109.30241 131.038125 
L 110.422892 131.038125 
L 110.422892 22.318125 
L 109.30241 22.318125 
z
" clip-path="url(#pf06c5acb15)" style="fill: #80e1bb; stroke: #80e1bb; stroke-linejoin: miter"/>
   </g>
   <g id="patch_92">
    <path d="M 110.422892 131.038125 
L 111.543373 131.038125 
L 111.543373 22.318125 
L 110.422892 22.318125 
z
" clip-path="url(#pf06c5acb15)" style="fill: #85e4b4; stroke: #85e4b4; stroke-linejoin: miter"/>
   </g>
   <g id="patch_93">
    <path d="M 111.543373 131.038125 
L 112.663855 131.038125 
L 112.663855 22.318125 
L 111.543373 22.318125 
z
" clip-path="url(#pf06c5acb15)" style="fill: #8be6ad; stroke: #8be6ad; stroke-linejoin: miter"/>
   </g>
   <g id="patch_94">
    <path d="M 112.663855 131.038125 
L 113.784337 131.038125 
L 113.784337 22.318125 
L 112.663855 22.318125 
z
" clip-path="url(#pf06c5acb15)" style="fill: #90e7a6; stroke: #90e7a6; stroke-linejoin: miter"/>
   </g>
   <g id="patch_95">
    <path d="M 113.784337 131.038125 
L 114.904819 131.038125 
L 114.904819 22.318125 
L 113.784337 22.318125 
z
" clip-path="url(#pf06c5acb15)" style="fill: #96e99f; stroke: #96e99f; stroke-linejoin: miter"/>
   </g>
   <g id="patch_96">
    <path d="M 114.904819 131.038125 
L 116.025301 131.038125 
L 116.025301 22.318125 
L 114.904819 22.318125 
z
" clip-path="url(#pf06c5acb15)" style="fill: #9cea98; stroke: #9cea98; stroke-linejoin: miter"/>
   </g>
   <g id="patch_97">
    <path d="M 116.025301 131.038125 
L 117.145783 131.038125 
L 117.145783 22.318125 
L 116.025301 22.318125 
z
" clip-path="url(#pf06c5acb15)" style="fill: #a2eb90; stroke: #a2eb90; stroke-linejoin: miter"/>
   </g>
   <g id="patch_98">
    <path d="M 117.145783 131.038125 
L 118.266265 131.038125 
L 118.266265 22.318125 
L 117.145783 22.318125 
z
" clip-path="url(#pf06c5acb15)" style="fill: #a8eb89; stroke: #a8eb89; stroke-linejoin: miter"/>
   </g>
   <g id="patch_99">
    <path d="M 118.266265 131.038125 
L 119.386747 131.038125 
L 119.386747 22.318125 
L 118.266265 22.318125 
z
" clip-path="url(#pf06c5acb15)" style="fill: #aeec81; stroke: #aeec81; stroke-linejoin: miter"/>
   </g>
   <g id="patch_100">
    <path d="M 119.386747 131.038125 
L 120.507229 131.038125 
L 120.507229 22.318125 
L 119.386747 22.318125 
z
" clip-path="url(#pf06c5acb15)" style="fill: #b5ec79; stroke: #b5ec79; stroke-linejoin: miter"/>
   </g>
   <g id="patch_101">
    <path d="M 120.507229 131.038125 
L 121.627711 131.038125 
L 121.627711 22.318125 
L 120.507229 22.318125 
z
" clip-path="url(#pf06c5acb15)" style="fill: #bbeb71; stroke: #bbeb71; stroke-linejoin: miter"/>
   </g>
   <g id="patch_102">
    <path d="M 121.627711 131.038125 
L 122.748193 131.038125 
L 122.748193 22.318125 
L 121.627711 22.318125 
z
" clip-path="url(#pf06c5acb15)" style="fill: #c1ea69; stroke: #c1ea69; stroke-linejoin: miter"/>
   </g>
   <g id="patch_103">
    <path d="M 122.748193 131.038125 
L 123.868675 131.038125 
L 123.868675 22.318125 
L 122.748193 22.318125 
z
" clip-path="url(#pf06c5acb15)" style="fill: #c7e960; stroke: #c7e960; stroke-linejoin: miter"/>
   </g>
   <g id="patch_104">
    <path d="M 123.868675 131.038125 
L 124.989157 131.038125 
L 124.989157 22.318125 
L 123.868675 22.318125 
z
" clip-path="url(#pf06c5acb15)" style="fill: #cde757; stroke: #cde757; stroke-linejoin: miter"/>
   </g>
   <g id="patch_105">
    <path d="M 124.989157 131.038125 
L 126.109639 131.038125 
L 126.109639 22.318125 
L 124.989157 22.318125 
z
" clip-path="url(#pf06c5acb15)" style="fill: #d3e54e; stroke: #d3e54e; stroke-linejoin: miter"/>
   </g>
   <g id="patch_106">
    <path d="M 126.109639 131.038125 
L 127.23012 131.038125 
L 127.23012 22.318125 
L 126.109639 22.318125 
z
" clip-path="url(#pf06c5acb15)" style="fill: #d8e345; stroke: #d8e345; stroke-linejoin: miter"/>
   </g>
   <g id="patch_107">
    <path d="M 127.23012 131.038125 
L 128.350602 131.038125 
L 128.350602 22.318125 
L 127.23012 22.318125 
z
" clip-path="url(#pf06c5acb15)" style="fill: #dde13b; stroke: #dde13b; stroke-linejoin: miter"/>
   </g>
   <g id="patch_108">
    <path d="M 128.350602 131.038125 
L 129.471084 131.038125 
L 129.471084 22.318125 
L 128.350602 22.318125 
z
" clip-path="url(#pf06c5acb15)" style="fill: #e2de30; stroke: #e2de30; stroke-linejoin: miter"/>
   </g>
   <g id="patch_109">
    <path d="M 129.471084 131.038125 
L 130.591566 131.038125 
L 130.591566 22.318125 
L 129.471084 22.318125 
z
" clip-path="url(#pf06c5acb15)" style="fill: #e7da24; stroke: #e7da24; stroke-linejoin: miter"/>
   </g>
   <g id="patch_110">
    <path d="M 130.591566 131.038125 
L 131.712048 131.038125 
L 131.712048 22.318125 
L 130.591566 22.318125 
z
" clip-path="url(#pf06c5acb15)" style="fill: #ebd714; stroke: #ebd714; stroke-linejoin: miter"/>
   </g>
   <g id="patch_111">
    <path d="M 131.712048 131.038125 
L 132.83253 131.038125 
L 132.83253 22.318125 
L 131.712048 22.318125 
z
" clip-path="url(#pf06c5acb15)" style="fill: #efd300; stroke: #efd300; stroke-linejoin: miter"/>
   </g>
   <g id="patch_112">
    <path d="M 132.83253 131.038125 
L 133.953012 131.038125 
L 133.953012 22.318125 
L 132.83253 22.318125 
z
" clip-path="url(#pf06c5acb15)" style="fill: #f2cf00; stroke: #f2cf00; stroke-linejoin: miter"/>
   </g>
   <g id="patch_113">
    <path d="M 133.953012 131.038125 
L 135.073494 131.038125 
L 135.073494 22.318125 
L 133.953012 22.318125 
z
" clip-path="url(#pf06c5acb15)" style="fill: #f5ca00; stroke: #f5ca00; stroke-linejoin: miter"/>
   </g>
   <g id="patch_114">
    <path d="M 135.073494 131.038125 
L 136.193976 131.038125 
L 136.193976 22.318125 
L 135.073494 22.318125 
z
" clip-path="url(#pf06c5acb15)" style="fill: #f7c600; stroke: #f7c600; stroke-linejoin: miter"/>
   </g>
   <g id="patch_115">
    <path d="M 136.193976 131.038125 
L 137.314458 131.038125 
L 137.314458 22.318125 
L 136.193976 22.318125 
z
" clip-path="url(#pf06c5acb15)" style="fill: #f7c100; stroke: #f7c100; stroke-linejoin: miter"/>
   </g>
   <g id="patch_116">
    <path d="M 137.314458 131.038125 
L 138.43494 131.038125 
L 138.43494 22.318125 
L 137.314458 22.318125 
z
" clip-path="url(#pf06c5acb15)" style="fill: #f7bc00; stroke: #f7bc00; stroke-linejoin: miter"/>
   </g>
   <g id="patch_117">
    <path d="M 138.43494 131.038125 
L 139.555422 131.038125 
L 139.555422 22.318125 
L 138.43494 22.318125 
z
" clip-path="url(#pf06c5acb15)" style="fill: #f7b600; stroke: #f7b600; stroke-linejoin: miter"/>
   </g>
   <g id="patch_118">
    <path d="M 139.555422 131.038125 
L 140.675904 131.038125 
L 140.675904 22.318125 
L 139.555422 22.318125 
z
" clip-path="url(#pf06c5acb15)" style="fill: #f7b100; stroke: #f7b100; stroke-linejoin: miter"/>
   </g>
   <g id="patch_119">
    <path d="M 140.675904 131.038125 
L 141.796386 131.038125 
L 141.796386 22.318125 
L 140.675904 22.318125 
z
" clip-path="url(#pf06c5acb15)" style="fill: #f7ab00; stroke: #f7ab00; stroke-linejoin: miter"/>
   </g>
   <g id="patch_120">
    <path d="M 141.796386 131.038125 
L 142.916867 131.038125 
L 142.916867 22.318125 
L 141.796386 22.318125 
z
" clip-path="url(#pf06c5acb15)" style="fill: #f7a600; stroke: #f7a600; stroke-linejoin: miter"/>
   </g>
   <g id="patch_121">
    <path d="M 142.916867 131.038125 
L 144.037349 131.038125 
L 144.037349 22.318125 
L 142.916867 22.318125 
z
" clip-path="url(#pf06c5acb15)" style="fill: #f7a000; stroke: #f7a000; stroke-linejoin: miter"/>
   </g>
   <g id="patch_122">
    <path d="M 144.037349 131.038125 
L 145.157831 131.038125 
L 145.157831 22.318125 
L 144.037349 22.318125 
z
" clip-path="url(#pf06c5acb15)" style="fill: #f79a00; stroke: #f79a00; stroke-linejoin: miter"/>
   </g>
   <g id="patch_123">
    <path d="M 145.157831 131.038125 
L 146.278313 131.038125 
L 146.278313 22.318125 
L 145.157831 22.318125 
z
" clip-path="url(#pf06c5acb15)" style="fill: #f79400; stroke: #f79400; stroke-linejoin: miter"/>
   </g>
   <g id="patch_124">
    <path d="M 146.278313 131.038125 
L 147.398795 131.038125 
L 147.398795 22.318125 
L 146.278313 22.318125 
z
" clip-path="url(#pf06c5acb15)" style="fill: #f78e00; stroke: #f78e00; stroke-linejoin: miter"/>
   </g>
   <g id="patch_125">
    <path d="M 147.398795 131.038125 
L 148.519277 131.038125 
L 148.519277 22.318125 
L 147.398795 22.318125 
z
" clip-path="url(#pf06c5acb15)" style="fill: #f78800; stroke: #f78800; stroke-linejoin: miter"/>
   </g>
   <g id="patch_126">
    <path d="M 148.519277 131.038125 
L 149.639759 131.038125 
L 149.639759 22.318125 
L 148.519277 22.318125 
z
" clip-path="url(#pf06c5acb15)" style="fill: #f78200; stroke: #f78200; stroke-linejoin: miter"/>
   </g>
   <g id="patch_127">
    <path d="M 149.639759 131.038125 
L 150.760241 131.038125 
L 150.760241 22.318125 
L 149.639759 22.318125 
z
" clip-path="url(#pf06c5acb15)" style="fill: #f47c00; stroke: #f47c00; stroke-linejoin: miter"/>
   </g>
   <g id="patch_128">
    <path d="M 150.760241 131.038125 
L 151.880723 131.038125 
L 151.880723 22.318125 
L 150.760241 22.318125 
z
" clip-path="url(#pf06c5acb15)" style="fill: #f17600; stroke: #f17600; stroke-linejoin: miter"/>
   </g>
   <g id="patch_129">
    <path d="M 151.880723 131.038125 
L 153.001205 131.038125 
L 153.001205 22.318125 
L 151.880723 22.318125 
z
" clip-path="url(#pf06c5acb15)" style="fill: #ee6f00; stroke: #ee6f00; stroke-linejoin: miter"/>
   </g>
   <g id="patch_130">
    <path d="M 153.001205 131.038125 
L 154.121687 131.038125 
L 154.121687 22.318125 
L 153.001205 22.318125 
z
" clip-path="url(#pf06c5acb15)" style="fill: #ea6900; stroke: #ea6900; stroke-linejoin: miter"/>
   </g>
   <g id="patch_131">
    <path d="M 154.121687 131.038125 
L 155.242169 131.038125 
L 155.242169 22.318125 
L 154.121687 22.318125 
z
" clip-path="url(#pf06c5acb15)" style="fill: #e66311; stroke: #e66311; stroke-linejoin: miter"/>
   </g>
   <g id="patch_132">
    <path d="M 155.242169 131.038125 
L 156.362651 131.038125 
L 156.362651 22.318125 
L 155.242169 22.318125 
z
" clip-path="url(#pf06c5acb15)" style="fill: #e25d1c; stroke: #e25d1c; stroke-linejoin: miter"/>
   </g>
   <g id="patch_133">
    <path d="M 156.362651 131.038125 
L 157.483133 131.038125 
L 157.483133 22.318125 
L 156.362651 22.318125 
z
" clip-path="url(#pf06c5acb15)" style="fill: #dd5725; stroke: #dd5725; stroke-linejoin: miter"/>
   </g>
   <g id="patch_134">
    <path d="M 157.483133 131.038125 
L 158.603614 131.038125 
L 158.603614 22.318125 
L 157.483133 22.318125 
z
" clip-path="url(#pf06c5acb15)" style="fill: #d9522c; stroke: #d9522c; stroke-linejoin: miter"/>
   </g>
   <g id="patch_135">
    <path d="M 158.603614 131.038125 
L 159.724096 131.038125 
L 159.724096 22.318125 
L 158.603614 22.318125 
z
" clip-path="url(#pf06c5acb15)" style="fill: #d44c32; stroke: #d44c32; stroke-linejoin: miter"/>
   </g>
   <g id="patch_136">
    <path d="M 159.724096 131.038125 
L 160.844578 131.038125 
L 160.844578 22.318125 
L 159.724096 22.318125 
z
" clip-path="url(#pf06c5acb15)" style="fill: #cf4638; stroke: #cf4638; stroke-linejoin: miter"/>
   </g>
   <g id="patch_137">
    <path d="M 160.844578 131.038125 
L 161.96506 131.038125 
L 161.96506 22.318125 
L 160.844578 22.318125 
z
" clip-path="url(#pf06c5acb15)" style="fill: #ca403d; stroke: #ca403d; stroke-linejoin: miter"/>
   </g>
   <g id="patch_138">
    <path d="M 161.96506 131.038125 
L 163.085542 131.038125 
L 163.085542 22.318125 
L 161.96506 22.318125 
z
" clip-path="url(#pf06c5acb15)" style="fill: #c53a42; stroke: #c53a42; stroke-linejoin: miter"/>
   </g>
   <g id="patch_139">
    <path d="M 163.085542 131.038125 
L 164.206024 131.038125 
L 164.206024 22.318125 
L 163.085542 22.318125 
z
" clip-path="url(#pf06c5acb15)" style="fill: #c03447; stroke: #c03447; stroke-linejoin: miter"/>
   </g>
   <g id="patch_140">
    <path d="M 164.206024 131.038125 
L 165.326506 131.038125 
L 165.326506 22.318125 
L 164.206024 22.318125 
z
" clip-path="url(#pf06c5acb15)" style="fill: #bb2e4c; stroke: #bb2e4c; stroke-linejoin: miter"/>
   </g>
   <g id="patch_141">
    <path d="M 165.326506 131.038125 
L 166.446988 131.038125 
L 166.446988 22.318125 
L 165.326506 22.318125 
z
" clip-path="url(#pf06c5acb15)" style="fill: #b52750; stroke: #b52750; stroke-linejoin: miter"/>
   </g>
   <g id="patch_142">
    <path d="M 166.446988 131.038125 
L 167.56747 131.038125 
L 167.56747 22.318125 
L 166.446988 22.318125 
z
" clip-path="url(#pf06c5acb15)" style="fill: #b02155; stroke: #b02155; stroke-linejoin: miter"/>
   </g>
   <g id="patch_143">
    <path d="M 167.56747 131.038125 
L 168.687952 131.038125 
L 168.687952 22.318125 
L 167.56747 22.318125 
z
" clip-path="url(#pf06c5acb15)" style="fill: #aa1959; stroke: #aa1959; stroke-linejoin: miter"/>
   </g>
   <g id="patch_144">
    <path d="M 168.687952 131.038125 
L 169.808434 131.038125 
L 169.808434 22.318125 
L 168.687952 22.318125 
z
" clip-path="url(#pf06c5acb15)" style="fill: #a5115d; stroke: #a5115d; stroke-linejoin: miter"/>
   </g>
   <g id="patch_145">
    <path d="M 169.808434 131.038125 
L 170.928916 131.038125 
L 170.928916 22.318125 
L 169.808434 22.318125 
z
" clip-path="url(#pf06c5acb15)" style="fill: #a00661; stroke: #a00661; stroke-linejoin: miter"/>
   </g>
   <g id="patch_146">
    <path d="M 170.928916 131.038125 
L 172.049398 131.038125 
L 172.049398 22.318125 
L 170.928916 22.318125 
z
" clip-path="url(#pf06c5acb15)" style="fill: #9a0065; stroke: #9a0065; stroke-linejoin: miter"/>
   </g>
   <g id="patch_147">
    <path d="M 172.049398 131.038125 
L 173.16988 131.038125 
L 173.16988 22.318125 
L 172.049398 22.318125 
z
" clip-path="url(#pf06c5acb15)" style="fill: #950069; stroke: #950069; stroke-linejoin: miter"/>
   </g>
   <g id="patch_148">
    <path d="M 173.16988 131.038125 
L 174.290361 131.038125 
L 174.290361 22.318125 
L 173.16988 22.318125 
z
" clip-path="url(#pf06c5acb15)" style="fill: #90006d; stroke: #90006d; stroke-linejoin: miter"/>
   </g>
   <g id="patch_149">
    <path d="M 174.290361 131.038125 
L 175.410843 131.038125 
L 175.410843 22.318125 
L 174.290361 22.318125 
z
" clip-path="url(#pf06c5acb15)" style="fill: #8a0071; stroke: #8a0071; stroke-linejoin: miter"/>
   </g>
   <g id="patch_150">
    <path d="M 175.410843 131.038125 
L 176.531325 131.038125 
L 176.531325 22.318125 
L 175.410843 22.318125 
z
" clip-path="url(#pf06c5acb15)" style="fill: #850075; stroke: #850075; stroke-linejoin: miter"/>
   </g>
   <g id="patch_151">
    <path d="M 176.531325 131.038125 
L 177.651807 131.038125 
L 177.651807 22.318125 
L 176.531325 22.318125 
z
" clip-path="url(#pf06c5acb15)" style="fill: #800079; stroke: #800079; stroke-linejoin: miter"/>
   </g>
   <g id="patch_152">
    <path d="M 177.651807 131.038125 
L 178.772289 131.038125 
L 178.772289 22.318125 
L 177.651807 22.318125 
z
" clip-path="url(#pf06c5acb15)" style="fill: #7b007d; stroke: #7b007d; stroke-linejoin: miter"/>
   </g>
   <g id="patch_153">
    <path d="M 178.772289 131.038125 
L 179.892771 131.038125 
L 179.892771 22.318125 
L 178.772289 22.318125 
z
" clip-path="url(#pf06c5acb15)" style="fill: #760081; stroke: #760081; stroke-linejoin: miter"/>
   </g>
   <g id="patch_154">
    <path d="M 179.892771 131.038125 
L 181.013253 131.038125 
L 181.013253 22.318125 
L 179.892771 22.318125 
z
" clip-path="url(#pf06c5acb15)" style="fill: #710084; stroke: #710084; stroke-linejoin: miter"/>
   </g>
   <g id="patch_155">
    <path d="M 181.013253 131.038125 
L 182.133735 131.038125 
L 182.133735 22.318125 
L 181.013253 22.318125 
z
" clip-path="url(#pf06c5acb15)" style="fill: #6c0088; stroke: #6c0088; stroke-linejoin: miter"/>
   </g>
   <g id="patch_156">
    <path d="M 182.133735 131.038125 
L 183.254217 131.038125 
L 183.254217 22.318125 
L 182.133735 22.318125 
z
" clip-path="url(#pf06c5acb15)" style="fill: #67008c; stroke: #67008c; stroke-linejoin: miter"/>
   </g>
   <g id="patch_157">
    <path d="M 183.254217 131.038125 
L 184.374699 131.038125 
L 184.374699 22.318125 
L 183.254217 22.318125 
z
" clip-path="url(#pf06c5acb15)" style="fill: #620090; stroke: #620090; stroke-linejoin: miter"/>
   </g>
   <g id="patch_158">
    <path d="M 184.374699 131.038125 
L 185.495181 131.038125 
L 185.495181 22.318125 
L 184.374699 22.318125 
z
" clip-path="url(#pf06c5acb15)" style="fill: #5d0094; stroke: #5d0094; stroke-linejoin: miter"/>
   </g>
   <g id="patch_159">
    <path d="M 185.495181 131.038125 
L 186.615663 131.038125 
L 186.615663 22.318125 
L 185.495181 22.318125 
z
" clip-path="url(#pf06c5acb15)" style="fill: #590098; stroke: #590098; stroke-linejoin: miter"/>
   </g>
   <g id="patch_160">
    <path d="M 186.615663 131.038125 
L 187.736145 131.038125 
L 187.736145 22.318125 
L 186.615663 22.318125 
z
" clip-path="url(#pf06c5acb15)" style="fill: #54009b; stroke: #54009b; stroke-linejoin: miter"/>
   </g>
   <g id="patch_161">
    <path d="M 187.736145 131.038125 
L 188.856627 131.038125 
L 188.856627 22.318125 
L 187.736145 22.318125 
z
" clip-path="url(#pf06c5acb15)" style="fill: #50009f; stroke: #50009f; stroke-linejoin: miter"/>
   </g>
   <g id="patch_162">
    <path d="M 188.856627 131.038125 
L 189.977108 131.038125 
L 189.977108 22.318125 
L 188.856627 22.318125 
z
" clip-path="url(#pf06c5acb15)" style="fill: #4b00a3; stroke: #4b00a3; stroke-linejoin: miter"/>
   </g>
   <g id="patch_163">
    <path d="M 189.977108 131.038125 
L 191.09759 131.038125 
L 191.09759 22.318125 
L 189.977108 22.318125 
z
" clip-path="url(#pf06c5acb15)" style="fill: #4700a7; stroke: #4700a7; stroke-linejoin: miter"/>
   </g>
   <g id="patch_164">
    <path d="M 191.09759 131.038125 
L 192.218072 131.038125 
L 192.218072 22.318125 
L 191.09759 22.318125 
z
" clip-path="url(#pf06c5acb15)" style="fill: #4200aa; stroke: #4200aa; stroke-linejoin: miter"/>
   </g>
   <g id="patch_165">
    <path d="M 192.218072 131.038125 
L 193.338554 131.038125 
L 193.338554 22.318125 
L 192.218072 22.318125 
z
" clip-path="url(#pf06c5acb15)" style="fill: #3e00ae; stroke: #3e00ae; stroke-linejoin: miter"/>
   </g>
   <g id="patch_166">
    <path d="M 193.338554 131.038125 
L 194.459036 131.038125 
L 194.459036 22.318125 
L 193.338554 22.318125 
z
" clip-path="url(#pf06c5acb15)" style="fill: #3900b2; stroke: #3900b2; stroke-linejoin: miter"/>
   </g>
   <g id="patch_167">
    <path d="M 194.459036 131.038125 
L 195.579518 131.038125 
L 195.579518 22.318125 
L 194.459036 22.318125 
z
" clip-path="url(#pf06c5acb15)" style="fill: #3508b5; stroke: #3508b5; stroke-linejoin: miter"/>
   </g>
   <g id="patch_168">
    <path d="M 195.579518 131.038125 
L 196.7 131.038125 
L 196.7 22.318125 
L 195.579518 22.318125 
z
" clip-path="url(#pf06c5acb15)" style="fill: #300fb9; stroke: #300fb9; stroke-linejoin: miter"/>
   </g>
   <g id="patch_169">
    <path d="M 196.7 131.038125 
L 197.820482 131.038125 
L 197.820482 22.318125 
L 196.7 22.318125 
z
" clip-path="url(#pf06c5acb15)" style="fill: #2c16bc; stroke: #2c16bc; stroke-linejoin: miter"/>
   </g>
   <g id="patch_170">
    <path d="M 197.820482 131.038125 
L 198.940964 131.038125 
L 198.940964 22.318125 
L 197.820482 22.318125 
z
" clip-path="url(#pf06c5acb15)" style="fill: #261bc0; stroke: #261bc0; stroke-linejoin: miter"/>
   </g>
   <g id="patch_171">
    <path d="M 198.940964 131.038125 
L 200.061446 131.038125 
L 200.061446 22.318125 
L 198.940964 22.318125 
z
" clip-path="url(#pf06c5acb15)" style="fill: #2120c3; stroke: #2120c3; stroke-linejoin: miter"/>
   </g>
   <g id="patch_172">
    <path d="M 200.061446 131.038125 
L 201.181928 131.038125 
L 201.181928 22.318125 
L 200.061446 22.318125 
z
" clip-path="url(#pf06c5acb15)" style="fill: #1b25c6; stroke: #1b25c6; stroke-linejoin: miter"/>
   </g>
   <g id="patch_173">
    <path d="M 201.181928 131.038125 
L 202.30241 131.038125 
L 202.30241 22.318125 
L 201.181928 22.318125 
z
" clip-path="url(#pf06c5acb15)" style="fill: #1329ca; stroke: #1329ca; stroke-linejoin: miter"/>
   </g>
   <g id="patch_174">
    <path d="M 202.30241 131.038125 
L 203.422892 131.038125 
L 203.422892 22.318125 
L 202.30241 22.318125 
z
" clip-path="url(#pf06c5acb15)" style="fill: #092dcd; stroke: #092dcd; stroke-linejoin: miter"/>
   </g>
   <g id="patch_175">
    <path d="M 203.422892 131.038125 
L 204.543373 131.038125 
L 204.543373 22.318125 
L 203.422892 22.318125 
z
" clip-path="url(#pf06c5acb15)" style="fill: #0032d0; stroke: #0032d0; stroke-linejoin: miter"/>
   </g>
   <g id="patch_176">
    <path d="M 204.543373 131.038125 
L 205.663855 131.038125 
L 205.663855 22.318125 
L 204.543373 22.318125 
z
" clip-path="url(#pf06c5acb15)" style="fill: #0036d2; stroke: #0036d2; stroke-linejoin: miter"/>
   </g>
   <g id="patch_177">
    <path d="M 205.663855 131.038125 
L 206.784337 131.038125 
L 206.784337 22.318125 
L 205.663855 22.318125 
z
" clip-path="url(#pf06c5acb15)" style="fill: #003ad5; stroke: #003ad5; stroke-linejoin: miter"/>
   </g>
   <g id="patch_178">
    <path d="M 206.784337 131.038125 
L 207.904819 131.038125 
L 207.904819 22.318125 
L 206.784337 22.318125 
z
" clip-path="url(#pf06c5acb15)" style="fill: #003ed7; stroke: #003ed7; stroke-linejoin: miter"/>
   </g>
   <g id="patch_179">
    <path d="M 207.904819 131.038125 
L 209.025301 131.038125 
L 209.025301 22.318125 
L 207.904819 22.318125 
z
" clip-path="url(#pf06c5acb15)" style="fill: #0042da; stroke: #0042da; stroke-linejoin: miter"/>
   </g>
   <g id="patch_180">
    <path d="M 209.025301 131.038125 
L 210.145783 131.038125 
L 210.145783 22.318125 
L 209.025301 22.318125 
z
" clip-path="url(#pf06c5acb15)" style="fill: #0046dc; stroke: #0046dc; stroke-linejoin: miter"/>
   </g>
   <g id="patch_181">
    <path d="M 210.145783 131.038125 
L 211.266265 131.038125 
L 211.266265 22.318125 
L 210.145783 22.318125 
z
" clip-path="url(#pf06c5acb15)" style="fill: #004add; stroke: #004add; stroke-linejoin: miter"/>
   </g>
   <g id="patch_182">
    <path d="M 211.266265 131.038125 
L 212.386747 131.038125 
L 212.386747 22.318125 
L 211.266265 22.318125 
z
" clip-path="url(#pf06c5acb15)" style="fill: #004edf; stroke: #004edf; stroke-linejoin: miter"/>
   </g>
   <g id="patch_183">
    <path d="M 212.386747 131.038125 
L 213.507229 131.038125 
L 213.507229 22.318125 
L 212.386747 22.318125 
z
" clip-path="url(#pf06c5acb15)" style="fill: #0052e0; stroke: #0052e0; stroke-linejoin: miter"/>
   </g>
   <g id="patch_184">
    <path d="M 213.507229 131.038125 
L 214.627711 131.038125 
L 214.627711 22.318125 
L 213.507229 22.318125 
z
" clip-path="url(#pf06c5acb15)" style="fill: #0056e1; stroke: #0056e1; stroke-linejoin: miter"/>
   </g>
   <g id="patch_185">
    <path d="M 214.627711 131.038125 
L 215.748193 131.038125 
L 215.748193 22.318125 
L 214.627711 22.318125 
z
" clip-path="url(#pf06c5acb15)" style="fill: #005ae2; stroke: #005ae2; stroke-linejoin: miter"/>
   </g>
   <g id="patch_186">
    <path d="M 215.748193 131.038125 
L 216.868675 131.038125 
L 216.868675 22.318125 
L 215.748193 22.318125 
z
" clip-path="url(#pf06c5acb15)" style="fill: #005ee3; stroke: #005ee3; stroke-linejoin: miter"/>
   </g>
   <g id="patch_187">
    <path d="M 216.868675 131.038125 
L 217.989157 131.038125 
L 217.989157 22.318125 
L 216.868675 22.318125 
z
" clip-path="url(#pf06c5acb15)" style="fill: #0062e3; stroke: #0062e3; stroke-linejoin: miter"/>
   </g>
   <g id="patch_188">
    <path d="M 217.989157 131.038125 
L 219.109639 131.038125 
L 219.109639 22.318125 
L 217.989157 22.318125 
z
" clip-path="url(#pf06c5acb15)" style="fill: #0066e3; stroke: #0066e3; stroke-linejoin: miter"/>
   </g>
   <g id="patch_189">
    <path d="M 219.109639 131.038125 
L 220.23012 131.038125 
L 220.23012 22.318125 
L 219.109639 22.318125 
z
" clip-path="url(#pf06c5acb15)" style="fill: #006ae3; stroke: #006ae3; stroke-linejoin: miter"/>
   </g>
   <g id="patch_190">
    <path d="M 220.23012 131.038125 
L 221.350602 131.038125 
L 221.350602 22.318125 
L 220.23012 22.318125 
z
" clip-path="url(#pf06c5acb15)" style="fill: #006fe3; stroke: #006fe3; stroke-linejoin: miter"/>
   </g>
   <g id="patch_191">
    <path d="M 221.350602 131.038125 
L 222.471084 131.038125 
L 222.471084 22.318125 
L 221.350602 22.318125 
z
" clip-path="url(#pf06c5acb15)" style="fill: #0073e2; stroke: #0073e2; stroke-linejoin: miter"/>
   </g>
   <g id="patch_192">
    <path d="M 222.471084 131.038125 
L 223.591566 131.038125 
L 223.591566 22.318125 
L 222.471084 22.318125 
z
" clip-path="url(#pf06c5acb15)" style="fill: #0077e1; stroke: #0077e1; stroke-linejoin: miter"/>
   </g>
   <g id="patch_193">
    <path d="M 223.591566 131.038125 
L 224.712048 131.038125 
L 224.712048 22.318125 
L 223.591566 22.318125 
z
" clip-path="url(#pf06c5acb15)" style="fill: #007be0; stroke: #007be0; stroke-linejoin: miter"/>
   </g>
   <g id="patch_194">
    <path d="M 224.712048 131.038125 
L 225.83253 131.038125 
L 225.83253 22.318125 
L 224.712048 22.318125 
z
" clip-path="url(#pf06c5acb15)" style="fill: #007fde; stroke: #007fde; stroke-linejoin: miter"/>
   </g>
   <g id="patch_195">
    <path d="M 225.83253 131.038125 
L 226.953012 131.038125 
L 226.953012 22.318125 
L 225.83253 22.318125 
z
" clip-path="url(#pf06c5acb15)" style="fill: #0083dc; stroke: #0083dc; stroke-linejoin: miter"/>
   </g>
   <g id="patch_196">
    <path d="M 226.953012 131.038125 
L 228.073494 131.038125 
L 228.073494 22.318125 
L 226.953012 22.318125 
z
" clip-path="url(#pf06c5acb15)" style="fill: #0087da; stroke: #0087da; stroke-linejoin: miter"/>
   </g>
   <g id="patch_197">
    <path d="M 228.073494 131.038125 
L 229.193976 131.038125 
L 229.193976 22.318125 
L 228.073494 22.318125 
z
" clip-path="url(#pf06c5acb15)" style="fill: #008bd8; stroke: #008bd8; stroke-linejoin: miter"/>
   </g>
   <g id="patch_198">
    <path d="M 229.193976 131.038125 
L 230.314458 131.038125 
L 230.314458 22.318125 
L 229.193976 22.318125 
z
" clip-path="url(#pf06c5acb15)" style="fill: #008ed5; stroke: #008ed5; stroke-linejoin: miter"/>
   </g>
   <g id="patch_199">
    <path d="M 230.314458 131.038125 
L 231.43494 131.038125 
L 231.43494 22.318125 
L 230.314458 22.318125 
z
" clip-path="url(#pf06c5acb15)" style="fill: #0092d2; stroke: #0092d2; stroke-linejoin: miter"/>
   </g>
   <g id="patch_200">
    <path d="M 231.43494 131.038125 
L 232.555422 131.038125 
L 232.555422 22.318125 
L 231.43494 22.318125 
z
" clip-path="url(#pf06c5acb15)" style="fill: #0096cf; stroke: #0096cf; stroke-linejoin: miter"/>
   </g>
   <g id="patch_201">
    <path d="M 232.555422 131.038125 
L 233.675904 131.038125 
L 233.675904 22.318125 
L 232.555422 22.318125 
z
" clip-path="url(#pf06c5acb15)" style="fill: #009acc; stroke: #009acc; stroke-linejoin: miter"/>
   </g>
   <g id="patch_202">
    <path d="M 233.675904 131.038125 
L 234.796386 131.038125 
L 234.796386 22.318125 
L 233.675904 22.318125 
z
" clip-path="url(#pf06c5acb15)" style="fill: #009ec8; stroke: #009ec8; stroke-linejoin: miter"/>
   </g>
   <g id="patch_203">
    <path d="M 234.796386 131.038125 
L 235.916867 131.038125 
L 235.916867 22.318125 
L 234.796386 22.318125 
z
" clip-path="url(#pf06c5acb15)" style="fill: #00a1c4; stroke: #00a1c4; stroke-linejoin: miter"/>
   </g>
   <g id="patch_204">
    <path d="M 235.916867 131.038125 
L 237.037349 131.038125 
L 237.037349 22.318125 
L 235.916867 22.318125 
z
" clip-path="url(#pf06c5acb15)" style="fill: #00a5c0; stroke: #00a5c0; stroke-linejoin: miter"/>
   </g>
   <g id="patch_205">
    <path d="M 237.037349 131.038125 
L 238.157831 131.038125 
L 238.157831 22.318125 
L 237.037349 22.318125 
z
" clip-path="url(#pf06c5acb15)" style="fill: #00a8bc; stroke: #00a8bc; stroke-linejoin: miter"/>
   </g>
   <g id="patch_206">
    <path d="M 238.157831 131.038125 
L 239.278313 131.038125 
L 239.278313 22.318125 
L 238.157831 22.318125 
z
" clip-path="url(#pf06c5acb15)" style="fill: #00acb7; stroke: #00acb7; stroke-linejoin: miter"/>
   </g>
   <g id="patch_207">
    <path d="M 239.278313 131.038125 
L 240.398795 131.038125 
L 240.398795 22.318125 
L 239.278313 22.318125 
z
" clip-path="url(#pf06c5acb15)" style="fill: #00afb3; stroke: #00afb3; stroke-linejoin: miter"/>
   </g>
   <g id="patch_208">
    <path d="M 240.398795 131.038125 
L 241.519277 131.038125 
L 241.519277 22.318125 
L 240.398795 22.318125 
z
" clip-path="url(#pf06c5acb15)" style="fill: #00b2ae; stroke: #00b2ae; stroke-linejoin: miter"/>
   </g>
   <g id="patch_209">
    <path d="M 241.519277 131.038125 
L 242.639759 131.038125 
L 242.639759 22.318125 
L 241.519277 22.318125 
z
" clip-path="url(#pf06c5acb15)" style="fill: #00b5a9; stroke: #00b5a9; stroke-linejoin: miter"/>
   </g>
   <g id="patch_210">
    <path d="M 242.639759 131.038125 
L 243.760241 131.038125 
L 243.760241 22.318125 
L 242.639759 22.318125 
z
" clip-path="url(#pf06c5acb15)" style="fill: #00b8a4; stroke: #00b8a4; stroke-linejoin: miter"/>
   </g>
   <g id="patch_211">
    <path d="M 243.760241 131.038125 
L 244.880723 131.038125 
L 244.880723 22.318125 
L 243.760241 22.318125 
z
" clip-path="url(#pf06c5acb15)" style="fill: #00bb9f; stroke: #00bb9f; stroke-linejoin: miter"/>
   </g>
   <g id="patch_212">
    <path d="M 244.880723 131.038125 
L 246.001205 131.038125 
L 246.001205 22.318125 
L 244.880723 22.318125 
z
" clip-path="url(#pf06c5acb15)" style="fill: #00be99; stroke: #00be99; stroke-linejoin: miter"/>
   </g>
   <g id="patch_213">
    <path d="M 246.001205 131.038125 
L 247.121687 131.038125 
L 247.121687 22.318125 
L 246.001205 22.318125 
z
" clip-path="url(#pf06c5acb15)" style="fill: #00c194; stroke: #00c194; stroke-linejoin: miter"/>
   </g>
   <g id="patch_214">
    <path d="M 247.121687 131.038125 
L 248.242169 131.038125 
L 248.242169 22.318125 
L 247.121687 22.318125 
z
" clip-path="url(#pf06c5acb15)" style="fill: #00c38e; stroke: #00c38e; stroke-linejoin: miter"/>
   </g>
   <g id="patch_215">
    <path d="M 248.242169 131.038125 
L 249.362651 131.038125 
L 249.362651 22.318125 
L 248.242169 22.318125 
z
" clip-path="url(#pf06c5acb15)" style="fill: #00c689; stroke: #00c689; stroke-linejoin: miter"/>
   </g>
   <g id="patch_216">
    <path d="M 249.362651 131.038125 
L 250.483133 131.038125 
L 250.483133 22.318125 
L 249.362651 22.318125 
z
" clip-path="url(#pf06c5acb15)" style="fill: #00c883; stroke: #00c883; stroke-linejoin: miter"/>
   </g>
   <g id="patch_217">
    <path d="M 250.483133 131.038125 
L 251.603614 131.038125 
L 251.603614 22.318125 
L 250.483133 22.318125 
z
" clip-path="url(#pf06c5acb15)" style="fill: #00cb7d; stroke: #00cb7d; stroke-linejoin: miter"/>
   </g>
   <g id="patch_218">
    <path d="M 251.603614 131.038125 
L 252.724096 131.038125 
L 252.724096 22.318125 
L 251.603614 22.318125 
z
" clip-path="url(#pf06c5acb15)" style="fill: #00cd77; stroke: #00cd77; stroke-linejoin: miter"/>
   </g>
   <g id="patch_219">
    <path d="M 252.724096 131.038125 
L 253.844578 131.038125 
L 253.844578 22.318125 
L 252.724096 22.318125 
z
" clip-path="url(#pf06c5acb15)" style="fill: #00cf71; stroke: #00cf71; stroke-linejoin: miter"/>
   </g>
   <g id="patch_220">
    <path d="M 253.844578 131.038125 
L 254.96506 131.038125 
L 254.96506 22.318125 
L 253.844578 22.318125 
z
" clip-path="url(#pf06c5acb15)" style="fill: #00d16a; stroke: #00d16a; stroke-linejoin: miter"/>
   </g>
   <g id="patch_221">
    <path d="M 254.96506 131.038125 
L 256.085542 131.038125 
L 256.085542 22.318125 
L 254.96506 22.318125 
z
" clip-path="url(#pf06c5acb15)" style="fill: #00d364; stroke: #00d364; stroke-linejoin: miter"/>
   </g>
   <g id="patch_222">
    <path d="M 256.085542 131.038125 
L 257.206024 131.038125 
L 257.206024 22.318125 
L 256.085542 22.318125 
z
" clip-path="url(#pf06c5acb15)" style="fill: #00d45e; stroke: #00d45e; stroke-linejoin: miter"/>
   </g>
   <g id="patch_223">
    <path d="M 257.206024 131.038125 
L 258.326506 131.038125 
L 258.326506 22.318125 
L 257.206024 22.318125 
z
" clip-path="url(#pf06c5acb15)" style="fill: #00d657; stroke: #00d657; stroke-linejoin: miter"/>
   </g>
   <g id="patch_224">
    <path d="M 258.326506 131.038125 
L 259.446988 131.038125 
L 259.446988 22.318125 
L 258.326506 22.318125 
z
" clip-path="url(#pf06c5acb15)" style="fill: #00d750; stroke: #00d750; stroke-linejoin: miter"/>
   </g>
   <g id="patch_225">
    <path d="M 259.446988 131.038125 
L 260.56747 131.038125 
L 260.56747 22.318125 
L 259.446988 22.318125 
z
" clip-path="url(#pf06c5acb15)" style="fill: #00d849; stroke: #00d849; stroke-linejoin: miter"/>
   </g>
   <g id="patch_226">
    <path d="M 260.56747 131.038125 
L 261.687952 131.038125 
L 261.687952 22.318125 
L 260.56747 22.318125 
z
" clip-path="url(#pf06c5acb15)" style="fill: #00d942; stroke: #00d942; stroke-linejoin: miter"/>
   </g>
   <g id="patch_227">
    <path d="M 261.687952 131.038125 
L 262.808434 131.038125 
L 262.808434 22.318125 
L 261.687952 22.318125 
z
" clip-path="url(#pf06c5acb15)" style="fill: #1ada3a; stroke: #1ada3a; stroke-linejoin: miter"/>
   </g>
   <g id="patch_228">
    <path d="M 262.808434 131.038125 
L 263.928916 131.038125 
L 263.928916 22.318125 
L 262.808434 22.318125 
z
" clip-path="url(#pf06c5acb15)" style="fill: #31db32; stroke: #31db32; stroke-linejoin: miter"/>
   </g>
   <g id="patch_229">
    <path d="M 263.928916 131.038125 
L 265.049398 131.038125 
L 265.049398 22.318125 
L 263.928916 22.318125 
z
" clip-path="url(#pf06c5acb15)" style="fill: #40db29; stroke: #40db29; stroke-linejoin: miter"/>
   </g>
   <g id="patch_230">
    <path d="M 265.049398 131.038125 
L 266.16988 131.038125 
L 266.16988 22.318125 
L 265.049398 22.318125 
z
" clip-path="url(#pf06c5acb15)" style="fill: #4ddc1f; stroke: #4ddc1f; stroke-linejoin: miter"/>
   </g>
   <g id="patch_231">
    <path d="M 266.16988 131.038125 
L 267.290361 131.038125 
L 267.290361 22.318125 
L 266.16988 22.318125 
z
" clip-path="url(#pf06c5acb15)" style="fill: #58dc12; stroke: #58dc12; stroke-linejoin: miter"/>
   </g>
   <g id="patch_232">
    <path d="M 267.290361 131.038125 
L 268.410843 131.038125 
L 268.410843 22.318125 
L 267.290361 22.318125 
z
" clip-path="url(#pf06c5acb15)" style="fill: #63dc00; stroke: #63dc00; stroke-linejoin: miter"/>
   </g>
   <g id="patch_233">
    <path d="M 268.410843 131.038125 
L 269.531325 131.038125 
L 269.531325 22.318125 
L 268.410843 22.318125 
z
" clip-path="url(#pf06c5acb15)" style="fill: #6cdc00; stroke: #6cdc00; stroke-linejoin: miter"/>
   </g>
   <g id="patch_234">
    <path d="M 269.531325 131.038125 
L 270.651807 131.038125 
L 270.651807 22.318125 
L 269.531325 22.318125 
z
" clip-path="url(#pf06c5acb15)" style="fill: #75db00; stroke: #75db00; stroke-linejoin: miter"/>
   </g>
   <g id="patch_235">
    <path d="M 270.651807 131.038125 
L 271.772289 131.038125 
L 271.772289 22.318125 
L 270.651807 22.318125 
z
" clip-path="url(#pf06c5acb15)" style="fill: #7ddb00; stroke: #7ddb00; stroke-linejoin: miter"/>
   </g>
   <g id="patch_236">
    <path d="M 271.772289 131.038125 
L 272.892771 131.038125 
L 272.892771 22.318125 
L 271.772289 22.318125 
z
" clip-path="url(#pf06c5acb15)" style="fill: #85da00; stroke: #85da00; stroke-linejoin: miter"/>
   </g>
   <g id="patch_237">
    <path d="M 272.892771 131.038125 
L 274.013253 131.038125 
L 274.013253 22.318125 
L 272.892771 22.318125 
z
" clip-path="url(#pf06c5acb15)" style="fill: #8dd900; stroke: #8dd900; stroke-linejoin: miter"/>
   </g>
   <g id="patch_238">
    <path d="M 274.013253 131.038125 
L 275.133735 131.038125 
L 275.133735 22.318125 
L 274.013253 22.318125 
z
" clip-path="url(#pf06c5acb15)" style="fill: #94d800; stroke: #94d800; stroke-linejoin: miter"/>
   </g>
   <g id="patch_239">
    <path d="M 275.133735 131.038125 
L 276.254217 131.038125 
L 276.254217 22.318125 
L 275.133735 22.318125 
z
" clip-path="url(#pf06c5acb15)" style="fill: #9bd700; stroke: #9bd700; stroke-linejoin: miter"/>
   </g>
   <g id="patch_240">
    <path d="M 276.254217 131.038125 
L 277.374699 131.038125 
L 277.374699 22.318125 
L 276.254217 22.318125 
z
" clip-path="url(#pf06c5acb15)" style="fill: #a1d500; stroke: #a1d500; stroke-linejoin: miter"/>
   </g>
   <g id="patch_241">
    <path d="M 277.374699 131.038125 
L 278.495181 131.038125 
L 278.495181 22.318125 
L 277.374699 22.318125 
z
" clip-path="url(#pf06c5acb15)" style="fill: #a8d300; stroke: #a8d300; stroke-linejoin: miter"/>
   </g>
   <g id="patch_242">
    <path d="M 278.495181 131.038125 
L 279.615663 131.038125 
L 279.615663 22.318125 
L 278.495181 22.318125 
z
" clip-path="url(#pf06c5acb15)" style="fill: #aed200; stroke: #aed200; stroke-linejoin: miter"/>
   </g>
   <g id="patch_243">
    <path d="M 279.615663 131.038125 
L 280.736145 131.038125 
L 280.736145 22.318125 
L 279.615663 22.318125 
z
" clip-path="url(#pf06c5acb15)" style="fill: #b4d000; stroke: #b4d000; stroke-linejoin: miter"/>
   </g>
   <g id="patch_244">
    <path d="M 280.736145 131.038125 
L 281.856627 131.038125 
L 281.856627 22.318125 
L 280.736145 22.318125 
z
" clip-path="url(#pf06c5acb15)" style="fill: #b9cd00; stroke: #b9cd00; stroke-linejoin: miter"/>
   </g>
   <g id="patch_245">
    <path d="M 281.856627 131.038125 
L 282.977108 131.038125 
L 282.977108 22.318125 
L 281.856627 22.318125 
z
" clip-path="url(#pf06c5acb15)" style="fill: #bfcb00; stroke: #bfcb00; stroke-linejoin: miter"/>
   </g>
   <g id="patch_246">
    <path d="M 282.977108 131.038125 
L 284.09759 131.038125 
L 284.09759 22.318125 
L 282.977108 22.318125 
z
" clip-path="url(#pf06c5acb15)" style="fill: #c4c800; stroke: #c4c800; stroke-linejoin: miter"/>
   </g>
   <g id="patch_247">
    <path d="M 284.09759 131.038125 
L 285.218072 131.038125 
L 285.218072 22.318125 
L 284.09759 22.318125 
z
" clip-path="url(#pf06c5acb15)" style="fill: #c9c600; stroke: #c9c600; stroke-linejoin: miter"/>
   </g>
   <g id="patch_248">
    <path d="M 285.218072 131.038125 
L 286.338554 131.038125 
L 286.338554 22.318125 
L 285.218072 22.318125 
z
" clip-path="url(#pf06c5acb15)" style="fill: #cec310; stroke: #cec310; stroke-linejoin: miter"/>
   </g>
   <g id="patch_249">
    <path d="M 286.338554 131.038125 
L 287.459036 131.038125 
L 287.459036 22.318125 
L 286.338554 22.318125 
z
" clip-path="url(#pf06c5acb15)" style="fill: #d2c01c; stroke: #d2c01c; stroke-linejoin: miter"/>
   </g>
   <g id="patch_250">
    <path d="M 287.459036 131.038125 
L 288.579518 131.038125 
L 288.579518 22.318125 
L 287.459036 22.318125 
z
" clip-path="url(#pf06c5acb15)" style="fill: #d6bd25; stroke: #d6bd25; stroke-linejoin: miter"/>
   </g>
   <g id="patch_251">
    <path d="M 288.579518 131.038125 
L 289.7 131.038125 
L 289.7 22.318125 
L 288.579518 22.318125 
z
" clip-path="url(#pf06c5acb15)" style="fill: #dbb92d; stroke: #dbb92d; stroke-linejoin: miter"/>
   </g>
   <g id="patch_252">
    <path d="M 289.7 131.038125 
L 290.820482 131.038125 
L 290.820482 22.318125 
L 289.7 22.318125 
z
" clip-path="url(#pf06c5acb15)" style="fill: #deb634; stroke: #deb634; stroke-linejoin: miter"/>
   </g>
   <g id="matplotlib.axis_1">
    <g id="xtick_1">
     <g id="line2d_1">
      <defs>
       <path id="m060de0ef26" d="M 0 0 
L 0 3.5 
" style="stroke: #000000; stroke-width: 0.8"/>
      </defs>
      <g>
       <use xlink:href="#m060de0ef26" x="10.7" y="131.038125" style="stroke: #000000; stroke-width: 0.8"/>
      </g>
     </g>
     <g id="text_1">
      <!-- 0 -->
      <g transform="translate(7.51875 145.636562)scale(0.1 -0.1)">
       <defs>
        <path id="DejaVuSans-30" d="M 2034 4250 
Q 1547 4250 1301 3770 
Q 1056 3291 1056 2328 
Q 1056 1369 1301 889 
Q 1547 409 2034 409 
Q 2525 409 2770 889 
Q 3016 1369 3016 2328 
Q 3016 3291 2770 3770 
Q 2525 4250 2034 4250 
z
M 2034 4750 
Q 2819 4750 3233 4129 
Q 3647 3509 3647 2328 
Q 3647 1150 3233 529 
Q 2819 -91 2034 -91 
Q 1250 -91 836 529 
Q 422 1150 422 2328 
Q 422 3509 836 4129 
Q 1250 4750 2034 4750 
z
" transform="scale(0.015625)"/>
       </defs>
       <use xlink:href="#DejaVuSans-30"/>
      </g>
     </g>
    </g>
    <g id="xtick_2">
     <g id="line2d_2">
      <g>
       <use xlink:href="#m060de0ef26" x="66.724096" y="131.038125" style="stroke: #000000; stroke-width: 0.8"/>
      </g>
     </g>
     <g id="text_2">
      <!-- 100 -->
      <g transform="translate(57.180346 145.636562)scale(0.1 -0.1)">
       <defs>
        <path id="DejaVuSans-31" d="M 794 531 
L 1825 531 
L 1825 4091 
L 703 3866 
L 703 4441 
L 1819 4666 
L 2450 4666 
L 2450 531 
L 3481 531 
L 3481 0 
L 794 0 
L 794 531 
z
" transform="scale(0.015625)"/>
       </defs>
       <use xlink:href="#DejaVuSans-31"/>
       <use xlink:href="#DejaVuSans-30" x="63.623047"/>
       <use xlink:href="#DejaVuSans-30" x="127.246094"/>
      </g>
     </g>
    </g>
    <g id="xtick_3">
     <g id="line2d_3">
      <g>
       <use xlink:href="#m060de0ef26" x="122.748193" y="131.038125" style="stroke: #000000; stroke-width: 0.8"/>
      </g>
     </g>
     <g id="text_3">
      <!-- 200 -->
      <g transform="translate(113.204443 145.636562)scale(0.1 -0.1)">
       <defs>
        <path id="DejaVuSans-32" d="M 1228 531 
L 3431 531 
L 3431 0 
L 469 0 
L 469 531 
Q 828 903 1448 1529 
Q 2069 2156 2228 2338 
Q 2531 2678 2651 2914 
Q 2772 3150 2772 3378 
Q 2772 3750 2511 3984 
Q 2250 4219 1831 4219 
Q 1534 4219 1204 4116 
Q 875 4013 500 3803 
L 500 4441 
Q 881 4594 1212 4672 
Q 1544 4750 1819 4750 
Q 2544 4750 2975 4387 
Q 3406 4025 3406 3419 
Q 3406 3131 3298 2873 
Q 3191 2616 2906 2266 
Q 2828 2175 2409 1742 
Q 1991 1309 1228 531 
z
" transform="scale(0.015625)"/>
       </defs>
       <use xlink:href="#DejaVuSans-32"/>
       <use xlink:href="#DejaVuSans-30" x="63.623047"/>
       <use xlink:href="#DejaVuSans-30" x="127.246094"/>
      </g>
     </g>
    </g>
    <g id="xtick_4">
     <g id="line2d_4">
      <g>
       <use xlink:href="#m060de0ef26" x="178.772289" y="131.038125" style="stroke: #000000; stroke-width: 0.8"/>
      </g>
     </g>
     <g id="text_4">
      <!-- 300 -->
      <g transform="translate(169.228539 145.636562)scale(0.1 -0.1)">
       <defs>
        <path id="DejaVuSans-33" d="M 2597 2516 
Q 3050 2419 3304 2112 
Q 3559 1806 3559 1356 
Q 3559 666 3084 287 
Q 2609 -91 1734 -91 
Q 1441 -91 1130 -33 
Q 819 25 488 141 
L 488 750 
Q 750 597 1062 519 
Q 1375 441 1716 441 
Q 2309 441 2620 675 
Q 2931 909 2931 1356 
Q 2931 1769 2642 2001 
Q 2353 2234 1838 2234 
L 1294 2234 
L 1294 2753 
L 1863 2753 
Q 2328 2753 2575 2939 
Q 2822 3125 2822 3475 
Q 2822 3834 2567 4026 
Q 2313 4219 1838 4219 
Q 1578 4219 1281 4162 
Q 984 4106 628 3988 
L 628 4550 
Q 988 4650 1302 4700 
Q 1616 4750 1894 4750 
Q 2613 4750 3031 4423 
Q 3450 4097 3450 3541 
Q 3450 3153 3228 2886 
Q 3006 2619 2597 2516 
z
" transform="scale(0.015625)"/>
       </defs>
       <use xlink:href="#DejaVuSans-33"/>
       <use xlink:href="#DejaVuSans-30" x="63.623047"/>
       <use xlink:href="#DejaVuSans-30" x="127.246094"/>
      </g>
     </g>
    </g>
    <g id="xtick_5">
     <g id="line2d_5">
      <g>
       <use xlink:href="#m060de0ef26" x="234.796386" y="131.038125" style="stroke: #000000; stroke-width: 0.8"/>
      </g>
     </g>
     <g id="text_5">
      <!-- 400 -->
      <g transform="translate(225.252636 145.636562)scale(0.1 -0.1)">
       <defs>
        <path id="DejaVuSans-34" d="M 2419 4116 
L 825 1625 
L 2419 1625 
L 2419 4116 
z
M 2253 4666 
L 3047 4666 
L 3047 1625 
L 3713 1625 
L 3713 1100 
L 3047 1100 
L 3047 0 
L 2419 0 
L 2419 1100 
L 313 1100 
L 313 1709 
L 2253 4666 
z
" transform="scale(0.015625)"/>
       </defs>
       <use xlink:href="#DejaVuSans-34"/>
       <use xlink:href="#DejaVuSans-30" x="63.623047"/>
       <use xlink:href="#DejaVuSans-30" x="127.246094"/>
      </g>
     </g>
    </g>
    <g id="text_6">
     <!-- airgap thickness (nm) -->
     <g transform="translate(95.630469 159.314687)scale(0.1 -0.1)">
      <defs>
       <path id="DejaVuSans-61" d="M 2194 1759 
Q 1497 1759 1228 1600 
Q 959 1441 959 1056 
Q 959 750 1161 570 
Q 1363 391 1709 391 
Q 2188 391 2477 730 
Q 2766 1069 2766 1631 
L 2766 1759 
L 2194 1759 
z
M 3341 1997 
L 3341 0 
L 2766 0 
L 2766 531 
Q 2569 213 2275 61 
Q 1981 -91 1556 -91 
Q 1019 -91 701 211 
Q 384 513 384 1019 
Q 384 1609 779 1909 
Q 1175 2209 1959 2209 
L 2766 2209 
L 2766 2266 
Q 2766 2663 2505 2880 
Q 2244 3097 1772 3097 
Q 1472 3097 1187 3025 
Q 903 2953 641 2809 
L 641 3341 
Q 956 3463 1253 3523 
Q 1550 3584 1831 3584 
Q 2591 3584 2966 3190 
Q 3341 2797 3341 1997 
z
" transform="scale(0.015625)"/>
       <path id="DejaVuSans-69" d="M 603 3500 
L 1178 3500 
L 1178 0 
L 603 0 
L 603 3500 
z
M 603 4863 
L 1178 4863 
L 1178 4134 
L 603 4134 
L 603 4863 
z
" transform="scale(0.015625)"/>
       <path id="DejaVuSans-72" d="M 2631 2963 
Q 2534 3019 2420 3045 
Q 2306 3072 2169 3072 
Q 1681 3072 1420 2755 
Q 1159 2438 1159 1844 
L 1159 0 
L 581 0 
L 581 3500 
L 1159 3500 
L 1159 2956 
Q 1341 3275 1631 3429 
Q 1922 3584 2338 3584 
Q 2397 3584 2469 3576 
Q 2541 3569 2628 3553 
L 2631 2963 
z
" transform="scale(0.015625)"/>
       <path id="DejaVuSans-67" d="M 2906 1791 
Q 2906 2416 2648 2759 
Q 2391 3103 1925 3103 
Q 1463 3103 1205 2759 
Q 947 2416 947 1791 
Q 947 1169 1205 825 
Q 1463 481 1925 481 
Q 2391 481 2648 825 
Q 2906 1169 2906 1791 
z
M 3481 434 
Q 3481 -459 3084 -895 
Q 2688 -1331 1869 -1331 
Q 1566 -1331 1297 -1286 
Q 1028 -1241 775 -1147 
L 775 -588 
Q 1028 -725 1275 -790 
Q 1522 -856 1778 -856 
Q 2344 -856 2625 -561 
Q 2906 -266 2906 331 
L 2906 616 
Q 2728 306 2450 153 
Q 2172 0 1784 0 
Q 1141 0 747 490 
Q 353 981 353 1791 
Q 353 2603 747 3093 
Q 1141 3584 1784 3584 
Q 2172 3584 2450 3431 
Q 2728 3278 2906 2969 
L 2906 3500 
L 3481 3500 
L 3481 434 
z
" transform="scale(0.015625)"/>
       <path id="DejaVuSans-70" d="M 1159 525 
L 1159 -1331 
L 581 -1331 
L 581 3500 
L 1159 3500 
L 1159 2969 
Q 1341 3281 1617 3432 
Q 1894 3584 2278 3584 
Q 2916 3584 3314 3078 
Q 3713 2572 3713 1747 
Q 3713 922 3314 415 
Q 2916 -91 2278 -91 
Q 1894 -91 1617 61 
Q 1341 213 1159 525 
z
M 3116 1747 
Q 3116 2381 2855 2742 
Q 2594 3103 2138 3103 
Q 1681 3103 1420 2742 
Q 1159 2381 1159 1747 
Q 1159 1113 1420 752 
Q 1681 391 2138 391 
Q 2594 391 2855 752 
Q 3116 1113 3116 1747 
z
" transform="scale(0.015625)"/>
       <path id="DejaVuSans-20" transform="scale(0.015625)"/>
       <path id="DejaVuSans-74" d="M 1172 4494 
L 1172 3500 
L 2356 3500 
L 2356 3053 
L 1172 3053 
L 1172 1153 
Q 1172 725 1289 603 
Q 1406 481 1766 481 
L 2356 481 
L 2356 0 
L 1766 0 
Q 1100 0 847 248 
Q 594 497 594 1153 
L 594 3053 
L 172 3053 
L 172 3500 
L 594 3500 
L 594 4494 
L 1172 4494 
z
" transform="scale(0.015625)"/>
       <path id="DejaVuSans-68" d="M 3513 2113 
L 3513 0 
L 2938 0 
L 2938 2094 
Q 2938 2591 2744 2837 
Q 2550 3084 2163 3084 
Q 1697 3084 1428 2787 
Q 1159 2491 1159 1978 
L 1159 0 
L 581 0 
L 581 4863 
L 1159 4863 
L 1159 2956 
Q 1366 3272 1645 3428 
Q 1925 3584 2291 3584 
Q 2894 3584 3203 3211 
Q 3513 2838 3513 2113 
z
" transform="scale(0.015625)"/>
       <path id="DejaVuSans-63" d="M 3122 3366 
L 3122 2828 
Q 2878 2963 2633 3030 
Q 2388 3097 2138 3097 
Q 1578 3097 1268 2742 
Q 959 2388 959 1747 
Q 959 1106 1268 751 
Q 1578 397 2138 397 
Q 2388 397 2633 464 
Q 2878 531 3122 666 
L 3122 134 
Q 2881 22 2623 -34 
Q 2366 -91 2075 -91 
Q 1284 -91 818 406 
Q 353 903 353 1747 
Q 353 2603 823 3093 
Q 1294 3584 2113 3584 
Q 2378 3584 2631 3529 
Q 2884 3475 3122 3366 
z
" transform="scale(0.015625)"/>
       <path id="DejaVuSans-6b" d="M 581 4863 
L 1159 4863 
L 1159 1991 
L 2875 3500 
L 3609 3500 
L 1753 1863 
L 3688 0 
L 2938 0 
L 1159 1709 
L 1159 0 
L 581 0 
L 581 4863 
z
" transform="scale(0.015625)"/>
       <path id="DejaVuSans-6e" d="M 3513 2113 
L 3513 0 
L 2938 0 
L 2938 2094 
Q 2938 2591 2744 2837 
Q 2550 3084 2163 3084 
Q 1697 3084 1428 2787 
Q 1159 2491 1159 1978 
L 1159 0 
L 581 0 
L 581 3500 
L 1159 3500 
L 1159 2956 
Q 1366 3272 1645 3428 
Q 1925 3584 2291 3584 
Q 2894 3584 3203 3211 
Q 3513 2838 3513 2113 
z
" transform="scale(0.015625)"/>
       <path id="DejaVuSans-65" d="M 3597 1894 
L 3597 1613 
L 953 1613 
Q 991 1019 1311 708 
Q 1631 397 2203 397 
Q 2534 397 2845 478 
Q 3156 559 3463 722 
L 3463 178 
Q 3153 47 2828 -22 
Q 2503 -91 2169 -91 
Q 1331 -91 842 396 
Q 353 884 353 1716 
Q 353 2575 817 3079 
Q 1281 3584 2069 3584 
Q 2775 3584 3186 3129 
Q 3597 2675 3597 1894 
z
M 3022 2063 
Q 3016 2534 2758 2815 
Q 2500 3097 2075 3097 
Q 1594 3097 1305 2825 
Q 1016 2553 972 2059 
L 3022 2063 
z
" transform="scale(0.015625)"/>
       <path id="DejaVuSans-73" d="M 2834 3397 
L 2834 2853 
Q 2591 2978 2328 3040 
Q 2066 3103 1784 3103 
Q 1356 3103 1142 2972 
Q 928 2841 928 2578 
Q 928 2378 1081 2264 
Q 1234 2150 1697 2047 
L 1894 2003 
Q 2506 1872 2764 1633 
Q 3022 1394 3022 966 
Q 3022 478 2636 193 
Q 2250 -91 1575 -91 
Q 1294 -91 989 -36 
Q 684 19 347 128 
L 347 722 
Q 666 556 975 473 
Q 1284 391 1588 391 
Q 1994 391 2212 530 
Q 2431 669 2431 922 
Q 2431 1156 2273 1281 
Q 2116 1406 1581 1522 
L 1381 1569 
Q 847 1681 609 1914 
Q 372 2147 372 2553 
Q 372 3047 722 3315 
Q 1072 3584 1716 3584 
Q 2034 3584 2315 3537 
Q 2597 3491 2834 3397 
z
" transform="scale(0.015625)"/>
       <path id="DejaVuSans-28" d="M 1984 4856 
Q 1566 4138 1362 3434 
Q 1159 2731 1159 2009 
Q 1159 1288 1364 580 
Q 1569 -128 1984 -844 
L 1484 -844 
Q 1016 -109 783 600 
Q 550 1309 550 2009 
Q 550 2706 781 3412 
Q 1013 4119 1484 4856 
L 1984 4856 
z
" transform="scale(0.015625)"/>
       <path id="DejaVuSans-6d" d="M 3328 2828 
Q 3544 3216 3844 3400 
Q 4144 3584 4550 3584 
Q 5097 3584 5394 3201 
Q 5691 2819 5691 2113 
L 5691 0 
L 5113 0 
L 5113 2094 
Q 5113 2597 4934 2840 
Q 4756 3084 4391 3084 
Q 3944 3084 3684 2787 
Q 3425 2491 3425 1978 
L 3425 0 
L 2847 0 
L 2847 2094 
Q 2847 2600 2669 2842 
Q 2491 3084 2119 3084 
Q 1678 3084 1418 2786 
Q 1159 2488 1159 1978 
L 1159 0 
L 581 0 
L 581 3500 
L 1159 3500 
L 1159 2956 
Q 1356 3278 1631 3431 
Q 1906 3584 2284 3584 
Q 2666 3584 2933 3390 
Q 3200 3197 3328 2828 
z
" transform="scale(0.015625)"/>
       <path id="DejaVuSans-29" d="M 513 4856 
L 1013 4856 
Q 1481 4119 1714 3412 
Q 1947 2706 1947 2009 
Q 1947 1309 1714 600 
Q 1481 -109 1013 -844 
L 513 -844 
Q 928 -128 1133 580 
Q 1338 1288 1338 2009 
Q 1338 2731 1133 3434 
Q 928 4138 513 4856 
z
" transform="scale(0.015625)"/>
      </defs>
      <use xlink:href="#DejaVuSans-61"/>
      <use xlink:href="#DejaVuSans-69" x="61.279297"/>
      <use xlink:href="#DejaVuSans-72" x="89.0625"/>
      <use xlink:href="#DejaVuSans-67" x="128.425781"/>
      <use xlink:href="#DejaVuSans-61" x="191.902344"/>
      <use xlink:href="#DejaVuSans-70" x="253.181641"/>
      <use xlink:href="#DejaVuSans-20" x="316.658203"/>
      <use xlink:href="#DejaVuSans-74" x="348.445312"/>
      <use xlink:href="#DejaVuSans-68" x="387.654297"/>
      <use xlink:href="#DejaVuSans-69" x="451.033203"/>
      <use xlink:href="#DejaVuSans-63" x="478.816406"/>
      <use xlink:href="#DejaVuSans-6b" x="533.796875"/>
      <use xlink:href="#DejaVuSans-6e" x="591.707031"/>
      <use xlink:href="#DejaVuSans-65" x="655.085938"/>
      <use xlink:href="#DejaVuSans-73" x="716.609375"/>
      <use xlink:href="#DejaVuSans-73" x="768.708984"/>
      <use xlink:href="#DejaVuSans-20" x="820.808594"/>
      <use xlink:href="#DejaVuSans-28" x="852.595703"/>
      <use xlink:href="#DejaVuSans-6e" x="891.609375"/>
      <use xlink:href="#DejaVuSans-6d" x="954.988281"/>
      <use xlink:href="#DejaVuSans-29" x="1052.400391"/>
     </g>
    </g>
   </g>
   <g id="matplotlib.axis_2"/>
   <g id="patch_253">
    <path d="M 10.7 131.038125 
L 10.7 22.318125 
" style="fill: none; stroke: #000000; stroke-width: 0.8; stroke-linejoin: miter; stroke-linecap: square"/>
   </g>
   <g id="patch_254">
    <path d="M 289.7 131.038125 
L 289.7 22.318125 
" style="fill: none; stroke: #000000; stroke-width: 0.8; stroke-linejoin: miter; stroke-linecap: square"/>
   </g>
   <g id="patch_255">
    <path d="M 10.7 131.038125 
L 289.7 131.038125 
" style="fill: none; stroke: #000000; stroke-width: 0.8; stroke-linejoin: miter; stroke-linecap: square"/>
   </g>
   <g id="patch_256">
    <path d="M 10.7 22.318125 
L 289.7 22.318125 
" style="fill: none; stroke: #000000; stroke-width: 0.8; stroke-linejoin: miter; stroke-linecap: square"/>
   </g>
   <g id="text_7">
    <!-- Color of interferometric display element -->
    <g transform="translate(29.968437 16.318125)scale(0.12 -0.12)">
     <defs>
      <path id="DejaVuSans-43" d="M 4122 4306 
L 4122 3641 
Q 3803 3938 3442 4084 
Q 3081 4231 2675 4231 
Q 1875 4231 1450 3742 
Q 1025 3253 1025 2328 
Q 1025 1406 1450 917 
Q 1875 428 2675 428 
Q 3081 428 3442 575 
Q 3803 722 4122 1019 
L 4122 359 
Q 3791 134 3420 21 
Q 3050 -91 2638 -91 
Q 1578 -91 968 557 
Q 359 1206 359 2328 
Q 359 3453 968 4101 
Q 1578 4750 2638 4750 
Q 3056 4750 3426 4639 
Q 3797 4528 4122 4306 
z
" transform="scale(0.015625)"/>
      <path id="DejaVuSans-6f" d="M 1959 3097 
Q 1497 3097 1228 2736 
Q 959 2375 959 1747 
Q 959 1119 1226 758 
Q 1494 397 1959 397 
Q 2419 397 2687 759 
Q 2956 1122 2956 1747 
Q 2956 2369 2687 2733 
Q 2419 3097 1959 3097 
z
M 1959 3584 
Q 2709 3584 3137 3096 
Q 3566 2609 3566 1747 
Q 3566 888 3137 398 
Q 2709 -91 1959 -91 
Q 1206 -91 779 398 
Q 353 888 353 1747 
Q 353 2609 779 3096 
Q 1206 3584 1959 3584 
z
" transform="scale(0.015625)"/>
      <path id="DejaVuSans-6c" d="M 603 4863 
L 1178 4863 
L 1178 0 
L 603 0 
L 603 4863 
z
" transform="scale(0.015625)"/>
      <path id="DejaVuSans-66" d="M 2375 4863 
L 2375 4384 
L 1825 4384 
Q 1516 4384 1395 4259 
Q 1275 4134 1275 3809 
L 1275 3500 
L 2222 3500 
L 2222 3053 
L 1275 3053 
L 1275 0 
L 697 0 
L 697 3053 
L 147 3053 
L 147 3500 
L 697 3500 
L 697 3744 
Q 697 4328 969 4595 
Q 1241 4863 1831 4863 
L 2375 4863 
z
" transform="scale(0.015625)"/>
      <path id="DejaVuSans-64" d="M 2906 2969 
L 2906 4863 
L 3481 4863 
L 3481 0 
L 2906 0 
L 2906 525 
Q 2725 213 2448 61 
Q 2172 -91 1784 -91 
Q 1150 -91 751 415 
Q 353 922 353 1747 
Q 353 2572 751 3078 
Q 1150 3584 1784 3584 
Q 2172 3584 2448 3432 
Q 2725 3281 2906 2969 
z
M 947 1747 
Q 947 1113 1208 752 
Q 1469 391 1925 391 
Q 2381 391 2643 752 
Q 2906 1113 2906 1747 
Q 2906 2381 2643 2742 
Q 2381 3103 1925 3103 
Q 1469 3103 1208 2742 
Q 947 2381 947 1747 
z
" transform="scale(0.015625)"/>
      <path id="DejaVuSans-79" d="M 2059 -325 
Q 1816 -950 1584 -1140 
Q 1353 -1331 966 -1331 
L 506 -1331 
L 506 -850 
L 844 -850 
Q 1081 -850 1212 -737 
Q 1344 -625 1503 -206 
L 1606 56 
L 191 3500 
L 800 3500 
L 1894 763 
L 2988 3500 
L 3597 3500 
L 2059 -325 
z
" transform="scale(0.015625)"/>
     </defs>
     <use xlink:href="#DejaVuSans-43"/>
     <use xlink:href="#DejaVuSans-6f" x="69.824219"/>
     <use xlink:href="#DejaVuSans-6c" x="131.005859"/>
     <use xlink:href="#DejaVuSans-6f" x="158.789062"/>
     <use xlink:href="#DejaVuSans-72" x="219.970703"/>
     <use xlink:href="#DejaVuSans-20" x="261.083984"/>
     <use xlink:href="#DejaVuSans-6f" x="292.871094"/>
     <use xlink:href="#DejaVuSans-66" x="354.052734"/>
     <use xlink:href="#DejaVuSans-20" x="389.257812"/>
     <use xlink:href="#DejaVuSans-69" x="421.044922"/>
     <use xlink:href="#DejaVuSans-6e" x="448.828125"/>
     <use xlink:href="#DejaVuSans-74" x="512.207031"/>
     <use xlink:href="#DejaVuSans-65" x="551.416016"/>
     <use xlink:href="#DejaVuSans-72" x="612.939453"/>
     <use xlink:href="#DejaVuSans-66" x="654.052734"/>
     <use xlink:href="#DejaVuSans-65" x="689.257812"/>
     <use xlink:href="#DejaVuSans-72" x="750.78125"/>
     <use xlink:href="#DejaVuSans-6f" x="789.644531"/>
     <use xlink:href="#DejaVuSans-6d" x="850.826172"/>
     <use xlink:href="#DejaVuSans-65" x="948.238281"/>
     <use xlink:href="#DejaVuSans-74" x="1009.761719"/>
     <use xlink:href="#DejaVuSans-72" x="1048.970703"/>
     <use xlink:href="#DejaVuSans-69" x="1090.083984"/>
     <use xlink:href="#DejaVuSans-63" x="1117.867188"/>
     <use xlink:href="#DejaVuSans-20" x="1172.847656"/>
     <use xlink:href="#DejaVuSans-64" x="1204.634766"/>
     <use xlink:href="#DejaVuSans-69" x="1268.111328"/>
     <use xlink:href="#DejaVuSans-73" x="1295.894531"/>
     <use xlink:href="#DejaVuSans-70" x="1347.994141"/>
     <use xlink:href="#DejaVuSans-6c" x="1411.470703"/>
     <use xlink:href="#DejaVuSans-61" x="1439.253906"/>
     <use xlink:href="#DejaVuSans-79" x="1500.533203"/>
     <use xlink:href="#DejaVuSans-20" x="1559.712891"/>
     <use xlink:href="#DejaVuSans-65" x="1591.5"/>
     <use xlink:href="#DejaVuSans-6c" x="1653.023438"/>
     <use xlink:href="#DejaVuSans-65" x="1680.806641"/>
     <use xlink:href="#DejaVuSans-6d" x="1742.330078"/>
     <use xlink:href="#DejaVuSans-65" x="1839.742188"/>
     <use xlink:href="#DejaVuSans-6e" x="1901.265625"/>
     <use xlink:href="#DejaVuSans-74" x="1964.644531"/>
    </g>
   </g>
  </g>
 </g>
 <defs>
  <clipPath id="pf06c5acb15">
   <rect x="10.7" y="22.318125" width="279" height="108.72"/>
  </clipPath>
 </defs>
</svg>
