<?xml version="1.0" encoding="utf-8" standalone="no"?>
<!DOCTYPE svg PUBLIC "-//W3C//DTD SVG 1.1//EN"
  "http://www.w3.org/Graphics/SVG/1.1/DTD/svg11.dtd">
<svg xmlns:xlink="http://www.w3.org/1999/xlink" width="296.9pt" height="168.594375pt" viewBox="0 0 296.9 168.594375" xmlns="http://www.w3.org/2000/svg" version="1.1">
 <metadata>
  <rdf:RDF xmlns:dc="http://purl.org/dc/elements/1.1/" xmlns:cc="http://creativecommons.org/ns#" xmlns:rdf="http://www.w3.org/1999/02/22-rdf-syntax-ns#">
   <cc:Work>
    <dc:type rdf:resource="http://purl.org/dc/dcmitype/StillImage"/>
    <dc:date>2023-02-11T16:17:04.457534</dc:date>
    <dc:format>image/svg+xml</dc:format>
    <dc:creator>
     <cc:Agent>
      <dc:title>Matplotlib v3.5.2, https://matplotlib.org/</dc:title>
     </cc:Agent>
    </dc:creator>
   </cc:Work>
  </rdf:RDF>
 </metadata>
 <defs>
  <style type="text/css">*{stroke-linejoin: round; stroke-linecap: butt}</style>
 </defs>
 <g id="figure_1">
  <g id="patch_1">
   <path d="M 0 168.594375 
L 296.9 168.594375 
L 296.9 0 
L 0 0 
z
" style="fill: #ffffff"/>
  </g>
  <g id="axes_1">
   <g id="patch_2">
    <path d="M 10.7 131.038125 
L 289.7 131.038125 
L 289.7 22.318125 
L 10.7 22.318125 
z
" style="fill: #ffffff"/>
   </g>
   <g id="patch_3">
    <path d="M 10.7 131.038125 
L 12.258659 131.038125 
L 12.258659 22.318125 
L 10.7 22.318125 
z
" clip-path="url(#p91435e219b)" style="fill: #bcb5ad; stroke: #bcb5ad; stroke-linejoin: miter"/>
   </g>
   <g id="patch_4">
    <path d="M 12.258659 131.038125 
L 13.817318 131.038125 
L 13.817318 22.318125 
L 12.258659 22.318125 
z
" clip-path="url(#p91435e219b)" style="fill: #bab2a8; stroke: #bab2a8; stroke-linejoin: miter"/>
   </g>
   <g id="patch_5">
    <path d="M 13.817318 131.038125 
L 15.375978 131.038125 
L 15.375978 22.318125 
L 13.817318 22.318125 
z
" clip-path="url(#p91435e219b)" style="fill: #b9afa3; stroke: #b9afa3; stroke-linejoin: miter"/>
   </g>
   <g id="patch_6">
    <path d="M 15.375978 131.038125 
L 16.934637 131.038125 
L 16.934637 22.318125 
L 15.375978 22.318125 
z
" clip-path="url(#p91435e219b)" style="fill: #b7ac9d; stroke: #b7ac9d; stroke-linejoin: miter"/>
   </g>
   <g id="patch_7">
    <path d="M 16.934637 131.038125 
L 18.493296 131.038125 
L 18.493296 22.318125 
L 16.934637 22.318125 
z
" clip-path="url(#p91435e219b)" style="fill: #b5a996; stroke: #b5a996; stroke-linejoin: miter"/>
   </g>
   <g id="patch_8">
    <path d="M 18.493296 131.038125 
L 20.051955 131.038125 
L 20.051955 22.318125 
L 18.493296 22.318125 
z
" clip-path="url(#p91435e219b)" style="fill: #b3a58f; stroke: #b3a58f; stroke-linejoin: miter"/>
   </g>
   <g id="patch_9">
    <path d="M 20.051955 131.038125 
L 21.610615 131.038125 
L 21.610615 22.318125 
L 20.051955 22.318125 
z
" clip-path="url(#p91435e219b)" style="fill: #b1a187; stroke: #b1a187; stroke-linejoin: miter"/>
   </g>
   <g id="patch_10">
    <path d="M 21.610615 131.038125 
L 23.169274 131.038125 
L 23.169274 22.318125 
L 21.610615 22.318125 
z
" clip-path="url(#p91435e219b)" style="fill: #ae9c7e; stroke: #ae9c7e; stroke-linejoin: miter"/>
   </g>
   <g id="patch_11">
    <path d="M 23.169274 131.038125 
L 24.727933 131.038125 
L 24.727933 22.318125 
L 23.169274 22.318125 
z
" clip-path="url(#p91435e219b)" style="fill: #ac9874; stroke: #ac9874; stroke-linejoin: miter"/>
   </g>
   <g id="patch_12">
    <path d="M 24.727933 131.038125 
L 26.286592 131.038125 
L 26.286592 22.318125 
L 24.727933 22.318125 
z
" clip-path="url(#p91435e219b)" style="fill: #a99268; stroke: #a99268; stroke-linejoin: miter"/>
   </g>
   <g id="patch_13">
    <path d="M 26.286592 131.038125 
L 27.845251 131.038125 
L 27.845251 22.318125 
L 26.286592 22.318125 
z
" clip-path="url(#p91435e219b)" style="fill: #a68d5c; stroke: #a68d5c; stroke-linejoin: miter"/>
   </g>
   <g id="patch_14">
    <path d="M 27.845251 131.038125 
L 29.403911 131.038125 
L 29.403911 22.318125 
L 27.845251 22.318125 
z
" clip-path="url(#p91435e219b)" style="fill: #a3864e; stroke: #a3864e; stroke-linejoin: miter"/>
   </g>
   <g id="patch_15">
    <path d="M 29.403911 131.038125 
L 30.96257 131.038125 
L 30.96257 22.318125 
L 29.403911 22.318125 
z
" clip-path="url(#p91435e219b)" style="fill: #a07f3e; stroke: #a07f3e; stroke-linejoin: miter"/>
   </g>
   <g id="patch_16">
    <path d="M 30.96257 131.038125 
L 32.521229 131.038125 
L 32.521229 22.318125 
L 30.96257 22.318125 
z
" clip-path="url(#p91435e219b)" style="fill: #9c782d; stroke: #9c782d; stroke-linejoin: miter"/>
   </g>
   <g id="patch_17">
    <path d="M 32.521229 131.038125 
L 34.079888 131.038125 
L 34.079888 22.318125 
L 32.521229 22.318125 
z
" clip-path="url(#p91435e219b)" style="fill: #987017; stroke: #987017; stroke-linejoin: miter"/>
   </g>
   <g id="patch_18">
    <path d="M 34.079888 131.038125 
L 35.638547 131.038125 
L 35.638547 22.318125 
L 34.079888 22.318125 
z
" clip-path="url(#p91435e219b)" style="fill: #946700; stroke: #946700; stroke-linejoin: miter"/>
   </g>
   <g id="patch_19">
    <path d="M 35.638547 131.038125 
L 37.197207 131.038125 
L 37.197207 22.318125 
L 35.638547 22.318125 
z
" clip-path="url(#p91435e219b)" style="fill: #8f5d00; stroke: #8f5d00; stroke-linejoin: miter"/>
   </g>
   <g id="patch_20">
    <path d="M 37.197207 131.038125 
L 38.755866 131.038125 
L 38.755866 22.318125 
L 37.197207 22.318125 
z
" clip-path="url(#p91435e219b)" style="fill: #8a5300; stroke: #8a5300; stroke-linejoin: miter"/>
   </g>
   <g id="patch_21">
    <path d="M 38.755866 131.038125 
L 40.314525 131.038125 
L 40.314525 22.318125 
L 38.755866 22.318125 
z
" clip-path="url(#p91435e219b)" style="fill: #84480d; stroke: #84480d; stroke-linejoin: miter"/>
   </g>
   <g id="patch_22">
    <path d="M 40.314525 131.038125 
L 41.873184 131.038125 
L 41.873184 22.318125 
L 40.314525 22.318125 
z
" clip-path="url(#p91435e219b)" style="fill: #7e3c26; stroke: #7e3c26; stroke-linejoin: miter"/>
   </g>
   <g id="patch_23">
    <path d="M 41.873184 131.038125 
L 43.431844 131.038125 
L 43.431844 22.318125 
L 41.873184 22.318125 
z
" clip-path="url(#p91435e219b)" style="fill: #772e39; stroke: #772e39; stroke-linejoin: miter"/>
   </g>
   <g id="patch_24">
    <path d="M 43.431844 131.038125 
L 44.990503 131.038125 
L 44.990503 22.318125 
L 43.431844 22.318125 
z
" clip-path="url(#p91435e219b)" style="fill: #701f49; stroke: #701f49; stroke-linejoin: miter"/>
   </g>
   <g id="patch_25">
    <path d="M 44.990503 131.038125 
L 46.549162 131.038125 
L 46.549162 22.318125 
L 44.990503 22.318125 
z
" clip-path="url(#p91435e219b)" style="fill: #670b58; stroke: #670b58; stroke-linejoin: miter"/>
   </g>
   <g id="patch_26">
    <path d="M 46.549162 131.038125 
L 48.107821 131.038125 
L 48.107821 22.318125 
L 46.549162 22.318125 
z
" clip-path="url(#p91435e219b)" style="fill: #5e0065; stroke: #5e0065; stroke-linejoin: miter"/>
   </g>
   <g id="patch_27">
    <path d="M 48.107821 131.038125 
L 49.66648 131.038125 
L 49.66648 22.318125 
L 48.107821 22.318125 
z
" clip-path="url(#p91435e219b)" style="fill: #530071; stroke: #530071; stroke-linejoin: miter"/>
   </g>
   <g id="patch_28">
    <path d="M 49.66648 131.038125 
L 51.22514 131.038125 
L 51.22514 22.318125 
L 49.66648 22.318125 
z
" clip-path="url(#p91435e219b)" style="fill: #47007c; stroke: #47007c; stroke-linejoin: miter"/>
   </g>
   <g id="patch_29">
    <path d="M 51.22514 131.038125 
L 52.783799 131.038125 
L 52.783799 22.318125 
L 51.22514 22.318125 
z
" clip-path="url(#p91435e219b)" style="fill: #380985; stroke: #380985; stroke-linejoin: miter"/>
   </g>
   <g id="patch_30">
    <path d="M 52.783799 131.038125 
L 54.342458 131.038125 
L 54.342458 22.318125 
L 52.783799 22.318125 
z
" clip-path="url(#p91435e219b)" style="fill: #261d8e; stroke: #261d8e; stroke-linejoin: miter"/>
   </g>
   <g id="patch_31">
    <path d="M 54.342458 131.038125 
L 55.901117 131.038125 
L 55.901117 22.318125 
L 54.342458 22.318125 
z
" clip-path="url(#p91435e219b)" style="fill: #052c96; stroke: #052c96; stroke-linejoin: miter"/>
   </g>
   <g id="patch_32">
    <path d="M 55.901117 131.038125 
L 57.459777 131.038125 
L 57.459777 22.318125 
L 55.901117 22.318125 
z
" clip-path="url(#p91435e219b)" style="fill: #00399d; stroke: #00399d; stroke-linejoin: miter"/>
   </g>
   <g id="patch_33">
    <path d="M 57.459777 131.038125 
L 59.018436 131.038125 
L 59.018436 22.318125 
L 57.459777 22.318125 
z
" clip-path="url(#p91435e219b)" style="fill: #0045a3; stroke: #0045a3; stroke-linejoin: miter"/>
   </g>
   <g id="patch_34">
    <path d="M 59.018436 131.038125 
L 60.577095 131.038125 
L 60.577095 22.318125 
L 59.018436 22.318125 
z
" clip-path="url(#p91435e219b)" style="fill: #0051a9; stroke: #0051a9; stroke-linejoin: miter"/>
   </g>
   <g id="patch_35">
    <path d="M 60.577095 131.038125 
L 62.135754 131.038125 
L 62.135754 22.318125 
L 60.577095 22.318125 
z
" clip-path="url(#p91435e219b)" style="fill: #005bae; stroke: #005bae; stroke-linejoin: miter"/>
   </g>
   <g id="patch_36">
    <path d="M 62.135754 131.038125 
L 63.694413 131.038125 
L 63.694413 22.318125 
L 62.135754 22.318125 
z
" clip-path="url(#p91435e219b)" style="fill: #0064b2; stroke: #0064b2; stroke-linejoin: miter"/>
   </g>
   <g id="patch_37">
    <path d="M 63.694413 131.038125 
L 65.253073 131.038125 
L 65.253073 22.318125 
L 63.694413 22.318125 
z
" clip-path="url(#p91435e219b)" style="fill: #006db6; stroke: #006db6; stroke-linejoin: miter"/>
   </g>
   <g id="patch_38">
    <path d="M 65.253073 131.038125 
L 66.811732 131.038125 
L 66.811732 22.318125 
L 65.253073 22.318125 
z
" clip-path="url(#p91435e219b)" style="fill: #0075ba; stroke: #0075ba; stroke-linejoin: miter"/>
   </g>
   <g id="patch_39">
    <path d="M 66.811732 131.038125 
L 68.370391 131.038125 
L 68.370391 22.318125 
L 66.811732 22.318125 
z
" clip-path="url(#p91435e219b)" style="fill: #007dbd; stroke: #007dbd; stroke-linejoin: miter"/>
   </g>
   <g id="patch_40">
    <path d="M 68.370391 131.038125 
L 69.92905 131.038125 
L 69.92905 22.318125 
L 68.370391 22.318125 
z
" clip-path="url(#p91435e219b)" style="fill: #0084c0; stroke: #0084c0; stroke-linejoin: miter"/>
   </g>
   <g id="patch_41">
    <path d="M 69.92905 131.038125 
L 71.487709 131.038125 
L 71.487709 22.318125 
L 69.92905 22.318125 
z
" clip-path="url(#p91435e219b)" style="fill: #008ac2; stroke: #008ac2; stroke-linejoin: miter"/>
   </g>
   <g id="patch_42">
    <path d="M 71.487709 131.038125 
L 73.046369 131.038125 
L 73.046369 22.318125 
L 71.487709 22.318125 
z
" clip-path="url(#p91435e219b)" style="fill: #2090c4; stroke: #2090c4; stroke-linejoin: miter"/>
   </g>
   <g id="patch_43">
    <path d="M 73.046369 131.038125 
L 74.605028 131.038125 
L 74.605028 22.318125 
L 73.046369 22.318125 
z
" clip-path="url(#p91435e219b)" style="fill: #3296c6; stroke: #3296c6; stroke-linejoin: miter"/>
   </g>
   <g id="patch_44">
    <path d="M 74.605028 131.038125 
L 76.163687 131.038125 
L 76.163687 22.318125 
L 74.605028 22.318125 
z
" clip-path="url(#p91435e219b)" style="fill: #409bc8; stroke: #409bc8; stroke-linejoin: miter"/>
   </g>
   <g id="patch_45">
    <path d="M 76.163687 131.038125 
L 77.722346 131.038125 
L 77.722346 22.318125 
L 76.163687 22.318125 
z
" clip-path="url(#p91435e219b)" style="fill: #4c9fc9; stroke: #4c9fc9; stroke-linejoin: miter"/>
   </g>
   <g id="patch_46">
    <path d="M 77.722346 131.038125 
L 79.281006 131.038125 
L 79.281006 22.318125 
L 77.722346 22.318125 
z
" clip-path="url(#p91435e219b)" style="fill: #57a4ca; stroke: #57a4ca; stroke-linejoin: miter"/>
   </g>
   <g id="patch_47">
    <path d="M 79.281006 131.038125 
L 80.839665 131.038125 
L 80.839665 22.318125 
L 79.281006 22.318125 
z
" clip-path="url(#p91435e219b)" style="fill: #60a8cb; stroke: #60a8cb; stroke-linejoin: miter"/>
   </g>
   <g id="patch_48">
    <path d="M 80.839665 131.038125 
L 82.398324 131.038125 
L 82.398324 22.318125 
L 80.839665 22.318125 
z
" clip-path="url(#p91435e219b)" style="fill: #69abcc; stroke: #69abcc; stroke-linejoin: miter"/>
   </g>
   <g id="patch_49">
    <path d="M 82.398324 131.038125 
L 83.956983 131.038125 
L 83.956983 22.318125 
L 82.398324 22.318125 
z
" clip-path="url(#p91435e219b)" style="fill: #70afcd; stroke: #70afcd; stroke-linejoin: miter"/>
   </g>
   <g id="patch_50">
    <path d="M 83.956983 131.038125 
L 85.515642 131.038125 
L 85.515642 22.318125 
L 83.956983 22.318125 
z
" clip-path="url(#p91435e219b)" style="fill: #77b2cd; stroke: #77b2cd; stroke-linejoin: miter"/>
   </g>
   <g id="patch_51">
    <path d="M 85.515642 131.038125 
L 87.074302 131.038125 
L 87.074302 22.318125 
L 85.515642 22.318125 
z
" clip-path="url(#p91435e219b)" style="fill: #7eb4ce; stroke: #7eb4ce; stroke-linejoin: miter"/>
   </g>
   <g id="patch_52">
    <path d="M 87.074302 131.038125 
L 88.632961 131.038125 
L 88.632961 22.318125 
L 87.074302 22.318125 
z
" clip-path="url(#p91435e219b)" style="fill: #84b7ce; stroke: #84b7ce; stroke-linejoin: miter"/>
   </g>
   <g id="patch_53">
    <path d="M 88.632961 131.038125 
L 90.19162 131.038125 
L 90.19162 22.318125 
L 88.632961 22.318125 
z
" clip-path="url(#p91435e219b)" style="fill: #8ab9ce; stroke: #8ab9ce; stroke-linejoin: miter"/>
   </g>
   <g id="patch_54">
    <path d="M 90.19162 131.038125 
L 91.750279 131.038125 
L 91.750279 22.318125 
L 90.19162 22.318125 
z
" clip-path="url(#p91435e219b)" style="fill: #8fbbce; stroke: #8fbbce; stroke-linejoin: miter"/>
   </g>
   <g id="patch_55">
    <path d="M 91.750279 131.038125 
L 93.308939 131.038125 
L 93.308939 22.318125 
L 91.750279 22.318125 
z
" clip-path="url(#p91435e219b)" style="fill: #94bdce; stroke: #94bdce; stroke-linejoin: miter"/>
   </g>
   <g id="patch_56">
    <path d="M 93.308939 131.038125 
L 94.867598 131.038125 
L 94.867598 22.318125 
L 93.308939 22.318125 
z
" clip-path="url(#p91435e219b)" style="fill: #98bfce; stroke: #98bfce; stroke-linejoin: miter"/>
   </g>
   <g id="patch_57">
    <path d="M 94.867598 131.038125 
L 96.426257 131.038125 
L 96.426257 22.318125 
L 94.867598 22.318125 
z
" clip-path="url(#p91435e219b)" style="fill: #9cc1ce; stroke: #9cc1ce; stroke-linejoin: miter"/>
   </g>
   <g id="patch_58">
    <path d="M 96.426257 131.038125 
L 97.984916 131.038125 
L 97.984916 22.318125 
L 96.426257 22.318125 
z
" clip-path="url(#p91435e219b)" style="fill: #a0c2cd; stroke: #a0c2cd; stroke-linejoin: miter"/>
   </g>
   <g id="patch_59">
    <path d="M 97.984916 131.038125 
L 99.543575 131.038125 
L 99.543575 22.318125 
L 97.984916 22.318125 
z
" clip-path="url(#p91435e219b)" style="fill: #a4c4cd; stroke: #a4c4cd; stroke-linejoin: miter"/>
   </g>
   <g id="patch_60">
    <path d="M 99.543575 131.038125 
L 101.102235 131.038125 
L 101.102235 22.318125 
L 99.543575 22.318125 
z
" clip-path="url(#p91435e219b)" style="fill: #a7c5cc; stroke: #a7c5cc; stroke-linejoin: miter"/>
   </g>
   <g id="patch_61">
    <path d="M 101.102235 131.038125 
L 102.660894 131.038125 
L 102.660894 22.318125 
L 101.102235 22.318125 
z
" clip-path="url(#p91435e219b)" style="fill: #aac6cb; stroke: #aac6cb; stroke-linejoin: miter"/>
   </g>
   <g id="patch_62">
    <path d="M 102.660894 131.038125 
L 104.219553 131.038125 
L 104.219553 22.318125 
L 102.660894 22.318125 
z
" clip-path="url(#p91435e219b)" style="fill: #adc7ca; stroke: #adc7ca; stroke-linejoin: miter"/>
   </g>
   <g id="patch_63">
    <path d="M 104.219553 131.038125 
L 105.778212 131.038125 
L 105.778212 22.318125 
L 104.219553 22.318125 
z
" clip-path="url(#p91435e219b)" style="fill: #afc8c9; stroke: #afc8c9; stroke-linejoin: miter"/>
   </g>
   <g id="patch_64">
    <path d="M 105.778212 131.038125 
L 107.336872 131.038125 
L 107.336872 22.318125 
L 105.778212 22.318125 
z
" clip-path="url(#p91435e219b)" style="fill: #b2c9c7; stroke: #b2c9c7; stroke-linejoin: miter"/>
   </g>
   <g id="patch_65">
    <path d="M 107.336872 131.038125 
L 108.895531 131.038125 
L 108.895531 22.318125 
L 107.336872 22.318125 
z
" clip-path="url(#p91435e219b)" style="fill: #b4cac6; stroke: #b4cac6; stroke-linejoin: miter"/>
   </g>
   <g id="patch_66">
    <path d="M 108.895531 131.038125 
L 110.45419 131.038125 
L 110.45419 22.318125 
L 108.895531 22.318125 
z
" clip-path="url(#p91435e219b)" style="fill: #b6cac4; stroke: #b6cac4; stroke-linejoin: miter"/>
   </g>
   <g id="patch_67">
    <path d="M 110.45419 131.038125 
L 112.012849 131.038125 
L 112.012849 22.318125 
L 110.45419 22.318125 
z
" clip-path="url(#p91435e219b)" style="fill: #b8cbc2; stroke: #b8cbc2; stroke-linejoin: miter"/>
   </g>
   <g id="patch_68">
    <path d="M 112.012849 131.038125 
L 113.571508 131.038125 
L 113.571508 22.318125 
L 112.012849 22.318125 
z
" clip-path="url(#p91435e219b)" style="fill: #bacbc0; stroke: #bacbc0; stroke-linejoin: miter"/>
   </g>
   <g id="patch_69">
    <path d="M 113.571508 131.038125 
L 115.130168 131.038125 
L 115.130168 22.318125 
L 113.571508 22.318125 
z
" clip-path="url(#p91435e219b)" style="fill: #bcccbd; stroke: #bcccbd; stroke-linejoin: miter"/>
   </g>
   <g id="patch_70">
    <path d="M 115.130168 131.038125 
L 116.688827 131.038125 
L 116.688827 22.318125 
L 115.130168 22.318125 
z
" clip-path="url(#p91435e219b)" style="fill: #bdccbb; stroke: #bdccbb; stroke-linejoin: miter"/>
   </g>
   <g id="patch_71">
    <path d="M 116.688827 131.038125 
L 118.247486 131.038125 
L 118.247486 22.318125 
L 116.688827 22.318125 
z
" clip-path="url(#p91435e219b)" style="fill: #bfccb8; stroke: #bfccb8; stroke-linejoin: miter"/>
   </g>
   <g id="patch_72">
    <path d="M 118.247486 131.038125 
L 119.806145 131.038125 
L 119.806145 22.318125 
L 118.247486 22.318125 
z
" clip-path="url(#p91435e219b)" style="fill: #c0cdb4; stroke: #c0cdb4; stroke-linejoin: miter"/>
   </g>
   <g id="patch_73">
    <path d="M 119.806145 131.038125 
L 121.364804 131.038125 
L 121.364804 22.318125 
L 119.806145 22.318125 
z
" clip-path="url(#p91435e219b)" style="fill: #c1cdb0; stroke: #c1cdb0; stroke-linejoin: miter"/>
   </g>
   <g id="patch_74">
    <path d="M 121.364804 131.038125 
L 122.923464 131.038125 
L 122.923464 22.318125 
L 121.364804 22.318125 
z
" clip-path="url(#p91435e219b)" style="fill: #c3cdac; stroke: #c3cdac; stroke-linejoin: miter"/>
   </g>
   <g id="patch_75">
    <path d="M 122.923464 131.038125 
L 124.482123 131.038125 
L 124.482123 22.318125 
L 122.923464 22.318125 
z
" clip-path="url(#p91435e219b)" style="fill: #c4cda8; stroke: #c4cda8; stroke-linejoin: miter"/>
   </g>
   <g id="patch_76">
    <path d="M 124.482123 131.038125 
L 126.040782 131.038125 
L 126.040782 22.318125 
L 124.482123 22.318125 
z
" clip-path="url(#p91435e219b)" style="fill: #c5cda2; stroke: #c5cda2; stroke-linejoin: miter"/>
   </g>
   <g id="patch_77">
    <path d="M 126.040782 131.038125 
L 127.599441 131.038125 
L 127.599441 22.318125 
L 126.040782 22.318125 
z
" clip-path="url(#p91435e219b)" style="fill: #c6cd9d; stroke: #c6cd9d; stroke-linejoin: miter"/>
   </g>
   <g id="patch_78">
    <path d="M 127.599441 131.038125 
L 129.158101 131.038125 
L 129.158101 22.318125 
L 127.599441 22.318125 
z
" clip-path="url(#p91435e219b)" style="fill: #c7cc97; stroke: #c7cc97; stroke-linejoin: miter"/>
   </g>
   <g id="patch_79">
    <path d="M 129.158101 131.038125 
L 130.71676 131.038125 
L 130.71676 22.318125 
L 129.158101 22.318125 
z
" clip-path="url(#p91435e219b)" style="fill: #c7cc90; stroke: #c7cc90; stroke-linejoin: miter"/>
   </g>
   <g id="patch_80">
    <path d="M 130.71676 131.038125 
L 132.275419 131.038125 
L 132.275419 22.318125 
L 130.71676 22.318125 
z
" clip-path="url(#p91435e219b)" style="fill: #c8cc89; stroke: #c8cc89; stroke-linejoin: miter"/>
   </g>
   <g id="patch_81">
    <path d="M 132.275419 131.038125 
L 133.834078 131.038125 
L 133.834078 22.318125 
L 132.275419 22.318125 
z
" clip-path="url(#p91435e219b)" style="fill: #c9cb81; stroke: #c9cb81; stroke-linejoin: miter"/>
   </g>
   <g id="patch_82">
    <path d="M 133.834078 131.038125 
L 135.392737 131.038125 
L 135.392737 22.318125 
L 133.834078 22.318125 
z
" clip-path="url(#p91435e219b)" style="fill: #caca79; stroke: #caca79; stroke-linejoin: miter"/>
   </g>
   <g id="patch_83">
    <path d="M 135.392737 131.038125 
L 136.951397 131.038125 
L 136.951397 22.318125 
L 135.392737 22.318125 
z
" clip-path="url(#p91435e219b)" style="fill: #cbc970; stroke: #cbc970; stroke-linejoin: miter"/>
   </g>
   <g id="patch_84">
    <path d="M 136.951397 131.038125 
L 138.510056 131.038125 
L 138.510056 22.318125 
L 136.951397 22.318125 
z
" clip-path="url(#p91435e219b)" style="fill: #ccc866; stroke: #ccc866; stroke-linejoin: miter"/>
   </g>
   <g id="patch_85">
    <path d="M 138.510056 131.038125 
L 140.068715 131.038125 
L 140.068715 22.318125 
L 138.510056 22.318125 
z
" clip-path="url(#p91435e219b)" style="fill: #cdc75d; stroke: #cdc75d; stroke-linejoin: miter"/>
   </g>
   <g id="patch_86">
    <path d="M 140.068715 131.038125 
L 141.627374 131.038125 
L 141.627374 22.318125 
L 140.068715 22.318125 
z
" clip-path="url(#p91435e219b)" style="fill: #cec653; stroke: #cec653; stroke-linejoin: miter"/>
   </g>
   <g id="patch_87">
    <path d="M 141.627374 131.038125 
L 143.186034 131.038125 
L 143.186034 22.318125 
L 141.627374 22.318125 
z
" clip-path="url(#p91435e219b)" style="fill: #cec449; stroke: #cec449; stroke-linejoin: miter"/>
   </g>
   <g id="patch_88">
    <path d="M 143.186034 131.038125 
L 144.744693 131.038125 
L 144.744693 22.318125 
L 143.186034 22.318125 
z
" clip-path="url(#p91435e219b)" style="fill: #d0c23f; stroke: #d0c23f; stroke-linejoin: miter"/>
   </g>
   <g id="patch_89">
    <path d="M 144.744693 131.038125 
L 146.303352 131.038125 
L 146.303352 22.318125 
L 144.744693 22.318125 
z
" clip-path="url(#p91435e219b)" style="fill: #d1c037; stroke: #d1c037; stroke-linejoin: miter"/>
   </g>
   <g id="patch_90">
    <path d="M 146.303352 131.038125 
L 147.862011 131.038125 
L 147.862011 22.318125 
L 146.303352 22.318125 
z
" clip-path="url(#p91435e219b)" style="fill: #d2be30; stroke: #d2be30; stroke-linejoin: miter"/>
   </g>
   <g id="patch_91">
    <path d="M 147.862011 131.038125 
L 149.42067 131.038125 
L 149.42067 22.318125 
L 147.862011 22.318125 
z
" clip-path="url(#p91435e219b)" style="fill: #d3bb2d; stroke: #d3bb2d; stroke-linejoin: miter"/>
   </g>
   <g id="patch_92">
    <path d="M 149.42067 131.038125 
L 150.97933 131.038125 
L 150.97933 22.318125 
L 149.42067 22.318125 
z
" clip-path="url(#p91435e219b)" style="fill: #d4b92e; stroke: #d4b92e; stroke-linejoin: miter"/>
   </g>
   <g id="patch_93">
    <path d="M 150.97933 131.038125 
L 152.537989 131.038125 
L 152.537989 22.318125 
L 150.97933 22.318125 
z
" clip-path="url(#p91435e219b)" style="fill: #d5b533; stroke: #d5b533; stroke-linejoin: miter"/>
   </g>
   <g id="patch_94">
    <path d="M 152.537989 131.038125 
L 154.096648 131.038125 
L 154.096648 22.318125 
L 152.537989 22.318125 
z
" clip-path="url(#p91435e219b)" style="fill: #d6b23a; stroke: #d6b23a; stroke-linejoin: miter"/>
   </g>
   <g id="patch_95">
    <path d="M 154.096648 131.038125 
L 155.655307 131.038125 
L 155.655307 22.318125 
L 154.096648 22.318125 
z
" clip-path="url(#p91435e219b)" style="fill: #d7ae43; stroke: #d7ae43; stroke-linejoin: miter"/>
   </g>
   <g id="patch_96">
    <path d="M 155.655307 131.038125 
L 157.213966 131.038125 
L 157.213966 22.318125 
L 155.655307 22.318125 
z
" clip-path="url(#p91435e219b)" style="fill: #d8aa4c; stroke: #d8aa4c; stroke-linejoin: miter"/>
   </g>
   <g id="patch_97">
    <path d="M 157.213966 131.038125 
L 158.772626 131.038125 
L 158.772626 22.318125 
L 157.213966 22.318125 
z
" clip-path="url(#p91435e219b)" style="fill: #d9a656; stroke: #d9a656; stroke-linejoin: miter"/>
   </g>
   <g id="patch_98">
    <path d="M 158.772626 131.038125 
L 160.331285 131.038125 
L 160.331285 22.318125 
L 158.772626 22.318125 
z
" clip-path="url(#p91435e219b)" style="fill: #daa160; stroke: #daa160; stroke-linejoin: miter"/>
   </g>
   <g id="patch_99">
    <path d="M 160.331285 131.038125 
L 161.889944 131.038125 
L 161.889944 22.318125 
L 160.331285 22.318125 
z
" clip-path="url(#p91435e219b)" style="fill: #da9d69; stroke: #da9d69; stroke-linejoin: miter"/>
   </g>
   <g id="patch_100">
    <path d="M 161.889944 131.038125 
L 163.448603 131.038125 
L 163.448603 22.318125 
L 161.889944 22.318125 
z
" clip-path="url(#p91435e219b)" style="fill: #db9772; stroke: #db9772; stroke-linejoin: miter"/>
   </g>
   <g id="patch_101">
    <path d="M 163.448603 131.038125 
L 165.007263 131.038125 
L 165.007263 22.318125 
L 163.448603 22.318125 
z
" clip-path="url(#p91435e219b)" style="fill: #db927a; stroke: #db927a; stroke-linejoin: miter"/>
   </g>
   <g id="patch_102">
    <path d="M 165.007263 131.038125 
L 166.565922 131.038125 
L 166.565922 22.318125 
L 165.007263 22.318125 
z
" clip-path="url(#p91435e219b)" style="fill: #db8c82; stroke: #db8c82; stroke-linejoin: miter"/>
   </g>
   <g id="patch_103">
    <path d="M 166.565922 131.038125 
L 168.124581 131.038125 
L 168.124581 22.318125 
L 166.565922 22.318125 
z
" clip-path="url(#p91435e219b)" style="fill: #db878a; stroke: #db878a; stroke-linejoin: miter"/>
   </g>
   <g id="patch_104">
    <path d="M 168.124581 131.038125 
L 169.68324 131.038125 
L 169.68324 22.318125 
L 168.124581 22.318125 
z
" clip-path="url(#p91435e219b)" style="fill: #db8191; stroke: #db8191; stroke-linejoin: miter"/>
   </g>
   <g id="patch_105">
    <path d="M 169.68324 131.038125 
L 171.241899 131.038125 
L 171.241899 22.318125 
L 169.68324 22.318125 
z
" clip-path="url(#p91435e219b)" style="fill: #da7a97; stroke: #da7a97; stroke-linejoin: miter"/>
   </g>
   <g id="patch_106">
    <path d="M 171.241899 131.038125 
L 172.800559 131.038125 
L 172.800559 22.318125 
L 171.241899 22.318125 
z
" clip-path="url(#p91435e219b)" style="fill: #d9749d; stroke: #d9749d; stroke-linejoin: miter"/>
   </g>
   <g id="patch_107">
    <path d="M 172.800559 131.038125 
L 174.359218 131.038125 
L 174.359218 22.318125 
L 172.800559 22.318125 
z
" clip-path="url(#p91435e219b)" style="fill: #d86da3; stroke: #d86da3; stroke-linejoin: miter"/>
   </g>
   <g id="patch_108">
    <path d="M 174.359218 131.038125 
L 175.917877 131.038125 
L 175.917877 22.318125 
L 174.359218 22.318125 
z
" clip-path="url(#p91435e219b)" style="fill: #d667a8; stroke: #d667a8; stroke-linejoin: miter"/>
   </g>
   <g id="patch_109">
    <path d="M 175.917877 131.038125 
L 177.476536 131.038125 
L 177.476536 22.318125 
L 175.917877 22.318125 
z
" clip-path="url(#p91435e219b)" style="fill: #d460ad; stroke: #d460ad; stroke-linejoin: miter"/>
   </g>
   <g id="patch_110">
    <path d="M 177.476536 131.038125 
L 179.035196 131.038125 
L 179.035196 22.318125 
L 177.476536 22.318125 
z
" clip-path="url(#p91435e219b)" style="fill: #d15ab1; stroke: #d15ab1; stroke-linejoin: miter"/>
   </g>
   <g id="patch_111">
    <path d="M 179.035196 131.038125 
L 180.593855 131.038125 
L 180.593855 22.318125 
L 179.035196 22.318125 
z
" clip-path="url(#p91435e219b)" style="fill: #cf53b6; stroke: #cf53b6; stroke-linejoin: miter"/>
   </g>
   <g id="patch_112">
    <path d="M 180.593855 131.038125 
L 182.152514 131.038125 
L 182.152514 22.318125 
L 180.593855 22.318125 
z
" clip-path="url(#p91435e219b)" style="fill: #cb4db9; stroke: #cb4db9; stroke-linejoin: miter"/>
   </g>
   <g id="patch_113">
    <path d="M 182.152514 131.038125 
L 183.711173 131.038125 
L 183.711173 22.318125 
L 182.152514 22.318125 
z
" clip-path="url(#p91435e219b)" style="fill: #c848bd; stroke: #c848bd; stroke-linejoin: miter"/>
   </g>
   <g id="patch_114">
    <path d="M 183.711173 131.038125 
L 185.269832 131.038125 
L 185.269832 22.318125 
L 183.711173 22.318125 
z
" clip-path="url(#p91435e219b)" style="fill: #c443c0; stroke: #c443c0; stroke-linejoin: miter"/>
   </g>
   <g id="patch_115">
    <path d="M 185.269832 131.038125 
L 186.828492 131.038125 
L 186.828492 22.318125 
L 185.269832 22.318125 
z
" clip-path="url(#p91435e219b)" style="fill: #bf40c2; stroke: #bf40c2; stroke-linejoin: miter"/>
   </g>
   <g id="patch_116">
    <path d="M 186.828492 131.038125 
L 188.387151 131.038125 
L 188.387151 22.318125 
L 186.828492 22.318125 
z
" clip-path="url(#p91435e219b)" style="fill: #ba3ec5; stroke: #ba3ec5; stroke-linejoin: miter"/>
   </g>
   <g id="patch_117">
    <path d="M 188.387151 131.038125 
L 189.94581 131.038125 
L 189.94581 22.318125 
L 188.387151 22.318125 
z
" clip-path="url(#p91435e219b)" style="fill: #b53dc7; stroke: #b53dc7; stroke-linejoin: miter"/>
   </g>
   <g id="patch_118">
    <path d="M 189.94581 131.038125 
L 191.504469 131.038125 
L 191.504469 22.318125 
L 189.94581 22.318125 
z
" clip-path="url(#p91435e219b)" style="fill: #af3ec9; stroke: #af3ec9; stroke-linejoin: miter"/>
   </g>
   <g id="patch_119">
    <path d="M 191.504469 131.038125 
L 193.063128 131.038125 
L 193.063128 22.318125 
L 191.504469 22.318125 
z
" clip-path="url(#p91435e219b)" style="fill: #a840cb; stroke: #a840cb; stroke-linejoin: miter"/>
   </g>
   <g id="patch_120">
    <path d="M 193.063128 131.038125 
L 194.621788 131.038125 
L 194.621788 22.318125 
L 193.063128 22.318125 
z
" clip-path="url(#p91435e219b)" style="fill: #a143cc; stroke: #a143cc; stroke-linejoin: miter"/>
   </g>
   <g id="patch_121">
    <path d="M 194.621788 131.038125 
L 196.180447 131.038125 
L 196.180447 22.318125 
L 194.621788 22.318125 
z
" clip-path="url(#p91435e219b)" style="fill: #9948ce; stroke: #9948ce; stroke-linejoin: miter"/>
   </g>
   <g id="patch_122">
    <path d="M 196.180447 131.038125 
L 197.739106 131.038125 
L 197.739106 22.318125 
L 196.180447 22.318125 
z
" clip-path="url(#p91435e219b)" style="fill: #914dcf; stroke: #914dcf; stroke-linejoin: miter"/>
   </g>
   <g id="patch_123">
    <path d="M 197.739106 131.038125 
L 199.297765 131.038125 
L 199.297765 22.318125 
L 197.739106 22.318125 
z
" clip-path="url(#p91435e219b)" style="fill: #8853cf; stroke: #8853cf; stroke-linejoin: miter"/>
   </g>
   <g id="patch_124">
    <path d="M 199.297765 131.038125 
L 200.856425 131.038125 
L 200.856425 22.318125 
L 199.297765 22.318125 
z
" clip-path="url(#p91435e219b)" style="fill: #7e59d0; stroke: #7e59d0; stroke-linejoin: miter"/>
   </g>
   <g id="patch_125">
    <path d="M 200.856425 131.038125 
L 202.415084 131.038125 
L 202.415084 22.318125 
L 200.856425 22.318125 
z
" clip-path="url(#p91435e219b)" style="fill: #745fd1; stroke: #745fd1; stroke-linejoin: miter"/>
   </g>
   <g id="patch_126">
    <path d="M 202.415084 131.038125 
L 203.973743 131.038125 
L 203.973743 22.318125 
L 202.415084 22.318125 
z
" clip-path="url(#p91435e219b)" style="fill: #6865d1; stroke: #6865d1; stroke-linejoin: miter"/>
   </g>
   <g id="patch_127">
    <path d="M 203.973743 131.038125 
L 205.532402 131.038125 
L 205.532402 22.318125 
L 203.973743 22.318125 
z
" clip-path="url(#p91435e219b)" style="fill: #5b6bd1; stroke: #5b6bd1; stroke-linejoin: miter"/>
   </g>
   <g id="patch_128">
    <path d="M 205.532402 131.038125 
L 207.091061 131.038125 
L 207.091061 22.318125 
L 205.532402 22.318125 
z
" clip-path="url(#p91435e219b)" style="fill: #4c71d1; stroke: #4c71d1; stroke-linejoin: miter"/>
   </g>
   <g id="patch_129">
    <path d="M 207.091061 131.038125 
L 208.649721 131.038125 
L 208.649721 22.318125 
L 207.091061 22.318125 
z
" clip-path="url(#p91435e219b)" style="fill: #3a77d0; stroke: #3a77d0; stroke-linejoin: miter"/>
   </g>
   <g id="patch_130">
    <path d="M 208.649721 131.038125 
L 210.20838 131.038125 
L 210.20838 22.318125 
L 208.649721 22.318125 
z
" clip-path="url(#p91435e219b)" style="fill: #1f7dd0; stroke: #1f7dd0; stroke-linejoin: miter"/>
   </g>
   <g id="patch_131">
    <path d="M 210.20838 131.038125 
L 211.767039 131.038125 
L 211.767039 22.318125 
L 210.20838 22.318125 
z
" clip-path="url(#p91435e219b)" style="fill: #0083cf; stroke: #0083cf; stroke-linejoin: miter"/>
   </g>
   <g id="patch_132">
    <path d="M 211.767039 131.038125 
L 213.325698 131.038125 
L 213.325698 22.318125 
L 211.767039 22.318125 
z
" clip-path="url(#p91435e219b)" style="fill: #0089ce; stroke: #0089ce; stroke-linejoin: miter"/>
   </g>
   <g id="patch_133">
    <path d="M 213.325698 131.038125 
L 214.884358 131.038125 
L 214.884358 22.318125 
L 213.325698 22.318125 
z
" clip-path="url(#p91435e219b)" style="fill: #008ecd; stroke: #008ecd; stroke-linejoin: miter"/>
   </g>
   <g id="patch_134">
    <path d="M 214.884358 131.038125 
L 216.443017 131.038125 
L 216.443017 22.318125 
L 214.884358 22.318125 
z
" clip-path="url(#p91435e219b)" style="fill: #0093cc; stroke: #0093cc; stroke-linejoin: miter"/>
   </g>
   <g id="patch_135">
    <path d="M 216.443017 131.038125 
L 218.001676 131.038125 
L 218.001676 22.318125 
L 216.443017 22.318125 
z
" clip-path="url(#p91435e219b)" style="fill: #0098cb; stroke: #0098cb; stroke-linejoin: miter"/>
   </g>
   <g id="patch_136">
    <path d="M 218.001676 131.038125 
L 219.560335 131.038125 
L 219.560335 22.318125 
L 218.001676 22.318125 
z
" clip-path="url(#p91435e219b)" style="fill: #009cc9; stroke: #009cc9; stroke-linejoin: miter"/>
   </g>
   <g id="patch_137">
    <path d="M 219.560335 131.038125 
L 221.118994 131.038125 
L 221.118994 22.318125 
L 219.560335 22.318125 
z
" clip-path="url(#p91435e219b)" style="fill: #00a1c7; stroke: #00a1c7; stroke-linejoin: miter"/>
   </g>
   <g id="patch_138">
    <path d="M 221.118994 131.038125 
L 222.677654 131.038125 
L 222.677654 22.318125 
L 221.118994 22.318125 
z
" clip-path="url(#p91435e219b)" style="fill: #00a5c5; stroke: #00a5c5; stroke-linejoin: miter"/>
   </g>
   <g id="patch_139">
    <path d="M 222.677654 131.038125 
L 224.236313 131.038125 
L 224.236313 22.318125 
L 222.677654 22.318125 
z
" clip-path="url(#p91435e219b)" style="fill: #00a9c3; stroke: #00a9c3; stroke-linejoin: miter"/>
   </g>
   <g id="patch_140">
    <path d="M 224.236313 131.038125 
L 225.794972 131.038125 
L 225.794972 22.318125 
L 224.236313 22.318125 
z
" clip-path="url(#p91435e219b)" style="fill: #00adc1; stroke: #00adc1; stroke-linejoin: miter"/>
   </g>
   <g id="patch_141">
    <path d="M 225.794972 131.038125 
L 227.353631 131.038125 
L 227.353631 22.318125 
L 225.794972 22.318125 
z
" clip-path="url(#p91435e219b)" style="fill: #00b0be; stroke: #00b0be; stroke-linejoin: miter"/>
   </g>
   <g id="patch_142">
    <path d="M 227.353631 131.038125 
L 228.912291 131.038125 
L 228.912291 22.318125 
L 227.353631 22.318125 
z
" clip-path="url(#p91435e219b)" style="fill: #00b3bb; stroke: #00b3bb; stroke-linejoin: miter"/>
   </g>
   <g id="patch_143">
    <path d="M 228.912291 131.038125 
L 230.47095 131.038125 
L 230.47095 22.318125 
L 228.912291 22.318125 
z
" clip-path="url(#p91435e219b)" style="fill: #00b6b8; stroke: #00b6b8; stroke-linejoin: miter"/>
   </g>
   <g id="patch_144">
    <path d="M 230.47095 131.038125 
L 232.029609 131.038125 
L 232.029609 22.318125 
L 230.47095 22.318125 
z
" clip-path="url(#p91435e219b)" style="fill: #00b9b4; stroke: #00b9b4; stroke-linejoin: miter"/>
   </g>
   <g id="patch_145">
    <path d="M 232.029609 131.038125 
L 233.588268 131.038125 
L 233.588268 22.318125 
L 232.029609 22.318125 
z
" clip-path="url(#p91435e219b)" style="fill: #00bcb0; stroke: #00bcb0; stroke-linejoin: miter"/>
   </g>
   <g id="patch_146">
    <path d="M 233.588268 131.038125 
L 235.146927 131.038125 
L 235.146927 22.318125 
L 233.588268 22.318125 
z
" clip-path="url(#p91435e219b)" style="fill: #00beac; stroke: #00beac; stroke-linejoin: miter"/>
   </g>
   <g id="patch_147">
    <path d="M 235.146927 131.038125 
L 236.705587 131.038125 
L 236.705587 22.318125 
L 235.146927 22.318125 
z
" clip-path="url(#p91435e219b)" style="fill: #00c0a8; stroke: #00c0a8; stroke-linejoin: miter"/>
   </g>
   <g id="patch_148">
    <path d="M 236.705587 131.038125 
L 238.264246 131.038125 
L 238.264246 22.318125 
L 236.705587 22.318125 
z
" clip-path="url(#p91435e219b)" style="fill: #00c2a3; stroke: #00c2a3; stroke-linejoin: miter"/>
   </g>
   <g id="patch_149">
    <path d="M 238.264246 131.038125 
L 239.822905 131.038125 
L 239.822905 22.318125 
L 238.264246 22.318125 
z
" clip-path="url(#p91435e219b)" style="fill: #00c49f; stroke: #00c49f; stroke-linejoin: miter"/>
   </g>
   <g id="patch_150">
    <path d="M 239.822905 131.038125 
L 241.381564 131.038125 
L 241.381564 22.318125 
L 239.822905 22.318125 
z
" clip-path="url(#p91435e219b)" style="fill: #00c69a; stroke: #00c69a; stroke-linejoin: miter"/>
   </g>
   <g id="patch_151">
    <path d="M 241.381564 131.038125 
L 242.940223 131.038125 
L 242.940223 22.318125 
L 241.381564 22.318125 
z
" clip-path="url(#p91435e219b)" style="fill: #25c894; stroke: #25c894; stroke-linejoin: miter"/>
   </g>
   <g id="patch_152">
    <path d="M 242.940223 131.038125 
L 244.498883 131.038125 
L 244.498883 22.318125 
L 242.940223 22.318125 
z
" clip-path="url(#p91435e219b)" style="fill: #39c98f; stroke: #39c98f; stroke-linejoin: miter"/>
   </g>
   <g id="patch_153">
    <path d="M 244.498883 131.038125 
L 246.057542 131.038125 
L 246.057542 22.318125 
L 244.498883 22.318125 
z
" clip-path="url(#p91435e219b)" style="fill: #47ca8a; stroke: #47ca8a; stroke-linejoin: miter"/>
   </g>
   <g id="patch_154">
    <path d="M 246.057542 131.038125 
L 247.616201 131.038125 
L 247.616201 22.318125 
L 246.057542 22.318125 
z
" clip-path="url(#p91435e219b)" style="fill: #53cb84; stroke: #53cb84; stroke-linejoin: miter"/>
   </g>
   <g id="patch_155">
    <path d="M 247.616201 131.038125 
L 249.17486 131.038125 
L 249.17486 22.318125 
L 247.616201 22.318125 
z
" clip-path="url(#p91435e219b)" style="fill: #5ecc7f; stroke: #5ecc7f; stroke-linejoin: miter"/>
   </g>
   <g id="patch_156">
    <path d="M 249.17486 131.038125 
L 250.73352 131.038125 
L 250.73352 22.318125 
L 249.17486 22.318125 
z
" clip-path="url(#p91435e219b)" style="fill: #67cd79; stroke: #67cd79; stroke-linejoin: miter"/>
   </g>
   <g id="patch_157">
    <path d="M 250.73352 131.038125 
L 252.292179 131.038125 
L 252.292179 22.318125 
L 250.73352 22.318125 
z
" clip-path="url(#p91435e219b)" style="fill: #6fcd74; stroke: #6fcd74; stroke-linejoin: miter"/>
   </g>
   <g id="patch_158">
    <path d="M 252.292179 131.038125 
L 253.850838 131.038125 
L 253.850838 22.318125 
L 252.292179 22.318125 
z
" clip-path="url(#p91435e219b)" style="fill: #77ce6f; stroke: #77ce6f; stroke-linejoin: miter"/>
   </g>
   <g id="patch_159">
    <path d="M 253.850838 131.038125 
L 255.409497 131.038125 
L 255.409497 22.318125 
L 253.850838 22.318125 
z
" clip-path="url(#p91435e219b)" style="fill: #7fce6b; stroke: #7fce6b; stroke-linejoin: miter"/>
   </g>
   <g id="patch_160">
    <path d="M 255.409497 131.038125 
L 256.968156 131.038125 
L 256.968156 22.318125 
L 255.409497 22.318125 
z
" clip-path="url(#p91435e219b)" style="fill: #86ce67; stroke: #86ce67; stroke-linejoin: miter"/>
   </g>
   <g id="patch_161">
    <path d="M 256.968156 131.038125 
L 258.526816 131.038125 
L 258.526816 22.318125 
L 256.968156 22.318125 
z
" clip-path="url(#p91435e219b)" style="fill: #8cce65; stroke: #8cce65; stroke-linejoin: miter"/>
   </g>
   <g id="patch_162">
    <path d="M 258.526816 131.038125 
L 260.085475 131.038125 
L 260.085475 22.318125 
L 258.526816 22.318125 
z
" clip-path="url(#p91435e219b)" style="fill: #92cd63; stroke: #92cd63; stroke-linejoin: miter"/>
   </g>
   <g id="patch_163">
    <path d="M 260.085475 131.038125 
L 261.644134 131.038125 
L 261.644134 22.318125 
L 260.085475 22.318125 
z
" clip-path="url(#p91435e219b)" style="fill: #98cd62; stroke: #98cd62; stroke-linejoin: miter"/>
   </g>
   <g id="patch_164">
    <path d="M 261.644134 131.038125 
L 263.202793 131.038125 
L 263.202793 22.318125 
L 261.644134 22.318125 
z
" clip-path="url(#p91435e219b)" style="fill: #9dcc61; stroke: #9dcc61; stroke-linejoin: miter"/>
   </g>
   <g id="patch_165">
    <path d="M 263.202793 131.038125 
L 264.761453 131.038125 
L 264.761453 22.318125 
L 263.202793 22.318125 
z
" clip-path="url(#p91435e219b)" style="fill: #a2cc62; stroke: #a2cc62; stroke-linejoin: miter"/>
   </g>
   <g id="patch_166">
    <path d="M 264.761453 131.038125 
L 266.320112 131.038125 
L 266.320112 22.318125 
L 264.761453 22.318125 
z
" clip-path="url(#p91435e219b)" style="fill: #a7cb64; stroke: #a7cb64; stroke-linejoin: miter"/>
   </g>
   <g id="patch_167">
    <path d="M 266.320112 131.038125 
L 267.878771 131.038125 
L 267.878771 22.318125 
L 266.320112 22.318125 
z
" clip-path="url(#p91435e219b)" style="fill: #acca67; stroke: #acca67; stroke-linejoin: miter"/>
   </g>
   <g id="patch_168">
    <path d="M 267.878771 131.038125 
L 269.43743 131.038125 
L 269.43743 22.318125 
L 267.878771 22.318125 
z
" clip-path="url(#p91435e219b)" style="fill: #b0c96a; stroke: #b0c96a; stroke-linejoin: miter"/>
   </g>
   <g id="patch_169">
    <path d="M 269.43743 131.038125 
L 270.996089 131.038125 
L 270.996089 22.318125 
L 269.43743 22.318125 
z
" clip-path="url(#p91435e219b)" style="fill: #b5c86e; stroke: #b5c86e; stroke-linejoin: miter"/>
   </g>
   <g id="patch_170">
    <path d="M 270.996089 131.038125 
L 272.554749 131.038125 
L 272.554749 22.318125 
L 270.996089 22.318125 
z
" clip-path="url(#p91435e219b)" style="fill: #b9c672; stroke: #b9c672; stroke-linejoin: miter"/>
   </g>
   <g id="patch_171">
    <path d="M 272.554749 131.038125 
L 274.113408 131.038125 
L 274.113408 22.318125 
L 272.554749 22.318125 
z
" clip-path="url(#p91435e219b)" style="fill: #bcc576; stroke: #bcc576; stroke-linejoin: miter"/>
   </g>
   <g id="patch_172">
    <path d="M 274.113408 131.038125 
L 275.672067 131.038125 
L 275.672067 22.318125 
L 274.113408 22.318125 
z
" clip-path="url(#p91435e219b)" style="fill: #c0c37b; stroke: #c0c37b; stroke-linejoin: miter"/>
   </g>
   <g id="patch_173">
    <path d="M 275.672067 131.038125 
L 277.230726 131.038125 
L 277.230726 22.318125 
L 275.672067 22.318125 
z
" clip-path="url(#p91435e219b)" style="fill: #c3c17f; stroke: #c3c17f; stroke-linejoin: miter"/>
   </g>
   <g id="patch_174">
    <path d="M 277.230726 131.038125 
L 278.789385 131.038125 
L 278.789385 22.318125 
L 277.230726 22.318125 
z
" clip-path="url(#p91435e219b)" style="fill: #c6c084; stroke: #c6c084; stroke-linejoin: miter"/>
   </g>
   <g id="patch_175">
    <path d="M 278.789385 131.038125 
L 280.348045 131.038125 
L 280.348045 22.318125 
L 278.789385 22.318125 
z
" clip-path="url(#p91435e219b)" style="fill: #c9be89; stroke: #c9be89; stroke-linejoin: miter"/>
   </g>
   <g id="patch_176">
    <path d="M 280.348045 131.038125 
L 281.906704 131.038125 
L 281.906704 22.318125 
L 280.348045 22.318125 
z
" clip-path="url(#p91435e219b)" style="fill: #ccbc8d; stroke: #ccbc8d; stroke-linejoin: miter"/>
   </g>
   <g id="patch_177">
    <path d="M 281.906704 131.038125 
L 283.465363 131.038125 
L 283.465363 22.318125 
L 281.906704 22.318125 
z
" clip-path="url(#p91435e219b)" style="fill: #cfb991; stroke: #cfb991; stroke-linejoin: miter"/>
   </g>
   <g id="patch_178">
    <path d="M 283.465363 131.038125 
L 285.024022 131.038125 
L 285.024022 22.318125 
L 283.465363 22.318125 
z
" clip-path="url(#p91435e219b)" style="fill: #d1b796; stroke: #d1b796; stroke-linejoin: miter"/>
   </g>
   <g id="patch_179">
    <path d="M 285.024022 131.038125 
L 286.582682 131.038125 
L 286.582682 22.318125 
L 285.024022 22.318125 
z
" clip-path="url(#p91435e219b)" style="fill: #d4b59a; stroke: #d4b59a; stroke-linejoin: miter"/>
   </g>
   <g id="patch_180">
    <path d="M 286.582682 131.038125 
L 288.141341 131.038125 
L 288.141341 22.318125 
L 286.582682 22.318125 
z
" clip-path="url(#p91435e219b)" style="fill: #d6b29e; stroke: #d6b29e; stroke-linejoin: miter"/>
   </g>
   <g id="patch_181">
    <path d="M 288.141341 131.038125 
L 289.7 131.038125 
L 289.7 22.318125 
L 288.141341 22.318125 
z
" clip-path="url(#p91435e219b)" style="fill: #d8b0a2; stroke: #d8b0a2; stroke-linejoin: miter"/>
   </g>
   <g id="patch_182">
    <path d="M 289.7 131.038125 
L 291.258659 131.038125 
L 291.258659 22.318125 
L 289.7 22.318125 
z
" clip-path="url(#p91435e219b)" style="fill: #daada5; stroke: #daada5; stroke-linejoin: miter"/>
   </g>
   <g id="matplotlib.axis_1">
    <g id="xtick_1">
     <g id="line2d_1">
      <defs>
       <path id="mfed06ae264" d="M 0 0 
L 0 3.5 
" style="stroke: #000000; stroke-width: 0.8"/>
      </defs>
      <g>
       <use xlink:href="#mfed06ae264" x="10.7" y="131.038125" style="stroke: #000000; stroke-width: 0.8"/>
      </g>
     </g>
     <g id="text_1">
      <!-- 0 -->
      <g transform="translate(7.51875 145.636562)scale(0.1 -0.1)">
       <defs>
        <path id="DejaVuSans-30" d="M 2034 4250 
Q 1547 4250 1301 3770 
Q 1056 3291 1056 2328 
Q 1056 1369 1301 889 
Q 1547 409 2034 409 
Q 2525 409 2770 889 
Q 3016 1369 3016 2328 
Q 3016 3291 2770 3770 
Q 2525 4250 2034 4250 
z
M 2034 4750 
Q 2819 4750 3233 4129 
Q 3647 3509 3647 2328 
Q 3647 1150 3233 529 
Q 2819 -91 2034 -91 
Q 1250 -91 836 529 
Q 422 1150 422 2328 
Q 422 3509 836 4129 
Q 1250 4750 2034 4750 
z
" transform="scale(0.015625)"/>
       </defs>
       <use xlink:href="#DejaVuSans-30"/>
      </g>
     </g>
    </g>
    <g id="xtick_2">
     <g id="line2d_2">
      <g>
       <use xlink:href="#mfed06ae264" x="41.873184" y="131.038125" style="stroke: #000000; stroke-width: 0.8"/>
      </g>
     </g>
     <g id="text_2">
      <!-- 20 -->
      <g transform="translate(35.510684 145.636562)scale(0.1 -0.1)">
       <defs>
        <path id="DejaVuSans-32" d="M 1228 531 
L 3431 531 
L 3431 0 
L 469 0 
L 469 531 
Q 828 903 1448 1529 
Q 2069 2156 2228 2338 
Q 2531 2678 2651 2914 
Q 2772 3150 2772 3378 
Q 2772 3750 2511 3984 
Q 2250 4219 1831 4219 
Q 1534 4219 1204 4116 
Q 875 4013 500 3803 
L 500 4441 
Q 881 4594 1212 4672 
Q 1544 4750 1819 4750 
Q 2544 4750 2975 4387 
Q 3406 4025 3406 3419 
Q 3406 3131 3298 2873 
Q 3191 2616 2906 2266 
Q 2828 2175 2409 1742 
Q 1991 1309 1228 531 
z
" transform="scale(0.015625)"/>
       </defs>
       <use xlink:href="#DejaVuSans-32"/>
       <use xlink:href="#DejaVuSans-30" x="63.623047"/>
      </g>
     </g>
    </g>
    <g id="xtick_3">
     <g id="line2d_3">
      <g>
       <use xlink:href="#mfed06ae264" x="73.046369" y="131.038125" style="stroke: #000000; stroke-width: 0.8"/>
      </g>
     </g>
     <g id="text_3">
      <!-- 40 -->
      <g transform="translate(66.683869 145.636562)scale(0.1 -0.1)">
       <defs>
        <path id="DejaVuSans-34" d="M 2419 4116 
L 825 1625 
L 2419 1625 
L 2419 4116 
z
M 2253 4666 
L 3047 4666 
L 3047 1625 
L 3713 1625 
L 3713 1100 
L 3047 1100 
L 3047 0 
L 2419 0 
L 2419 1100 
L 313 1100 
L 313 1709 
L 2253 4666 
z
" transform="scale(0.015625)"/>
       </defs>
       <use xlink:href="#DejaVuSans-34"/>
       <use xlink:href="#DejaVuSans-30" x="63.623047"/>
      </g>
     </g>
    </g>
    <g id="xtick_4">
     <g id="line2d_4">
      <g>
       <use xlink:href="#mfed06ae264" x="104.219553" y="131.038125" style="stroke: #000000; stroke-width: 0.8"/>
      </g>
     </g>
     <g id="text_4">
      <!-- 60 -->
      <g transform="translate(97.857053 145.636562)scale(0.1 -0.1)">
       <defs>
        <path id="DejaVuSans-36" d="M 2113 2584 
Q 1688 2584 1439 2293 
Q 1191 2003 1191 1497 
Q 1191 994 1439 701 
Q 1688 409 2113 409 
Q 2538 409 2786 701 
Q 3034 994 3034 1497 
Q 3034 2003 2786 2293 
Q 2538 2584 2113 2584 
z
M 3366 4563 
L 3366 3988 
Q 3128 4100 2886 4159 
Q 2644 4219 2406 4219 
Q 1781 4219 1451 3797 
Q 1122 3375 1075 2522 
Q 1259 2794 1537 2939 
Q 1816 3084 2150 3084 
Q 2853 3084 3261 2657 
Q 3669 2231 3669 1497 
Q 3669 778 3244 343 
Q 2819 -91 2113 -91 
Q 1303 -91 875 529 
Q 447 1150 447 2328 
Q 447 3434 972 4092 
Q 1497 4750 2381 4750 
Q 2619 4750 2861 4703 
Q 3103 4656 3366 4563 
z
" transform="scale(0.015625)"/>
       </defs>
       <use xlink:href="#DejaVuSans-36"/>
       <use xlink:href="#DejaVuSans-30" x="63.623047"/>
      </g>
     </g>
    </g>
    <g id="xtick_5">
     <g id="line2d_5">
      <g>
       <use xlink:href="#mfed06ae264" x="135.392737" y="131.038125" style="stroke: #000000; stroke-width: 0.8"/>
      </g>
     </g>
     <g id="text_5">
      <!-- 80 -->
      <g transform="translate(129.030237 145.636562)scale(0.1 -0.1)">
       <defs>
        <path id="DejaVuSans-38" d="M 2034 2216 
Q 1584 2216 1326 1975 
Q 1069 1734 1069 1313 
Q 1069 891 1326 650 
Q 1584 409 2034 409 
Q 2484 409 2743 651 
Q 3003 894 3003 1313 
Q 3003 1734 2745 1975 
Q 2488 2216 2034 2216 
z
M 1403 2484 
Q 997 2584 770 2862 
Q 544 3141 544 3541 
Q 544 4100 942 4425 
Q 1341 4750 2034 4750 
Q 2731 4750 3128 4425 
Q 3525 4100 3525 3541 
Q 3525 3141 3298 2862 
Q 3072 2584 2669 2484 
Q 3125 2378 3379 2068 
Q 3634 1759 3634 1313 
Q 3634 634 3220 271 
Q 2806 -91 2034 -91 
Q 1263 -91 848 271 
Q 434 634 434 1313 
Q 434 1759 690 2068 
Q 947 2378 1403 2484 
z
M 1172 3481 
Q 1172 3119 1398 2916 
Q 1625 2713 2034 2713 
Q 2441 2713 2670 2916 
Q 2900 3119 2900 3481 
Q 2900 3844 2670 4047 
Q 2441 4250 2034 4250 
Q 1625 4250 1398 4047 
Q 1172 3844 1172 3481 
z
" transform="scale(0.015625)"/>
       </defs>
       <use xlink:href="#DejaVuSans-38"/>
       <use xlink:href="#DejaVuSans-30" x="63.623047"/>
      </g>
     </g>
    </g>
    <g id="xtick_6">
     <g id="line2d_6">
      <g>
       <use xlink:href="#mfed06ae264" x="166.565922" y="131.038125" style="stroke: #000000; stroke-width: 0.8"/>
      </g>
     </g>
     <g id="text_6">
      <!-- 100 -->
      <g transform="translate(157.022172 145.636562)scale(0.1 -0.1)">
       <defs>
        <path id="DejaVuSans-31" d="M 794 531 
L 1825 531 
L 1825 4091 
L 703 3866 
L 703 4441 
L 1819 4666 
L 2450 4666 
L 2450 531 
L 3481 531 
L 3481 0 
L 794 0 
L 794 531 
z
" transform="scale(0.015625)"/>
       </defs>
       <use xlink:href="#DejaVuSans-31"/>
       <use xlink:href="#DejaVuSans-30" x="63.623047"/>
       <use xlink:href="#DejaVuSans-30" x="127.246094"/>
      </g>
     </g>
    </g>
    <g id="xtick_7">
     <g id="line2d_7">
      <g>
       <use xlink:href="#mfed06ae264" x="197.739106" y="131.038125" style="stroke: #000000; stroke-width: 0.8"/>
      </g>
     </g>
     <g id="text_7">
      <!-- 120 -->
      <g transform="translate(188.195356 145.636562)scale(0.1 -0.1)">
       <use xlink:href="#DejaVuSans-31"/>
       <use xlink:href="#DejaVuSans-32" x="63.623047"/>
       <use xlink:href="#DejaVuSans-30" x="127.246094"/>
      </g>
     </g>
    </g>
    <g id="xtick_8">
     <g id="line2d_8">
      <g>
       <use xlink:href="#mfed06ae264" x="228.912291" y="131.038125" style="stroke: #000000; stroke-width: 0.8"/>
      </g>
     </g>
     <g id="text_8">
      <!-- 140 -->
      <g transform="translate(219.368541 145.636562)scale(0.1 -0.1)">
       <use xlink:href="#DejaVuSans-31"/>
       <use xlink:href="#DejaVuSans-34" x="63.623047"/>
       <use xlink:href="#DejaVuSans-30" x="127.246094"/>
      </g>
     </g>
    </g>
    <g id="xtick_9">
     <g id="line2d_9">
      <g>
       <use xlink:href="#mfed06ae264" x="260.085475" y="131.038125" style="stroke: #000000; stroke-width: 0.8"/>
      </g>
     </g>
     <g id="text_9">
      <!-- 160 -->
      <g transform="translate(250.541725 145.636562)scale(0.1 -0.1)">
       <use xlink:href="#DejaVuSans-31"/>
       <use xlink:href="#DejaVuSans-36" x="63.623047"/>
       <use xlink:href="#DejaVuSans-30" x="127.246094"/>
      </g>
     </g>
    </g>
    <g id="text_10">
     <!-- oxide thickness (nm) -->
     <g transform="translate(97.961719 159.314687)scale(0.1 -0.1)">
      <defs>
       <path id="DejaVuSans-6f" d="M 1959 3097 
Q 1497 3097 1228 2736 
Q 959 2375 959 1747 
Q 959 1119 1226 758 
Q 1494 397 1959 397 
Q 2419 397 2687 759 
Q 2956 1122 2956 1747 
Q 2956 2369 2687 2733 
Q 2419 3097 1959 3097 
z
M 1959 3584 
Q 2709 3584 3137 3096 
Q 3566 2609 3566 1747 
Q 3566 888 3137 398 
Q 2709 -91 1959 -91 
Q 1206 -91 779 398 
Q 353 888 353 1747 
Q 353 2609 779 3096 
Q 1206 3584 1959 3584 
z
" transform="scale(0.015625)"/>
       <path id="DejaVuSans-78" d="M 3513 3500 
L 2247 1797 
L 3578 0 
L 2900 0 
L 1881 1375 
L 863 0 
L 184 0 
L 1544 1831 
L 300 3500 
L 978 3500 
L 1906 2253 
L 2834 3500 
L 3513 3500 
z
" transform="scale(0.015625)"/>
       <path id="DejaVuSans-69" d="M 603 3500 
L 1178 3500 
L 1178 0 
L 603 0 
L 603 3500 
z
M 603 4863 
L 1178 4863 
L 1178 4134 
L 603 4134 
L 603 4863 
z
" transform="scale(0.015625)"/>
       <path id="DejaVuSans-64" d="M 2906 2969 
L 2906 4863 
L 3481 4863 
L 3481 0 
L 2906 0 
L 2906 525 
Q 2725 213 2448 61 
Q 2172 -91 1784 -91 
Q 1150 -91 751 415 
Q 353 922 353 1747 
Q 353 2572 751 3078 
Q 1150 3584 1784 3584 
Q 2172 3584 2448 3432 
Q 2725 3281 2906 2969 
z
M 947 1747 
Q 947 1113 1208 752 
Q 1469 391 1925 391 
Q 2381 391 2643 752 
Q 2906 1113 2906 1747 
Q 2906 2381 2643 2742 
Q 2381 3103 1925 3103 
Q 1469 3103 1208 2742 
Q 947 2381 947 1747 
z
" transform="scale(0.015625)"/>
       <path id="DejaVuSans-65" d="M 3597 1894 
L 3597 1613 
L 953 1613 
Q 991 1019 1311 708 
Q 1631 397 2203 397 
Q 2534 397 2845 478 
Q 3156 559 3463 722 
L 3463 178 
Q 3153 47 2828 -22 
Q 2503 -91 2169 -91 
Q 1331 -91 842 396 
Q 353 884 353 1716 
Q 353 2575 817 3079 
Q 1281 3584 2069 3584 
Q 2775 3584 3186 3129 
Q 3597 2675 3597 1894 
z
M 3022 2063 
Q 3016 2534 2758 2815 
Q 2500 3097 2075 3097 
Q 1594 3097 1305 2825 
Q 1016 2553 972 2059 
L 3022 2063 
z
" transform="scale(0.015625)"/>
       <path id="DejaVuSans-20" transform="scale(0.015625)"/>
       <path id="DejaVuSans-74" d="M 1172 4494 
L 1172 3500 
L 2356 3500 
L 2356 3053 
L 1172 3053 
L 1172 1153 
Q 1172 725 1289 603 
Q 1406 481 1766 481 
L 2356 481 
L 2356 0 
L 1766 0 
Q 1100 0 847 248 
Q 594 497 594 1153 
L 594 3053 
L 172 3053 
L 172 3500 
L 594 3500 
L 594 4494 
L 1172 4494 
z
" transform="scale(0.015625)"/>
       <path id="DejaVuSans-68" d="M 3513 2113 
L 3513 0 
L 2938 0 
L 2938 2094 
Q 2938 2591 2744 2837 
Q 2550 3084 2163 3084 
Q 1697 3084 1428 2787 
Q 1159 2491 1159 1978 
L 1159 0 
L 581 0 
L 581 4863 
L 1159 4863 
L 1159 2956 
Q 1366 3272 1645 3428 
Q 1925 3584 2291 3584 
Q 2894 3584 3203 3211 
Q 3513 2838 3513 2113 
z
" transform="scale(0.015625)"/>
       <path id="DejaVuSans-63" d="M 3122 3366 
L 3122 2828 
Q 2878 2963 2633 3030 
Q 2388 3097 2138 3097 
Q 1578 3097 1268 2742 
Q 959 2388 959 1747 
Q 959 1106 1268 751 
Q 1578 397 2138 397 
Q 2388 397 2633 464 
Q 2878 531 3122 666 
L 3122 134 
Q 2881 22 2623 -34 
Q 2366 -91 2075 -91 
Q 1284 -91 818 406 
Q 353 903 353 1747 
Q 353 2603 823 3093 
Q 1294 3584 2113 3584 
Q 2378 3584 2631 3529 
Q 2884 3475 3122 3366 
z
" transform="scale(0.015625)"/>
       <path id="DejaVuSans-6b" d="M 581 4863 
L 1159 4863 
L 1159 1991 
L 2875 3500 
L 3609 3500 
L 1753 1863 
L 3688 0 
L 2938 0 
L 1159 1709 
L 1159 0 
L 581 0 
L 581 4863 
z
" transform="scale(0.015625)"/>
       <path id="DejaVuSans-6e" d="M 3513 2113 
L 3513 0 
L 2938 0 
L 2938 2094 
Q 2938 2591 2744 2837 
Q 2550 3084 2163 3084 
Q 1697 3084 1428 2787 
Q 1159 2491 1159 1978 
L 1159 0 
L 581 0 
L 581 3500 
L 1159 3500 
L 1159 2956 
Q 1366 3272 1645 3428 
Q 1925 3584 2291 3584 
Q 2894 3584 3203 3211 
Q 3513 2838 3513 2113 
z
" transform="scale(0.015625)"/>
       <path id="DejaVuSans-73" d="M 2834 3397 
L 2834 2853 
Q 2591 2978 2328 3040 
Q 2066 3103 1784 3103 
Q 1356 3103 1142 2972 
Q 928 2841 928 2578 
Q 928 2378 1081 2264 
Q 1234 2150 1697 2047 
L 1894 2003 
Q 2506 1872 2764 1633 
Q 3022 1394 3022 966 
Q 3022 478 2636 193 
Q 2250 -91 1575 -91 
Q 1294 -91 989 -36 
Q 684 19 347 128 
L 347 722 
Q 666 556 975 473 
Q 1284 391 1588 391 
Q 1994 391 2212 530 
Q 2431 669 2431 922 
Q 2431 1156 2273 1281 
Q 2116 1406 1581 1522 
L 1381 1569 
Q 847 1681 609 1914 
Q 372 2147 372 2553 
Q 372 3047 722 3315 
Q 1072 3584 1716 3584 
Q 2034 3584 2315 3537 
Q 2597 3491 2834 3397 
z
" transform="scale(0.015625)"/>
       <path id="DejaVuSans-28" d="M 1984 4856 
Q 1566 4138 1362 3434 
Q 1159 2731 1159 2009 
Q 1159 1288 1364 580 
Q 1569 -128 1984 -844 
L 1484 -844 
Q 1016 -109 783 600 
Q 550 1309 550 2009 
Q 550 2706 781 3412 
Q 1013 4119 1484 4856 
L 1984 4856 
z
" transform="scale(0.015625)"/>
       <path id="DejaVuSans-6d" d="M 3328 2828 
Q 3544 3216 3844 3400 
Q 4144 3584 4550 3584 
Q 5097 3584 5394 3201 
Q 5691 2819 5691 2113 
L 5691 0 
L 5113 0 
L 5113 2094 
Q 5113 2597 4934 2840 
Q 4756 3084 4391 3084 
Q 3944 3084 3684 2787 
Q 3425 2491 3425 1978 
L 3425 0 
L 2847 0 
L 2847 2094 
Q 2847 2600 2669 2842 
Q 2491 3084 2119 3084 
Q 1678 3084 1418 2786 
Q 1159 2488 1159 1978 
L 1159 0 
L 581 0 
L 581 3500 
L 1159 3500 
L 1159 2956 
Q 1356 3278 1631 3431 
Q 1906 3584 2284 3584 
Q 2666 3584 2933 3390 
Q 3200 3197 3328 2828 
z
" transform="scale(0.015625)"/>
       <path id="DejaVuSans-29" d="M 513 4856 
L 1013 4856 
Q 1481 4119 1714 3412 
Q 1947 2706 1947 2009 
Q 1947 1309 1714 600 
Q 1481 -109 1013 -844 
L 513 -844 
Q 928 -128 1133 580 
Q 1338 1288 1338 2009 
Q 1338 2731 1133 3434 
Q 928 4138 513 4856 
z
" transform="scale(0.015625)"/>
      </defs>
      <use xlink:href="#DejaVuSans-6f"/>
      <use xlink:href="#DejaVuSans-78" x="58.056641"/>
      <use xlink:href="#DejaVuSans-69" x="117.236328"/>
      <use xlink:href="#DejaVuSans-64" x="145.019531"/>
      <use xlink:href="#DejaVuSans-65" x="208.496094"/>
      <use xlink:href="#DejaVuSans-20" x="270.019531"/>
      <use xlink:href="#DejaVuSans-74" x="301.806641"/>
      <use xlink:href="#DejaVuSans-68" x="341.015625"/>
      <use xlink:href="#DejaVuSans-69" x="404.394531"/>
      <use xlink:href="#DejaVuSans-63" x="432.177734"/>
      <use xlink:href="#DejaVuSans-6b" x="487.158203"/>
      <use xlink:href="#DejaVuSans-6e" x="545.068359"/>
      <use xlink:href="#DejaVuSans-65" x="608.447266"/>
      <use xlink:href="#DejaVuSans-73" x="669.970703"/>
      <use xlink:href="#DejaVuSans-73" x="722.070312"/>
      <use xlink:href="#DejaVuSans-20" x="774.169922"/>
      <use xlink:href="#DejaVuSans-28" x="805.957031"/>
      <use xlink:href="#DejaVuSans-6e" x="844.970703"/>
      <use xlink:href="#DejaVuSans-6d" x="908.349609"/>
      <use xlink:href="#DejaVuSans-29" x="1005.761719"/>
     </g>
    </g>
   </g>
   <g id="matplotlib.axis_2"/>
   <g id="patch_183">
    <path d="M 10.7 131.038125 
L 10.7 22.318125 
" style="fill: none; stroke: #000000; stroke-width: 0.8; stroke-linejoin: miter; stroke-linecap: square"/>
   </g>
   <g id="patch_184">
    <path d="M 289.7 131.038125 
L 289.7 22.318125 
" style="fill: none; stroke: #000000; stroke-width: 0.8; stroke-linejoin: miter; stroke-linecap: square"/>
   </g>
   <g id="patch_185">
    <path d="M 10.7 131.038125 
L 289.7 131.038125 
" style="fill: none; stroke: #000000; stroke-width: 0.8; stroke-linejoin: miter; stroke-linecap: square"/>
   </g>
   <g id="patch_186">
    <path d="M 10.7 22.318125 
L 289.7 22.318125 
" style="fill: none; stroke: #000000; stroke-width: 0.8; stroke-linejoin: miter; stroke-linecap: square"/>
   </g>
   <g id="text_11">
    <!-- Color of thin oxide on titanium -->
    <g transform="translate(58.751562 16.318125)scale(0.12 -0.12)">
     <defs>
      <path id="DejaVuSans-43" d="M 4122 4306 
L 4122 3641 
Q 3803 3938 3442 4084 
Q 3081 4231 2675 4231 
Q 1875 4231 1450 3742 
Q 1025 3253 1025 2328 
Q 1025 1406 1450 917 
Q 1875 428 2675 428 
Q 3081 428 3442 575 
Q 3803 722 4122 1019 
L 4122 359 
Q 3791 134 3420 21 
Q 3050 -91 2638 -91 
Q 1578 -91 968 557 
Q 359 1206 359 2328 
Q 359 3453 968 4101 
Q 1578 4750 2638 4750 
Q 3056 4750 3426 4639 
Q 3797 4528 4122 4306 
z
" transform="scale(0.015625)"/>
      <path id="DejaVuSans-6c" d="M 603 4863 
L 1178 4863 
L 1178 0 
L 603 0 
L 603 4863 
z
" transform="scale(0.015625)"/>
      <path id="DejaVuSans-72" d="M 2631 2963 
Q 2534 3019 2420 3045 
Q 2306 3072 2169 3072 
Q 1681 3072 1420 2755 
Q 1159 2438 1159 1844 
L 1159 0 
L 581 0 
L 581 3500 
L 1159 3500 
L 1159 2956 
Q 1341 3275 1631 3429 
Q 1922 3584 2338 3584 
Q 2397 3584 2469 3576 
Q 2541 3569 2628 3553 
L 2631 2963 
z
" transform="scale(0.015625)"/>
      <path id="DejaVuSans-66" d="M 2375 4863 
L 2375 4384 
L 1825 4384 
Q 1516 4384 1395 4259 
Q 1275 4134 1275 3809 
L 1275 3500 
L 2222 3500 
L 2222 3053 
L 1275 3053 
L 1275 0 
L 697 0 
L 697 3053 
L 147 3053 
L 147 3500 
L 697 3500 
L 697 3744 
Q 697 4328 969 4595 
Q 1241 4863 1831 4863 
L 2375 4863 
z
" transform="scale(0.015625)"/>
      <path id="DejaVuSans-61" d="M 2194 1759 
Q 1497 1759 1228 1600 
Q 959 1441 959 1056 
Q 959 750 1161 570 
Q 1363 391 1709 391 
Q 2188 391 2477 730 
Q 2766 1069 2766 1631 
L 2766 1759 
L 2194 1759 
z
M 3341 1997 
L 3341 0 
L 2766 0 
L 2766 531 
Q 2569 213 2275 61 
Q 1981 -91 1556 -91 
Q 1019 -91 701 211 
Q 384 513 384 1019 
Q 384 1609 779 1909 
Q 1175 2209 1959 2209 
L 2766 2209 
L 2766 2266 
Q 2766 2663 2505 2880 
Q 2244 3097 1772 3097 
Q 1472 3097 1187 3025 
Q 903 2953 641 2809 
L 641 3341 
Q 956 3463 1253 3523 
Q 1550 3584 1831 3584 
Q 2591 3584 2966 3190 
Q 3341 2797 3341 1997 
z
" transform="scale(0.015625)"/>
      <path id="DejaVuSans-75" d="M 544 1381 
L 544 3500 
L 1119 3500 
L 1119 1403 
Q 1119 906 1312 657 
Q 1506 409 1894 409 
Q 2359 409 2629 706 
Q 2900 1003 2900 1516 
L 2900 3500 
L 3475 3500 
L 3475 0 
L 2900 0 
L 2900 538 
Q 2691 219 2414 64 
Q 2138 -91 1772 -91 
Q 1169 -91 856 284 
Q 544 659 544 1381 
z
M 1991 3584 
L 1991 3584 
z
" transform="scale(0.015625)"/>
     </defs>
     <use xlink:href="#DejaVuSans-43"/>
     <use xlink:href="#DejaVuSans-6f" x="69.824219"/>
     <use xlink:href="#DejaVuSans-6c" x="131.005859"/>
     <use xlink:href="#DejaVuSans-6f" x="158.789062"/>
     <use xlink:href="#DejaVuSans-72" x="219.970703"/>
     <use xlink:href="#DejaVuSans-20" x="261.083984"/>
     <use xlink:href="#DejaVuSans-6f" x="292.871094"/>
     <use xlink:href="#DejaVuSans-66" x="354.052734"/>
     <use xlink:href="#DejaVuSans-20" x="389.257812"/>
     <use xlink:href="#DejaVuSans-74" x="421.044922"/>
     <use xlink:href="#DejaVuSans-68" x="460.253906"/>
     <use xlink:href="#DejaVuSans-69" x="523.632812"/>
     <use xlink:href="#DejaVuSans-6e" x="551.416016"/>
     <use xlink:href="#DejaVuSans-20" x="614.794922"/>
     <use xlink:href="#DejaVuSans-6f" x="646.582031"/>
     <use xlink:href="#DejaVuSans-78" x="704.638672"/>
     <use xlink:href="#DejaVuSans-69" x="763.818359"/>
     <use xlink:href="#DejaVuSans-64" x="791.601562"/>
     <use xlink:href="#DejaVuSans-65" x="855.078125"/>
     <use xlink:href="#DejaVuSans-20" x="916.601562"/>
     <use xlink:href="#DejaVuSans-6f" x="948.388672"/>
     <use xlink:href="#DejaVuSans-6e" x="1009.570312"/>
     <use xlink:href="#DejaVuSans-20" x="1072.949219"/>
     <use xlink:href="#DejaVuSans-74" x="1104.736328"/>
     <use xlink:href="#DejaVuSans-69" x="1143.945312"/>
     <use xlink:href="#DejaVuSans-74" x="1171.728516"/>
     <use xlink:href="#DejaVuSans-61" x="1210.9375"/>
     <use xlink:href="#DejaVuSans-6e" x="1272.216797"/>
     <use xlink:href="#DejaVuSans-69" x="1335.595703"/>
     <use xlink:href="#DejaVuSans-75" x="1363.378906"/>
     <use xlink:href="#DejaVuSans-6d" x="1426.757812"/>
    </g>
   </g>
  </g>
 </g>
 <defs>
  <clipPath id="p91435e219b">
   <rect x="10.7" y="22.318125" width="279" height="108.72"/>
  </clipPath>
 </defs>
</svg>
